<svg width="46" height="36" viewBox="0 0 46 36" version="1.1" xmlns="http://www.w3.org/2000/svg" xmlns:xlink="http://www.w3.org/1999/xlink">
    <title>Group</title>
    <desc>Created using Figma</desc>
    <g id="Canvas" transform="translate(1303 276)">
        <rect x="-1303" y="-276" width="46" height="36" fill="#E5E5E5"/>
        <clipPath id="clip-0" clip-rule="evenodd">
            <path d="M -1862 -729L -837 -729L -837 1460L -1862 1460L -1862 -729Z" fill="#FFFFFF"/>
        </clipPath>
        <g id="&#208;&#160;&#208;&#176;&#208;&#183;&#208;&#178;&#208;&#190;&#208;&#180;&#209;&#143;&#209;&#137;&#208;&#176;&#209;&#143;_1" clip-path="url(#clip-0)">
            <path d="M -1862 -729L -837 -729L -837 1460L -1862 1460L -1862 -729Z" fill="#FFFFFF"/>
            <g id="Group">
                <g id="Group">
                    <g id="Group">
                        <g id="Vector">
                            <use xlink:href="#path0_fill" transform="translate(-1297.69 -257.09)" fill="#FFFFFF"/>
                        </g>
                    </g>
                    <g id="Group">
                        <g id="Vector">
                            <use xlink:href="#path1_fill" transform="translate(-1297.98 -257.367)" fill="#F2994A"/>
                        </g>
                    </g>
                </g>
                <g id="Group">
                    <g id="Group">
                        <g id="Vector">
                            <use xlink:href="#path2_fill" transform="translate(-1271.33 -253.735)" fill="#FFFFFF"/>
                        </g>
                    </g>
                    <g id="Group">
                        <g id="Vector">
                            <use xlink:href="#path3_fill" transform="translate(-1271.62 -254.011)" fill="#F2994A"/>
                        </g>
                    </g>
                </g>
                <g id="Group">
                    <g id="Group">
                        <g id="Vector">
                            <use xlink:href="#path4_fill" transform="translate(-1276.88 -253.635)" fill="#F2994A"/>
                        </g>
                    </g>
                    <g id="Group">
                        <g id="Vector">
                            <use xlink:href="#path5_fill" transform="translate(-1278.88 -275.23)" fill="#F2994A"/>
                        </g>
                    </g>
                    <g id="Group">
                        <g id="Vector">
                            <use xlink:href="#path6_fill" transform="translate(-1266 -274.553)" fill="#F2994A"/>
                        </g>
                    </g>
                    <g id="Group">
                        <g id="Vector">
                            <use xlink:href="#path7_fill" transform="translate(-1300.15 -259.766)" fill="#F2994A"/>
                        </g>
                    </g>
                    <g id="Group">
                        <g id="Vector">
                            <use xlink:href="#path8_fill" transform="translate(-1303 -275.261)" fill="#F2994A"/>
                        </g>
                    </g>
                    <g id="Group">
                        <g id="Vector">
                            <use xlink:href="#path9_fill" transform="translate(-1268.09 -240.702)" fill="#F2994A"/>
                        </g>
                    </g>
                    <g id="Group">
                        <g id="Vector">
                            <use xlink:href="#path10_fill" transform="translate(-1265.03 -241.068)" fill="#F2994A"/>
                        </g>
                    </g>
                    <g id="Group">
                        <g id="Vector">
                            <use xlink:href="#path11_fill" transform="translate(-1264.42 -241.708)" fill="#F2994A"/>
                        </g>
                    </g>
                    <g id="Group">
                        <g id="Vector">
                            <use xlink:href="#path12_fill" transform="translate(-1266.03 -240.885)" fill="#F2994A"/>
                        </g>
                    </g>
                    <g id="Group">
                        <g id="Vector">
                            <use xlink:href="#path13_fill" transform="translate(-1273.97 -256.41)" fill="#F2994A"/>
                        </g>
                    </g>
                    <g id="Group">
                        <g id="Vector">
                            <use xlink:href="#path14_fill" transform="translate(-1279.3 -276)" fill="#F2994A"/>
                        </g>
                    </g>
                </g>
            </g>
        </g>
    </g>
    <defs>
        <path id="path0_fill" d="M 1.42145 6.7193C 0.239631 5.71272 -0.245218 4.43162 0.118418 2.90651C 0.482055 1.41189 1.48205 0.435819 2.99721 0.100293C 4.48205 -0.235232 5.72448 0.283307 6.78509 1.4729C 4.66387 0.557828 3.08812 0.771343 1.9063 2.02194C 0.845691 3.18103 0.451752 4.98066 1.42145 6.7193Z"/>
        <path id="path1_fill" d="M 2.7998 8.33789L 1.52708 7.23981C 0.224045 6.11122 -0.260804 4.70812 0.133136 3.122C 0.527075 1.50537 1.61798 0.468293 3.22405 0.102265C 4.7695 -0.23326 6.10283 0.254777 7.28465 1.59688L 8.19374 2.63396L 6.92102 2.08492C 4.92102 1.23085 3.49677 1.38336 2.40586 2.57295C 1.52708 3.48802 0.981621 5.13515 1.95132 6.90428L 2.7998 8.33789ZM 4.13314 0.590302C 3.89071 0.590302 3.61798 0.620805 3.34526 0.68181C 1.92101 0.986833 1.04223 1.8409 0.708893 3.244C 0.527075 4.03707 0.557378 4.76912 0.890711 5.44017C 0.739196 4.22008 1.10283 3.03049 1.98162 2.08492C 2.95132 1.04784 4.16344 0.68181 5.64829 0.986833C 5.19374 0.742814 4.67859 0.590302 4.13314 0.590302Z"/>
        <path id="path2_fill" d="M 1.42145 6.7193C 0.23963 5.71272 -0.245217 4.43162 0.118419 2.90651C 0.482055 1.41189 1.48206 0.435819 2.99721 0.100293C 4.48206 -0.235232 5.72448 0.283307 6.78509 1.4729C 4.66387 0.557828 3.08812 0.771343 1.9063 2.02194C 0.845692 3.18103 0.451751 4.98066 1.42145 6.7193Z"/>
        <path id="path3_fill" d="M 2.7998 8.33789L 1.52707 7.23981C 0.224044 6.11122 -0.260804 4.70812 0.133136 3.122C 0.527075 1.50537 1.61798 0.468293 3.22404 0.102265C 4.7695 -0.23326 6.10283 0.254777 7.28465 1.59688L 8.19374 2.63396L 6.92102 2.08492C 4.92102 1.23085 3.49677 1.38336 2.40586 2.57295C 1.52708 3.48802 0.981621 5.13515 1.95132 6.90428L 2.7998 8.33789ZM 4.13313 0.590302C 3.89071 0.590302 3.61798 0.620805 3.34526 0.68181C 1.92101 0.986833 1.04223 1.8409 0.708894 3.244C 0.527075 4.03707 0.557378 4.76912 0.890711 5.44017C 0.739196 4.22008 1.10283 3.03049 1.98162 2.08492C 2.95132 1.04784 4.16344 0.68181 5.64829 0.986833C 5.19374 0.742814 4.67859 0.590302 4.13313 0.590302Z"/>
        <path id="path4_fill" d="M 8.78806 13.604C 3.75776 13.1465 -0.0301234 8.96768 0.000179612 3.9043C 0.000179612 2.56219 0.272908 1.2506 0.818363 4.65428e-07L 1.39412 0.213516L 1.30321 0.549041C 1.12139 1.18959 0.878968 1.89114 0.848665 2.19617C 0.363817 4.97188 1.00018 7.47307 2.72745 9.63873C 4.2123 11.4689 6.182 12.5975 8.60624 12.9635C 8.66685 12.9635 8.75776 12.994 8.81836 12.994L 8.90927 12.994L 8.78806 13.604Z"/>
        <path id="path5_fill" d="M 4.81818 4.39233C 4.57576 3.72128 4.21212 3.08073 3.69697 2.47069C 2.78788 1.40311 1.60606 0.79306 0.212122 0.640549C 0.121213 0.640549 0.0606056 0.610046 -4.62388e-07 0.579544L 0.212122 -2.90893e-08C 0.242425 -2.90893e-08 0.272727 0.0305023 0.30303 0.0305023C 1.84848 0.213516 3.15152 0.915069 4.15152 2.07416C 4.72727 2.74521 5.15152 3.44676 5.39394 4.20932L 4.81818 4.39233Z"/>
        <path id="path6_fill" d="M 7.21212 4.02035L 6.75757 3.56281C 5.87879 2.67825 4.72727 2.15971 3.39394 2.0682C 2.39394 1.97669 1.45454 2.12921 0.636363 2.49523L -4.62388e-07 2.76975L 0.212122 2.12921C 0.696971 0.695597 2.30303 -0.158468 4.0303 0.0245463C 5.96969 0.268565 7.39394 1.73268 7.27273 3.3798L 7.21212 4.02035ZM 2.84848 1.42765C 3.0303 1.42765 3.24242 1.42765 3.42424 1.45816C 4.63636 1.54966 5.69697 1.94619 6.60606 2.61724C 6.33333 1.58016 5.30303 0.756602 3.9697 0.60409C 2.81818 0.451579 1.72727 0.878611 1.15152 1.64117C 1.66667 1.48866 2.24242 1.42765 2.84848 1.42765Z"/>
        <path id="path7_fill" d="M 6.78788 13.665C 3.06061 13.665 -1.15597e-07 10.6148 -1.15597e-07 6.83252C -1.15597e-07 5.00238 0.69697 3.26375 1.9697 1.98265C 3.24242 0.701553 4.93939 -2.32714e-07 6.75758 -2.32714e-07C 6.75758 -2.32714e-07 6.75758 -2.32714e-07 6.78788 -2.32714e-07C 8.63636 -2.32714e-07 10.3333 0.732055 11.6061 2.04365C 12.8485 3.32475 13.5758 5.09389 13.5455 6.83252C 13.5758 8.57115 12.8485 10.3403 11.6061 11.6214C 10.3636 12.933 8.63636 13.665 6.78788 13.665ZM 6.78788 0.640549C 5.12121 0.640549 3.57576 1.2811 2.42424 2.44018C 1.27273 3.59927 0.606061 5.18539 0.606061 6.86302C 0.606061 10.3403 3.33333 13.0855 6.78788 13.0855C 8.45455 13.0855 10.0303 12.4144 11.1818 11.2554C 12.3333 10.0963 12.9697 8.51015 12.9394 6.89352C 12.9697 5.2769 12.3333 3.69078 11.1818 2.53169C 10.0606 1.2811 8.48485 0.640549 6.78788 0.640549C 6.78788 0.640549 6.81818 0.640549 6.78788 0.640549Z"/>
        <path id="path8_fill" d="M 40.4545 34.1016L 40.1818 33.5526C 43.0909 31.9664 44.9091 28.9162 44.9091 25.5609C 44.9091 23.1208 44 20.8026 42.303 19.0945C 40.6061 17.3863 38.2424 16.4102 35.8485 16.4102C 32.2424 16.4102 29 18.5454 27.5455 21.8702L 26.9697 21.6566C 27 21.5041 27.0606 21.3516 27.0909 21.2296C 26.9091 21.1991 26.7879 21.1991 26.6667 21.1991C 26.4848 21.1991 26.2727 21.1686 25.9091 21.1381C 25.6061 21.1076 25.303 21.0771 25.0303 21.0466C 24.2121 20.9551 23.3939 20.8636 22.5758 20.7416C 22.3939 20.7111 22.3636 20.7416 22.303 20.8636C 21.7273 21.8092 20.8182 23.0903 19.9697 24.3409C 19.2121 25.4389 18.4848 26.476 18 27.2691C 15.8788 30.6548 12.0303 32.3935 8.15151 31.6614C 4.27273 30.9599 1.66667 28.6722 0.424242 24.8594C 0.272727 24.4019 0.181818 23.8833 0.121212 23.4258C 0.0909091 23.2123 0.0606061 22.9987 0 22.7852L 3.36431e-17 22.7242L 3.36431e-17 21.2906C 3.36431e-17 21.2601 0.030303 21.2296 0.030303 21.1991C 0.030303 21.1686 0.0606061 21.1076 0.0606061 21.1076C 0.151515 20.1315 0.363636 19.2165 0.727273 18.3319C 1.36364 16.8068 2.09091 15.8002 3.09091 15.0376C 3.75758 14.5191 4.45455 13.9396 5.09091 13.421C 5.36364 13.177 5.66667 12.9635 5.93939 12.7195L 8.60606 10.5538C 11.1818 8.44914 13.7273 6.37498 16.303 4.27032C 16.7576 3.9043 17.2121 3.50777 17.6667 3.14174C 18.2727 2.6232 18.9091 2.07416 19.5455 1.58612C 20.1515 1.09808 20.697 0.762558 21.2121 0.518539C 21.6061 0.335525 22.0606 0.244019 22.4848 0.122009C 22.6667 0.091507 22.8485 0.0305023 23.0303 -1.35458e-16L 23.1212 -1.35458e-16L 24.2727 -1.35458e-16C 24.303 -1.35458e-16 24.3333 0.0305023 24.3333 0.0305023L 24.1818 0.488037L 24.1818 0.579544L 23.1515 0.579544C 22.9697 0.640549 22.8182 0.671051 22.6364 0.701553C 22.2121 0.823563 21.8182 0.91507 21.4848 1.06758C 21 1.2811 20.4848 1.61662 19.9394 2.04366C 19.303 2.56219 18.6667 3.08073 18.0606 3.59927C 17.6061 3.9958 17.1515 4.36183 16.697 4.75836C 14.1515 6.86302 11.5758 8.93718 9 11.0418L 6.54545 13.055C 7.54545 12.689 8.63636 12.4754 9.78788 12.4754C 12.303 12.4754 14.7879 13.5125 16.5758 15.3122C 18.3636 17.1118 19.3333 19.5215 19.3333 22.1142C 19.3333 23.0293 19.2121 23.8833 18.9697 24.7374C 19.1212 24.4934 19.303 24.2798 19.4545 24.0358C 20.303 22.8157 21.2121 21.5346 21.7576 20.5891C 21.9697 20.223 22.2424 20.101 22.6364 20.162C 23.4545 20.284 24.2727 20.3755 25.0606 20.4671C 25.3636 20.4976 25.6667 20.5281 25.9394 20.5586C 26.2727 20.5891 26.4545 20.6196 26.6667 20.6196C 26.8485 20.6196 27.0606 20.6501 27.3939 20.6806C 29.1212 17.6913 32.303 15.8307 35.7576 15.8307C 38.3333 15.8307 40.8182 16.8678 42.6364 18.6979C 43.7576 19.8265 44.5758 21.2296 45.0303 22.7547C 45.0606 21.1991 45.0909 19.613 45.1515 18.0574L 45.2121 15.0986C 45.2424 13.177 45.303 11.2554 45.3333 9.30321C 45.3333 9.1812 45.3636 9.08969 45.3636 8.96768C 45.3636 8.93718 45.3636 8.90668 45.3939 8.87617L 45.3939 7.71709C 45.3333 7.53407 45.303 7.38156 45.2727 7.19855C 45.1818 6.80202 45.0909 6.43599 44.9091 6.06996C 44.5758 5.36841 44.1818 4.75836 43.697 4.27032L 43.8182 4.14832L 43.6061 4.11781L 43.6061 4.08731L 43.6667 3.35526L 44.1212 3.81279C 44.6667 4.36183 45.1212 5.00238 45.4545 5.79544C 45.6364 6.19197 45.7273 6.619 45.8485 7.01553C 45.8788 7.19855 45.9394 7.38156 46 7.56458L 46 7.65608L 46 8.90668C 46 8.96768 46 8.99818 45.9697 9.05919C 45.9697 9.1507 45.9394 9.2117 45.9394 9.30321C 45.8788 11.2249 45.8485 13.1465 45.8182 15.0986L 45.7576 18.0574C 45.697 20.5891 45.6364 23.1208 45.5758 25.6219C 45.5758 26.2015 45.5151 26.659 45.4242 27.0861C 44.8788 30.3193 43.1818 32.668 40.4545 34.1016ZM 9.75758 13.0855C 4.84848 13.0855 0.818182 17.1118 0.818182 22.0532C 0.818182 24.4019 1.75758 26.72 3.39394 28.3977C 5.06061 30.0753 7.30303 31.0209 9.72727 31.0209L 9.75758 31.0209C 12.1515 31.0209 14.3939 30.1058 16.0606 28.4282C 17.7273 26.7505 18.6667 24.4934 18.6667 22.0837C 18.6667 19.674 17.7576 17.4168 16.0909 15.7087C 14.4545 14.0311 12.1515 13.0855 9.75758 13.0855ZM 32.6667 10.2793L 32.1212 10.0048C 32.1212 9.97426 32.1212 9.97426 32.1515 9.94376C 32.2424 9.69974 32.303 9.1812 32.0606 8.75417C 31.8182 8.29663 31.3636 8.02211 30.697 7.9306C 29.5455 7.77809 29.0909 8.35764 28.6364 8.96768C 28.5152 9.12019 28.3939 9.27271 28.2727 9.39471C 28.1515 9.51672 27.9697 9.54723 27.8182 9.42522L 27.6061 9.2422L 27.7576 8.99818C 28.2424 8.32713 28.5455 7.47307 28.7879 6.71051C 29.0909 5.76494 29.1212 5.09389 28.9091 4.42284L 29.4848 4.23982C 29.7576 5.06339 29.7273 5.85645 29.3636 6.92403C 29.2727 7.16805 29.2121 7.41206 29.1212 7.65608C 29.5151 7.41206 30.0606 7.25955 30.7879 7.38156C 31.8788 7.53407 32.3636 8.08311 32.6061 8.54065C 32.6667 8.63216 32.697 8.72366 32.7273 8.81517C 33.303 7.68658 33.9394 6.46649 34.4848 5.45992C 35.2121 4.11781 36.1818 3.20274 37.3939 2.6537L 37.6364 3.20274C 36.5455 3.66028 35.6667 4.51434 35.0303 5.73444C 34.303 7.10704 33.3636 8.84567 32.7273 10.2488C 32.697 10.2183 32.697 10.2488 32.6667 10.2793Z"/>
        <path id="path9_fill" d="M 0.90909 0.701553L 0.878787 0.701553L 0.272727 0.701553L -9.24775e-07 0.671051L 0.0606065 0.0610046C 0.363637 0.091507 0.636363 0.0915065 0.878787 0.0915065L 0.939395 0.0915065C 1.30303 0.0915065 1.69697 0.0610056 2.09091 9.30857e-07L 2.18182 0.610047C 2.0303 0.64055 1.90909 0.67105 1.75758 0.701553L 1.69697 0.701553L 0.939395 0.701553L 0.90909 0.701553Z"/>
        <path id="path10_fill" d="M 0.121211 0.793059L 9.24775e-07 0.183013C 0.212122 0.122008 0.424243 0.0610042 0.636364 -4.65428e-07L 0.818182 0.579544L 0.727272 0.610046C 0.484848 0.701553 0.272726 0.762557 0.121211 0.793059Z"/>
        <path id="path11_fill" d="M 0.181819 1.25059L 9.24775e-07 0.67105C 0.545455 0.488036 1.09091 0.244019 1.60606 4.33464e-15L 1.87879 0.549043C 1.33333 0.823563 0.787879 1.06758 0.181819 1.25059Z"/>
        <path id="path12_fill" d="M 0.09091 0.793061L 0 0.183015L 0.121213 0.152511C 0.39394 0.091506 0.696969 0.0610037 0.969696 -9.30857e-07L 1.09091 0.610045C 0.757575 0.701552 0.424243 0.762559 0.09091 0.793061Z"/>
        <path id="path13_fill" d="M 6.78788 13.6345C 3.06061 13.6345 9.24775e-07 10.5843 9.24775e-07 6.83252C 9.24775e-07 5.00238 0.696971 3.26375 1.9697 1.98265C 3.24243 0.701554 4.93939 9.30857e-07 6.75758 9.30857e-07C 6.75758 9.30857e-07 6.75758 9.30857e-07 6.78788 9.30857e-07C 8.63636 9.30857e-07 10.3333 0.732055 11.6061 2.04366C 12.8485 3.32475 13.5758 5.09389 13.5455 6.83252C 13.5758 8.57115 12.8485 10.3403 11.6061 11.6214C 10.3636 12.9025 8.63636 13.6345 6.78788 13.6345ZM 6.78788 0.610047C 5.12121 0.610047 3.57576 1.25059 2.42424 2.40968C 1.27273 3.56877 0.606062 5.15489 0.606062 6.83252C 0.606062 10.3098 3.33333 13.055 6.78788 13.055C 8.45455 13.055 10.0303 12.3839 11.1818 11.2249C 12.3333 10.0658 12.9697 8.47964 12.9394 6.86302C 12.9697 5.2464 12.3333 3.66028 11.1818 2.50119C 10.0606 1.25059 8.48485 0.610047 6.78788 0.610047C 6.78788 0.610047 6.81818 0.610047 6.78788 0.610047Z"/>
        <path id="path14_fill" d="M 5.75757 5.10115L 5.24242 4.79613C 5.90909 3.63704 5.36364 2.05092 4 1.16635C 2.75758 0.373294 1.27273 0.403797 0.424242 1.28836L -9.24775e-07 0.861331C 1.06061 -0.20625 2.87879 -0.297757 4.33333 0.678317C 5.93939 1.7154 6.57576 3.66754 5.75757 5.10115Z"/>
    </defs>
</svg>