<svg width="484" height="321" viewBox="0 0 484 321" version="1.1" xmlns="http://www.w3.org/2000/svg" xmlns:xlink="http://www.w3.org/1999/xlink">
    <title>Page 1</title>
    <desc>Created using Figma</desc>
    <g id="Canvas" transform="translate(1388 -221)">
        <g id="Group">
            <g id="Group">
                <g id="Vector">
                    <use xlink:href="#path0_fill" transform="matrix(0.881921 -0.471398 0.471398 0.881921 -1289.28 503.29)" fill="#F2994A"/>
                </g>
            </g>
            <g id="Group">
                <g id="Vector">
                    <use xlink:href="#path1_fill" transform="matrix(0.881921 -0.471398 0.471398 0.881921 -1285.3 517.284)" fill="#F2994A"/>
                </g>
            </g>
            <g id="Group">
                <g id="Group">
                    <g id="Vector">
                        <use xlink:href="#path2_fill" transform="matrix(0.881921 -0.471398 0.471398 0.881921 -1282.77 503.124)" fill="#FFFFFF"/>
                    </g>
                    <g id="Vector">
                        <use xlink:href="#path3_fill" transform="matrix(0.881921 -0.471398 0.471398 0.881921 -1283 503.057)" fill="#F2994A"/>
                    </g>
                </g>
            </g>
            <g id="Group">
                <g id="Vector">
                    <use xlink:href="#path4_fill" transform="matrix(0.881921 -0.471398 0.471398 0.881921 -1281.2 518.336)" fill="#F2994A"/>
                </g>
            </g>
            <g id="Group">
                <g id="Vector">
                    <use xlink:href="#path5_fill" transform="matrix(0.881921 -0.471398 0.471398 0.881921 -1271.95 514.674)" fill="#DDDDDD"/>
                </g>
            </g>
            <g id="Group">
                <g id="Vector">
                    <use xlink:href="#path5_fill" transform="matrix(0.881921 -0.471398 0.471398 0.881921 -1273.68 511.45)" fill="#DDDDDD"/>
                </g>
            </g>
            <g id="Group">
                <g id="Vector">
                    <use xlink:href="#path5_fill" transform="matrix(0.881921 -0.471398 0.471398 0.881921 -1275.4 508.227)" fill="#DDDDDD"/>
                </g>
            </g>
        </g>
        <g id="Group">
            <g id="Group">
                <g id="Vector">
                    <use xlink:href="#path6_fill" transform="matrix(0.975137 0.221603 -0.221603 0.975137 -939.305 221.648)" fill="#F2994A"/>
                </g>
            </g>
            <g id="Group">
                <g id="Vector">
                    <use xlink:href="#path7_fill" transform="matrix(0.975137 0.221603 -0.221603 0.975137 -945.152 234.174)" fill="#F2994A"/>
                </g>
            </g>
            <g id="Group">
                <g id="Group">
                    <g id="Vector">
                        <use xlink:href="#path8_fill" transform="matrix(0.975137 0.221603 -0.221603 0.975137 -934.528 225.583)" fill="#FFFFFF"/>
                    </g>
                    <g id="Vector">
                        <use xlink:href="#path9_fill" transform="matrix(0.975137 0.221603 -0.221603 0.975137 -934.649 225.393)" fill="#F2994A"/>
                    </g>
                </g>
            </g>
            <g id="Group">
                <g id="Vector">
                    <use xlink:href="#path10_fill" transform="matrix(0.975137 0.221603 -0.221603 0.975137 -942.869 237.477)" fill="#F2994A"/>
                </g>
            </g>
            <g id="Group">
                <g id="Vector">
                    <use xlink:href="#path11_fill" transform="matrix(0.975137 0.221603 -0.221603 0.975137 -933.952 240.604)" fill="#DDDDDD"/>
                </g>
            </g>
            <g id="Group">
                <g id="Vector">
                    <use xlink:href="#path11_fill" transform="matrix(0.975137 0.221603 -0.221603 0.975137 -933.182 237.218)" fill="#DDDDDD"/>
                </g>
            </g>
            <g id="Group">
                <g id="Vector">
                    <use xlink:href="#path11_fill" transform="matrix(0.975137 0.221603 -0.221603 0.975137 -932.413 233.832)" fill="#DDDDDD"/>
                </g>
            </g>
        </g>
        <g id="Group">
            <g id="Group">
                <g id="Vector">
                    <use xlink:href="#path12_fill" transform="matrix(0.737726 0.6751 -0.6751 0.737726 -1353.57 306)" fill="#F2994A"/>
                </g>
            </g>
            <g id="Group">
                <g id="Vector">
                    <use xlink:href="#path13_fill" transform="matrix(0.737726 0.6751 -0.6751 0.737726 -1353.63 309.724)" fill="#F2994A"/>
                </g>
            </g>
        </g>
        <g id="Group">
            <g id="Group">
                <g id="Vector">
                    <use xlink:href="#path14_fill" transform="matrix(0.911684 0.410892 -0.410892 0.911684 -1335.48 274)" fill="#F2994A"/>
                </g>
            </g>
            <g id="Group">
                <g id="Vector">
                    <use xlink:href="#path15_fill" transform="matrix(0.911684 0.410892 -0.410892 0.911684 -1334.73 276.459)" fill="#F2994A"/>
                </g>
            </g>
        </g>
    </g>
    <defs>
        <path id="path0_fill" d="M 37.4338 14.8196L 18.5477 0.830696L 0.406154 14.8196L 1.29113e-07 14.288L 18.5477 0L 37.84 14.288L 37.4338 14.8196Z"/>
        <path id="path1_fill" d="M 39.6 27.7785L 4.4 27.7785C 1.96308 27.7785 0 25.8513 0 23.4589L 0 4.31962C 0 1.92721 1.96308 -2.53508e-07 4.4 -2.53508e-07L 4.4 0.664557C 2.33538 0.664557 0.676923 2.29272 0.676923 4.31962L 0.676923 23.4589C 0.676923 25.4858 2.33538 27.1139 4.4 27.1139L 39.6 27.1139C 41.6646 27.1139 43.3231 25.4858 43.3231 23.4589L 43.3231 4.31962C 43.3231 2.29272 41.6646 0.664557 39.6 0.664557L 39.6 -2.53508e-07C 42.0369 -2.53508e-07 44 1.92721 44 4.31962L 44 23.4589C 44 25.818 42.0369 27.7785 39.6 27.7785Z"/>
        <path id="path2_fill" d="M 26.2308 18.2753L 13.7077 25.9177L 0.169231 18.2753L -2.58226e-07 6.33771e-08L 26.1969 6.33771e-08L 26.2308 18.2753Z"/>
        <path id="path3_fill" d="M 13.8769 26.2832L 0.169231 18.5411L -2.58226e-07 6.33771e-08L 26.5354 6.33771e-08L 26.5692 18.5411L 13.8769 26.2832ZM 0.507692 18.3418L 13.8769 25.8845L 26.2308 18.3418L 26.1969 0.332279L 0.338461 0.332279L 0.507692 18.3418Z"/>
        <path id="path4_fill" d="M 19.2585 12.0617L -6.45564e-08 0.564873L 0.338461 5.07017e-07L 19.2585 11.2975L 37.4338 5.07017e-07L 37.8062 0.564873L 19.2585 12.0617Z"/>
        <path id="path5_fill" d="M 18.3108 0L 0 0L 0 2.92405L 18.3108 2.92405L 18.3108 0Z"/>
        <path id="path6_fill" d="M 35.5619 14.0785L 17.6202 0.789155L 0.385843 14.0785L 1.22656e-07 13.5735L 17.6202 0L 35.9477 13.5735L 35.5619 14.0785Z"/>
        <path id="path7_fill" d="M 37.6197 26.3893L 4.17997 26.3893C 1.86491 26.3893 0 24.5585 0 22.2857L 0 4.10361C 0 1.83084 1.86491 -2.40831e-07 4.17997 -2.40831e-07L 4.17997 0.631324C 2.2186 0.631324 0.643072 2.17807 0.643072 4.10361L 0.643072 22.2857C 0.643072 24.2113 2.2186 25.758 4.17997 25.758L 37.6197 25.758C 39.5811 25.758 41.1566 24.2113 41.1566 22.2857L 41.1566 4.10361C 41.1566 2.17807 39.5811 0.631324 37.6197 0.631324L 37.6197 -2.40831e-07C 39.9348 -2.40831e-07 41.7997 1.83084 41.7997 4.10361L 41.7997 22.2857C 41.7997 24.5269 39.9348 26.3893 37.6197 26.3893Z"/>
        <path id="path8_fill" d="M 24.919 17.3614L 13.0222 24.6216L 0.160768 17.3614L -2.45312e-07 6.02078e-08L 24.8869 6.02078e-08L 24.919 17.3614Z"/>
        <path id="path9_fill" d="M 13.183 24.9689L 0.160768 17.6139L -2.45312e-07 6.02078e-08L 25.2084 6.02078e-08L 25.2406 17.6139L 13.183 24.9689ZM 0.482304 17.4245L 13.183 24.5901L 24.919 17.4245L 24.8869 0.315662L 0.321536 0.315662L 0.482304 17.4245Z"/>
        <path id="path10_fill" d="M 18.2954 11.4585L -6.13281e-08 0.536625L 0.321536 4.81662e-07L 18.2954 10.7325L 35.5619 4.81662e-07L 35.9156 0.536625L 18.2954 11.4585Z"/>
        <path id="path11_fill" d="M 17.3951 0L 0 0L 0 2.77783L 17.3951 2.77783L 17.3951 0Z"/>
        <path id="path12_fill" d="M 18.2117 51C 16.1161 51 14.0715 50.0418 12.7937 48.2263L 1.24203 32.24C -0.904745 29.315 -0.189154 25.1798 2.77543 23.1121L 33.9547 1.22542C 36.9193 -0.892647 41.1106 -0.186625 43.2063 2.73832L 54.758 18.7751C 56.9047 21.7001 56.1892 25.8353 53.2246 27.903L 22.0453 49.7897C 20.9208 50.5966 19.5407 51 18.2117 51ZM 37.8394 0.973269C 36.7149 0.973269 35.5904 1.32628 34.5681 1.98187L 3.3888 23.8686C 0.884231 25.6841 0.270868 29.1637 2.05984 31.6348L 13.6115 47.6716C 15.4005 50.1427 18.9273 50.7478 21.4319 48.9828L 52.6112 27.0961C 55.1158 25.331 55.7291 21.8514 53.9402 19.3803L 42.3885 3.29306C 41.3151 1.78015 39.5772 0.973269 37.8394 0.973269Z"/>
        <path id="path13_fill" d="M 0.0511137 25.669L 9.74915e-08 24.6604L 25.659 22.8449L 35.115 -4.8094e-08L 36.0862 0.353011L 26.3746 23.803L 0.0511137 25.669Z"/>
        <path id="path14_fill" d="M 12.5131 35.336C 11.0732 35.336 9.66839 34.6721 8.7904 33.4142L 0.853382 22.3379C -0.621639 20.3113 -0.129966 17.4461 1.90697 16.0135L 23.3299 0.849047C 25.3668 -0.618482 28.2466 -0.129306 29.6865 1.89728L 37.6236 13.0086C 39.0986 15.0352 38.6069 17.9003 36.57 19.3329L 15.147 34.4974C 14.3744 35.0564 13.4262 35.336 12.5131 35.336ZM 25.999 0.674341C 25.2264 0.674341 24.4537 0.918929 23.7513 1.37316L 2.3284 16.5376C 0.607545 17.7955 0.18611 20.2064 1.4153 21.9186L 9.35232 33.0299C 10.5815 34.742 13.0048 35.1613 14.7256 33.9383L 36.1485 18.7739C 37.8694 17.5509 38.2908 15.14 37.0616 13.4279L 29.1246 2.28163C 28.3871 1.2334 27.1931 0.674341 25.999 0.674341Z"/>
        <path id="path15_fill" d="M 0.0351196 17.7851L 6.69853e-08 17.0862L 17.63 15.8283L 24.1271 -3.33225e-08L 24.7944 0.244588L 18.1217 16.4922L 0.0351196 17.7851Z"/>
    </defs>
</svg>
