<svg width="73" height="49" viewBox="0 0 73 49" version="1.1" xmlns="http://www.w3.org/2000/svg" xmlns:xlink="http://www.w3.org/1999/xlink">
    <title>&#208;&#187;&#208;&#190;&#208;&#179;&#208;&#190;_finish_28_11</title>
    <desc>Created using Figma</desc>
    <g id="Canvas" transform="translate(707 715)">
        <rect x="-707" y="-715" width="73" height="49" fill="#E5E5E5"/>
        <clipPath id="clip-0" clip-rule="evenodd">
            <path d="M -727 -728L 298 -728L 298 1318L -727 1318L -727 -728Z" fill="#FFFFFF"/>
        </clipPath>
        <g id="&#208;&#159;&#208;&#190;&#208;&#187;&#208;&#184;&#209;&#130;&#208;&#184;&#208;&#186;&#208;&#176;_&#208;&#186;&#208;&#190;&#208;&#189;&#209;&#132;&#208;&#184;&#208;&#180;&#208;&#181;&#208;&#189;&#209;&#134;&#208;&#184;&#208;&#176;&#208;&#187;&#209;&#140;&#208;&#189;&#208;&#190;&#209;&#129;&#209;&#130;&#208;&#184;" clip-path="url(#clip-0)">
            <path d="M -727 -728L 298 -728L 298 1318L -727 1318L -727 -728Z" fill="#FFFFFF"/>
            <g id="Rectangle 19">
                <use xlink:href="#path0_fill" transform="translate(-727 -728)" fill="#FFFFFF"/>
            </g>
            <g id="&#208;&#156;&#208;&#176;&#209;&#129;&#209;&#130;&#208;&#181;&#209;&#128;_&#208;&#188;&#208;&#181;&#208;&#189;&#209;&#142;">
                <g id="&#208;&#187;&#208;&#190;&#208;&#179;&#208;&#190;_finish_28_11">
                    <g id="Group">
                        <g id="Vector">
                            <use xlink:href="#path1_fill" transform="translate(-706.853 -676.511)" fill="#7EB92F"/>
                        </g>
                        <g id="Vector">
                            <use xlink:href="#path2_fill" transform="translate(-696.701 -676.301)" fill="#7EB92F"/>
                        </g>
                        <g id="Vector">
                            <use xlink:href="#path3_fill" transform="translate(-689.033 -676.301)" fill="#7EB92F"/>
                        </g>
                        <g id="Vector">
                            <use xlink:href="#path4_fill" transform="translate(-679.15 -676.301)" fill="#7EB92F"/>
                        </g>
                        <g id="Vector">
                            <use xlink:href="#path5_fill" transform="translate(-674.912 -676.301)" fill="#7EB92F"/>
                        </g>
                        <g id="Vector">
                            <use xlink:href="#path6_fill" transform="translate(-665.125 -668.408)" fill="#7EB92F"/>
                        </g>
                        <g id="Vector">
                            <use xlink:href="#path7_fill" transform="translate(-660.694 -676.301)" fill="#7EB92F"/>
                        </g>
                        <g id="Vector">
                            <use xlink:href="#path8_fill" transform="translate(-651.774 -676.301)" fill="#7EB92F"/>
                        </g>
                        <g id="Vector">
                            <use xlink:href="#path9_fill" transform="translate(-643.24 -676.492)" fill="#7EB92F"/>
                        </g>
                    </g>
                    <g id="Group">
                        <g id="Vector">
                            <use xlink:href="#path10_fill" transform="translate(-706.998 -705.33)" fill="#7EB92F"/>
                        </g>
                        <g id="Vector">
                            <use xlink:href="#path11_fill" transform="translate(-699.722 -705.33)" fill="#7EB92F"/>
                        </g>
                        <g id="Vector">
                            <use xlink:href="#path12_fill" transform="translate(-707 -696.195)" fill="#7EB92F"/>
                        </g>
                        <g id="Vector">
                            <use xlink:href="#path13_fill" transform="translate(-699.722 -696.195)" fill="#7EB92F"/>
                        </g>
                    </g>
                    <g id="Group">
                        <g id="Vector">
                            <use xlink:href="#path14_fill" transform="translate(-692.108 -714.618)" fill="#7EB92F"/>
                        </g>
                        <g id="Vector">
                            <use xlink:href="#path15_fill" transform="translate(-684.83 -714.618)" fill="#7EB92F"/>
                        </g>
                        <g id="Vector">
                            <use xlink:href="#path16_fill" transform="translate(-692.108 -705.483)" fill="#7EB92F"/>
                        </g>
                        <g id="Vector">
                            <use xlink:href="#path17_fill" transform="translate(-684.83 -705.483)" fill="#7EB92F"/>
                        </g>
                    </g>
                    <g id="Group">
                        <g id="Group">
                            <g id="Vector">
                                <use xlink:href="#path18_fill" transform="translate(-677.254 -714.618)" fill="#CE0C54"/>
                            </g>
                            <g id="Vector">
                                <use xlink:href="#path19_fill" transform="translate(-669.976 -714.618)" fill="#CE0C54"/>
                            </g>
                            <g id="Vector">
                                <use xlink:href="#path20_fill" transform="translate(-677.255 -705.483)" fill="#CE0C54"/>
                            </g>
                            <g id="Vector">
                                <use xlink:href="#path21_fill" transform="translate(-669.976 -705.483)" fill="#CE0C54"/>
                            </g>
                        </g>
                        <g id="Vector">
                            <use xlink:href="#path22_fill" transform="translate(-677.255 -696.195)" fill="#CE0C54"/>
                        </g>
                        <g id="Vector">
                            <use xlink:href="#path23_fill" transform="translate(-669.976 -696.195)" fill="#CE0C54"/>
                        </g>
                    </g>
                    <g id="Group">
                        <g id="Vector">
                            <use xlink:href="#path24_fill" transform="translate(-662.286 -705.33)" fill="#7EB92F"/>
                        </g>
                        <g id="Vector">
                            <use xlink:href="#path25_fill" transform="translate(-655.027 -705.33)" fill="#7EB92F"/>
                        </g>
                        <g id="Vector">
                            <use xlink:href="#path26_fill" transform="translate(-662.286 -696.195)" fill="#7EB92F"/>
                        </g>
                        <g id="Vector">
                            <use xlink:href="#path27_fill" transform="translate(-655.027 -696.195)" fill="#7EB92F"/>
                        </g>
                    </g>
                    <g id="Group">
                        <g id="Vector">
                            <use xlink:href="#path28_fill" transform="translate(-647.394 -714.618)" fill="#7EB92F"/>
                        </g>
                        <g id="Vector">
                            <use xlink:href="#path29_fill" transform="translate(-640.115 -714.618)" fill="#7EB92F"/>
                        </g>
                        <g id="Vector">
                            <use xlink:href="#path30_fill" transform="translate(-647.394 -705.483)" fill="#7EB92F"/>
                        </g>
                        <g id="Vector">
                            <use xlink:href="#path31_fill" transform="translate(-640.115 -705.483)" fill="#7EB92F"/>
                        </g>
                    </g>
                </g>
            </g>
        </g>
    </g>
    <defs>
        <path id="path0_fill" d="M 0 0L 1024 0L 1024 78L 0 78L 0 0Z"/>
        <path id="path1_fill" d="M 4.79701 10.5109C 4.10347 10.5109 3.46772 10.3963 2.88977 10.1669C 2.29255 9.9376 1.79165 9.61271 1.36782 9.15405C 0.94399 8.71451 0.597218 8.1603 0.366037 7.51053C 0.134856 6.86077 -7.34905e-08 6.11544 -7.34905e-08 5.27457C -7.34905e-08 4.45281 0.11559 3.70749 0.366037 3.05772C 0.616483 2.40796 0.963255 1.85374 1.38709 1.39509C 1.81092 0.936427 2.33108 0.592434 2.90903 0.363105C 3.50625 0.133776 4.12273 -1.16643e-06 4.79701 -1.16643e-06C 5.52908 -1.16643e-06 6.14557 0.133775 6.64646 0.401326C 7.14735 0.668877 7.57119 0.955538 7.87943 1.29953L 6.91617 2.46529C 6.66573 2.21685 6.37675 2.00663 6.04924 1.83463C 5.741 1.66264 5.33643 1.58619 4.85481 1.58619C 4.39244 1.58619 3.98788 1.66264 3.62184 1.83463C 3.2558 2.00663 2.9283 2.25507 2.67785 2.56084C 2.4274 2.86662 2.21549 3.26794 2.06137 3.70749C 1.90725 4.16615 1.84945 4.66303 1.84945 5.23635C 1.84945 6.383 2.11916 7.30031 2.63932 7.95008C 3.15948 8.59984 3.94935 8.92473 4.9704 8.92473C 5.25937 8.92473 5.52908 8.88651 5.7988 8.81006C 6.06851 8.73362 6.28042 8.61895 6.43454 8.48518L 6.43454 6.30655L 4.50803 6.30655L 4.50803 4.83502L 8.07208 4.83502L 8.07208 9.28783C 7.72531 9.63183 7.28221 9.91849 6.70426 10.1478C 6.1263 10.3963 5.49055 10.5109 4.79701 10.5109Z"/>
        <path id="path2_fill" d="M -2.93962e-07 10.1287L -2.93962e-07 0L 3.44845 0C 3.98788 0 4.4695 0.0573329 4.93187 0.152887C 5.39423 0.248441 5.77953 0.420436 6.1263 0.649765C 6.45381 0.879094 6.72352 1.18487 6.91617 1.56708C 7.10882 1.9493 7.20515 2.42707 7.20515 3.00039C 7.20515 3.76482 7.0125 4.39548 6.64646 4.87325C 6.28042 5.35101 5.77953 5.69501 5.16305 5.88611L 7.59045 10.1096L 5.56761 10.1096L 3.37139 6.15367L 1.81092 6.15367L 1.81092 10.1096L -2.93962e-07 10.1096L -2.93962e-07 10.1287ZM 1.81092 4.73947L 3.2558 4.73947C 3.94935 4.73947 4.48877 4.58658 4.85481 4.29992C 5.22084 4.01326 5.41349 3.57371 5.41349 3.00039C 5.41349 2.40796 5.22084 2.00663 4.85481 1.7773C 4.48877 1.54797 3.94935 1.43331 3.2558 1.43331L 1.81092 1.43331L 1.81092 4.73947Z"/>
        <path id="path3_fill" d="M 2.93962e-07 10.1287L 3.33286 0L 5.45202 0L 8.78489 10.1287L 6.87764 10.1287L 6.08777 7.39587L 2.65858 7.39587L 1.86872 10.1287L 2.93962e-07 10.1287ZM 3.40992 4.73947L 3.04389 5.98167L 5.64467 5.98167L 5.27864 4.73947C 5.10525 4.20437 4.95113 3.65016 4.79701 3.07683C 4.64289 2.50351 4.48877 1.9493 4.35391 1.39509L 4.29612 1.39509C 4.142 1.96841 4.00714 2.52262 3.85302 3.09594C 3.73743 3.65016 3.58331 4.20437 3.40992 4.73947Z"/>
        <path id="path4_fill" d="M -5.87924e-07 10.1287L -5.87924e-07 0L 1.81092 0L 1.81092 10.1287L -5.87924e-07 10.1287Z"/>
        <path id="path5_fill" d="M -5.87924e-07 10.1287L -5.87924e-07 0L 1.84945 0L 5.02819 5.69501L 6.06851 7.85453L 6.1263 7.85453C 6.08777 7.31942 6.02998 6.76521 5.97218 6.15367C 5.91439 5.54212 5.89512 4.9688 5.89512 4.39548L 5.89512 0L 7.62898 0L 7.62898 10.1287L 5.77953 10.1287L 2.60079 4.4337L 1.56047 2.27418L 1.50268 2.27418C 1.54121 2.80928 1.599 3.38261 1.6568 3.95593C 1.71459 4.54836 1.73386 5.12168 1.73386 5.69501L 1.73386 10.1287L -5.87924e-07 10.1287Z"/>
        <path id="path6_fill" d="M 1.15591 2.40796C 0.828399 2.40796 0.539422 2.29329 0.327506 2.06396C 0.0963249 1.83463 0 1.54797 0 1.20398C 0 0.859986 0.11559 0.573324 0.327506 0.343995C 0.558687 0.114666 0.828399 -2.33286e-06 1.15591 -2.33286e-06C 1.48341 -2.33286e-06 1.77239 0.114666 1.9843 0.343995C 2.19622 0.573324 2.31181 0.859986 2.31181 1.20398C 2.31181 1.54797 2.19622 1.83463 1.9843 2.06396C 1.75312 2.29329 1.48341 2.40796 1.15591 2.40796Z"/>
        <path id="path7_fill" d="M 0 10.1287L 0 0L 3.21727 0C 3.77596 0 4.29612 0.0573329 4.77774 0.152887C 5.25937 0.248441 5.6832 0.439549 6.02997 0.687989C 6.37675 0.936429 6.66573 1.26131 6.85838 1.66264C 7.05103 2.06396 7.14735 2.56084 7.14735 3.13416C 7.14735 3.68838 7.05103 4.18526 6.85838 4.58658C 6.66573 5.00702 6.39601 5.35101 6.02997 5.61856C 5.6832 5.88611 5.27864 6.09634 4.79701 6.23011C 4.31538 6.36389 3.81449 6.42122 3.2558 6.42122L 1.79165 6.42122L 1.79165 10.1287L 0 10.1287ZM 1.81092 4.9688L 3.14021 4.9688C 4.64289 4.9688 5.39423 4.35725 5.39423 3.13416C 5.39423 2.50351 5.20158 2.04485 4.81628 1.81552C 4.43097 1.56708 3.85302 1.45242 3.08242 1.45242L 1.81092 1.45242L 1.81092 4.9688Z"/>
        <path id="path8_fill" d="M -2.3517e-06 10.1287L -2.3517e-06 0L 3.44846 0C 3.98788 0 4.4695 0.0573329 4.93187 0.152887C 5.39423 0.248441 5.77953 0.420436 6.1263 0.649765C 6.45381 0.879094 6.72352 1.18487 6.91617 1.56708C 7.10883 1.9493 7.20515 2.42707 7.20515 3.00039C 7.20515 3.76482 7.0125 4.39548 6.64646 4.87325C 6.28042 5.35101 5.77953 5.69501 5.16305 5.88611L 7.59045 10.1096L 5.56762 10.1096L 3.37139 6.15367L 1.81092 6.15367L 1.81092 10.1096L -2.3517e-06 10.1096L -2.3517e-06 10.1287ZM 1.81092 4.73947L 3.25581 4.73947C 3.94935 4.73947 4.48877 4.58658 4.85481 4.29992C 5.22084 4.01326 5.41349 3.57371 5.41349 3.00039C 5.41349 2.40796 5.22084 2.00663 4.85481 1.7773C 4.48877 1.54797 3.94935 1.43331 3.25581 1.43331L 1.81092 1.43331L 1.81092 4.73947Z"/>
        <path id="path9_fill" d="M 4.50803 10.4918C 3.83376 10.4918 3.23654 10.3771 2.67785 10.1287C 2.11916 9.88027 1.6568 9.53627 1.25223 9.07761C 0.847666 8.61895 0.558686 8.06474 0.327504 7.41497C 0.115588 6.76521 1.17585e-06 6.01989 1.17585e-06 5.19813C 1.17585e-06 4.37636 0.115588 3.65016 0.327504 3.00039C 0.539421 2.35062 0.847666 1.81552 1.25223 1.37597C 1.6568 0.936427 2.11916 0.592433 2.67785 0.363103C 3.23654 0.133774 3.83376 0 4.50803 0C 5.18231 0 5.77953 0.114663 6.33822 0.363103C 6.89691 0.592433 7.35927 0.936427 7.76384 1.37597C 8.1684 1.81552 8.47665 2.36973 8.68856 3.00039C 8.90048 3.65016 9.01607 4.37636 9.01607 5.19813C 9.01607 6.01989 8.90048 6.76521 8.68856 7.41497C 8.47665 8.06474 8.1684 8.61895 7.76384 9.07761C 7.35927 9.53627 6.89691 9.88027 6.33822 10.1287C 5.7988 10.3771 5.18231 10.4918 4.50803 10.4918ZM 4.50803 8.94384C 4.9126 8.94384 5.27864 8.84828 5.60615 8.67629C 5.93365 8.50429 6.20336 8.25585 6.43455 7.93097C 6.66573 7.60608 6.83911 7.20476 6.97397 6.7461C 7.08956 6.28744 7.16662 5.77145 7.16662 5.19813C 7.16662 4.07059 6.93544 3.17239 6.45381 2.52262C 5.97218 1.87285 5.33643 1.54797 4.5273 1.54797C 3.71817 1.54797 3.08242 1.87285 2.60079 2.52262C 2.11916 3.17239 1.88798 4.05148 1.88798 5.19813C 1.88798 5.77145 1.94577 6.28744 2.08063 6.7461C 2.19622 7.20476 2.38888 7.60608 2.62006 7.93097C 2.85124 8.25585 3.12095 8.50429 3.44845 8.67629C 3.73743 8.84828 4.10347 8.94384 4.50803 8.94384Z"/>
        <path id="path10_fill" d="M 5.94363 6.5741C 6.32894 9.65094 5.94363 9.59361 5.9051 12.2309C 5.9051 9.4025 0.626466 9.7656 0.125574 6.5741C -0.336789 3.70749 0.626467 1.98752 0.626467 -2.91607e-07C 0.626467 1.98752 5.53907 3.3635 5.94363 6.5741Z"/>
        <path id="path11_fill" d="M 0.169853 6.5741C -0.215449 9.65094 0.169853 9.59361 0.208383 12.2309C 0.208383 9.4025 5.48702 9.7656 5.98791 6.5741C 6.43101 3.70749 5.48702 1.98752 5.48702 -2.91607e-07C 5.48702 1.98752 0.57442 3.3635 0.169853 6.5741Z"/>
        <path id="path12_fill" d="M 5.94555 6.5741C 6.33085 9.65094 5.94555 9.5936 5.90702 12.2309C 5.90702 9.40249 0.628381 9.7656 0.127488 6.5741C -0.334874 3.7266 0.609116 2.00663 0.609116 2.91607e-07C 0.628381 1.98752 5.54098 3.34438 5.94555 6.5741Z"/>
        <path id="path13_fill" d="M 0.169853 6.5741C -0.215449 9.65094 0.169853 9.5936 0.208383 12.2309C 0.208383 9.40249 5.48702 9.7656 5.98791 6.5741C 6.45028 3.7266 5.50629 2.00663 5.50629 2.91607e-07C 5.48702 1.98752 0.57442 3.34438 0.169853 6.5741Z"/>
        <path id="path14_fill" d="M 5.94555 6.5741C 6.33085 9.65094 5.94555 9.5936 5.90702 12.2309C 5.90702 9.4025 0.628381 9.7656 0.127488 6.5741C -0.334875 3.7266 0.609116 2.00663 0.609116 0C 0.628381 2.00663 5.54098 3.3635 5.94555 6.5741Z"/>
        <path id="path15_fill" d="M 0.169854 6.5741C -0.215448 9.65094 0.169853 9.5936 0.208383 12.2309C 0.208383 9.4025 5.48702 9.7656 5.98791 6.5741C 6.45028 3.7266 5.50629 2.00663 5.50629 0C 5.48702 2.00663 0.574421 3.3635 0.169854 6.5741Z"/>
        <path id="path16_fill" d="M 5.94555 6.5741C 6.33085 9.65094 5.94555 9.5936 5.90702 12.2309C 5.90702 9.4025 0.628381 9.7656 0.127488 6.5741C -0.334875 3.7266 0.609116 2.00663 0.609116 5.83214e-07C 0.628381 2.00663 5.54098 3.36349 5.94555 6.5741Z"/>
        <path id="path17_fill" d="M 0.169854 6.5741C -0.215448 9.65094 0.169853 9.5936 0.208383 12.2309C 0.208383 9.4025 5.48702 9.7656 5.98791 6.5741C 6.45028 3.7266 5.50629 2.00663 5.50629 5.83214e-07C 5.48702 2.00663 0.574421 3.36349 0.169854 6.5741Z"/>
        <path id="path18_fill" d="M 5.94555 6.5741C 6.33085 9.65094 5.94555 9.5936 5.90702 12.2309C 5.90702 9.4025 0.62838 9.7656 0.127488 6.5741C -0.334875 3.7266 0.609115 2.00663 0.609115 0C 0.62838 2.00663 5.54098 3.3635 5.94555 6.5741Z"/>
        <path id="path19_fill" d="M 0.169852 6.5741C -0.21545 9.65094 0.169851 9.5936 0.208382 12.2309C 0.208382 9.4025 5.48702 9.7656 5.98791 6.5741C 6.45028 3.7266 5.50629 2.00663 5.50629 0C 5.48702 2.00663 0.574419 3.3635 0.169852 6.5741Z"/>
        <path id="path20_fill" d="M 5.94555 6.5741C 6.33085 9.65094 5.94555 9.5936 5.90702 12.2309C 5.90702 9.4025 0.62838 9.7656 0.127488 6.5741C -0.334875 3.7266 0.609115 2.00663 0.609115 5.83214e-07C 0.62838 2.00663 5.54098 3.36349 5.94555 6.5741Z"/>
        <path id="path21_fill" d="M 0.169852 6.5741C -0.21545 9.65094 0.169851 9.5936 0.208382 12.2309C 0.208382 9.4025 5.48702 9.7656 5.98791 6.5741C 6.45028 3.7266 5.50629 2.00663 5.50629 5.83214e-07C 5.48702 2.00663 0.574419 3.36349 0.169852 6.5741Z"/>
        <path id="path22_fill" d="M 5.94555 6.5741C 6.33085 9.65094 5.94555 9.5936 5.90702 12.2309C 5.90702 9.40249 0.62838 9.7656 0.127488 6.5741C -0.334875 3.7266 0.609115 2.00663 0.609115 2.91607e-07C 0.62838 1.98752 5.54098 3.34438 5.94555 6.5741Z"/>
        <path id="path23_fill" d="M 0.169852 6.5741C -0.21545 9.65094 0.169851 9.5936 0.208382 12.2309C 0.208382 9.40249 5.48702 9.7656 5.98791 6.5741C 6.45028 3.7266 5.50629 2.00663 5.50629 2.91607e-07C 5.48702 1.98752 0.574419 3.34438 0.169852 6.5741Z"/>
        <path id="path24_fill" d="M 5.94555 6.5741C 6.33085 9.65094 5.94555 9.59361 5.90702 12.2309C 5.90702 9.4025 0.62838 9.7656 0.127487 6.5741C -0.334875 3.70749 0.609115 1.98752 0.609115 -2.91607e-07C 0.609115 1.98752 5.52172 3.3635 5.94555 6.5741Z"/>
        <path id="path25_fill" d="M 0.16985 6.5741C -0.215452 9.65094 0.169853 9.59361 0.208383 12.2309C 0.208383 9.4025 5.48702 9.7656 5.98791 6.5741C 6.45028 3.70749 5.50629 1.98752 5.50629 -2.91607e-07C 5.50629 1.98752 0.574417 3.3635 0.16985 6.5741Z"/>
        <path id="path26_fill" d="M 5.94555 6.5741C 6.33085 9.65094 5.94555 9.5936 5.90702 12.2309C 5.90702 9.40249 0.62838 9.7656 0.127487 6.5741C -0.334875 3.7266 0.609115 2.00663 0.609115 2.91607e-07C 0.609115 1.98752 5.52172 3.34438 5.94555 6.5741Z"/>
        <path id="path27_fill" d="M 0.16985 6.5741C -0.215452 9.65094 0.169853 9.5936 0.208383 12.2309C 0.208383 9.40249 5.48702 9.7656 5.98791 6.5741C 6.45028 3.7266 5.50629 2.00663 5.50629 2.91607e-07C 5.50629 1.98752 0.574417 3.34438 0.16985 6.5741Z"/>
        <path id="path28_fill" d="M 5.94555 6.5741C 6.33085 9.65094 5.94555 9.5936 5.90702 12.2309C 5.90702 9.4025 0.628383 9.7656 0.127491 6.5741C -0.334872 3.7266 0.609118 2.00663 0.609118 0C 0.628383 2.00663 5.54098 3.3635 5.94555 6.5741Z"/>
        <path id="path29_fill" d="M 0.169855 6.5741C -0.215447 9.65094 0.169851 9.5936 0.208382 12.2309C 0.208382 9.4025 5.48702 9.7656 5.98791 6.5741C 6.45028 3.7266 5.50629 2.00663 5.50629 0C 5.48702 2.00663 0.574422 3.3635 0.169855 6.5741Z"/>
        <path id="path30_fill" d="M 5.94555 6.5741C 6.33085 9.65094 5.94555 9.5936 5.90702 12.2309C 5.90702 9.4025 0.628383 9.7656 0.127491 6.5741C -0.334872 3.7266 0.609118 2.00663 0.609118 5.83214e-07C 0.628383 2.00663 5.54098 3.36349 5.94555 6.5741Z"/>
        <path id="path31_fill" d="M 0.169855 6.5741C -0.215447 9.65094 0.169851 9.5936 0.208382 12.2309C 0.208382 9.4025 5.48702 9.7656 5.98791 6.5741C 6.45028 3.7266 5.50629 2.00663 5.50629 5.83214e-07C 5.48702 2.00663 0.574422 3.36349 0.169855 6.5741Z"/>
    </defs>
</svg>