<svg width="53" height="34" viewBox="0 0 53 34" version="1.1" xmlns="http://www.w3.org/2000/svg" xmlns:xlink="http://www.w3.org/1999/xlink">
    <title>Group</title>
    <desc>Created using Figma</desc>
    <g id="Canvas" transform="translate(1308 88)">
        <rect x="-1308" y="-88" width="53" height="34" fill="#E5E5E5"/>
        <clipPath id="clip-0" clip-rule="evenodd">
            <path d="M -1862 -729L -837 -729L -837 1460L -1862 1460L -1862 -729Z" fill="#FFFFFF"/>
        </clipPath>
        <g id="&#208;&#160;&#208;&#176;&#208;&#183;&#208;&#178;&#208;&#190;&#208;&#180;&#209;&#143;&#209;&#137;&#208;&#176;&#209;&#143;_1" clip-path="url(#clip-0)">
            <path d="M -1862 -729L -837 -729L -837 1460L -1862 1460L -1862 -729Z" fill="#FFFFFF"/>
            <g id="Group">
                <g id="Group">
                    <g id="Group">
                        <g id="Vector">
                            <use xlink:href="#path0_fill" transform="translate(-1307.07 -87.5315)" fill="#FFFFFF"/>
                        </g>
                        <g id="Vector">
                            <use xlink:href="#path1_fill" transform="translate(-1308 -88)" fill="#F2994A"/>
                        </g>
                    </g>
                </g>
            </g>
            <g id="Group">
                <g id="Vector">
                    <use xlink:href="#path2_stroke" transform="matrix(0.885659 0.464336 -0.464336 0.885659 -1342.6 -70)" fill="#F2994A"/>
                </g>
            </g>
        </g>
    </g>
    <defs>
        <path id="path0_fill" d="M 42.7 30.8209C 41.9333 30.5197 41.2 30.252 40.4667 29.9508C 36.0333 28.2441 23.9333 24.0945 23.8667 24.1614C 21.5333 27.1732 17.2 32.8622 17.2 32.8622C 17.2 32.8622 13.8 23.6594 12.2333 19.1752C 12.2 19.1083 12.1667 19.0413 12.0667 19.0079C 8.06667 17.4016 4.1 15.7953 0.133333 14.189C 0.1 14.189 0.0666666 14.1555 -1.58946e-08 14.122C 0.0666666 14.0886 0.1 14.0886 0.133333 14.0886C 12.4 10.5079 51.6333 -7.97857e-09 51.6667 -7.97857e-09C 51.6667 -7.97857e-09 42.7333 30.7874 42.7 30.8209ZM 42.8667 6.4252C 42.8667 6.4252 20.4333 18.1043 16.5333 20.1457C 16.4667 20.1791 16.4333 20.2126 16.4667 20.313C 17.2667 22.622 18.0333 24.9646 18.8333 27.2736C 18.9 27.4744 18.9667 27.6752 19.0667 27.9094C 19.1 27.876 19.1333 27.8425 19.1333 27.8091C 20.2667 26.0354 21.4 24.2618 22.5333 22.4882C 22.5667 22.4547 22.6 22.3878 22.6667 22.3543C 23.0333 22.0531 42.5667 6.65945 42.8667 6.4252Z"/>
        <path id="path1_fill" d="M 18.0333 34L 17.8333 33.4311C 17.8 33.3307 14.4333 24.2283 12.8667 19.7776C 9.56667 18.439 6.26667 17.1004 2.96667 15.7618L 0.8 14.8917L 0 14.5571L 1 14.2559C 12.1 10.9764 45.6333 1.97441 52.2667 0.200787L 53 0L 52.9333 0.501969C 52.9333 0.568898 44.0333 31.189 43.9667 31.4232L 43.8667 31.7579L 41.3 30.7539C 37.2333 29.1811 26.5333 25.5 24.9333 25.0315C 22.6 28.0433 18.4333 33.498 18.4 33.565L 18.0333 34ZM 1.93333 14.6575L 3.2 15.1594C 6.5 16.498 9.8 17.8366 13.1 19.1752C 13.3 19.2421 13.4 19.376 13.4667 19.5433C 14.8 23.3248 17.4667 30.5532 18.2333 32.6614C 19.3333 31.189 22.6333 26.872 24.5333 24.4291L 24.6 24.3622C 24.8 24.2283 24.8 24.1949 31.6 26.5374C 35.9333 28.0433 39.6333 29.3819 41.5333 30.1181L 43.4333 30.8543C 44.3333 27.7421 51 4.85236 52.1333 0.937008C 45 2.84449 13.5667 11.2776 1.93333 14.6575ZM 19.8667 29.1142L 19 26.5709C 18.3667 24.6634 17.7333 22.7894 17.0667 20.8819C 17 20.6476 17.0667 20.4469 17.3 20.313C 19.6667 19.0748 28.3333 14.5906 31.9333 12.6831C 34.9667 11.0768 37.9 9.57087 40.0667 8.43307L 42.6667 7.09449C 43.1 6.86024 43.4 6.72638 43.5667 6.62598C 43.5667 6.62598 43.6 6.62598 43.6 6.59252C 43.8667 6.45866 43.9333 6.49213 44.0333 6.59252L 44.3333 6.86024L 44.0333 7.09449C 43.8667 7.22835 38.4667 11.4783 33.2 15.628C 28.4333 19.4095 23.9667 22.9567 23.7667 23.0906L 23.7333 23.124C 22.8 24.563 21.8667 26.0354 20.9333 27.4744L 20.2333 28.5787L 19.8667 29.1142ZM 17.7667 20.8484C 18.4 22.689 19 24.5295 19.6333 26.3701L 20.0667 27.6417L 20.4 27.1398C 21.3333 25.7008 22.2667 24.2283 23.2 22.7894C 23.2667 22.7224 23.3333 22.622 23.4 22.5886C 23.5667 22.4547 28.0667 18.9075 32.8 15.1929C 35.7333 12.8839 38.7333 10.5079 40.8333 8.86811C 34.5333 12.1142 20.8333 19.2421 17.7667 20.8484Z"/>
        <path id="path2_stroke" d="M 12.0824 20.482L 12.544 20.6742L 12.5445 20.6729L 12.0824 20.482ZM 23.9944 60.9875L 23.7215 61.4065L 23.7219 61.4067L 23.9944 60.9875ZM 66.6789 53.5382L 66.1827 53.4764L 66.1826 53.4772L 66.6789 53.5382ZM 44.0767 38.2517L 44.0049 38.7465L 44.0059 38.7466L 44.0767 38.2517ZM 7.04273 56.7197L 7.45765 56.9987L 7.45812 56.998L 7.04273 56.7197ZM 1.01039 92.5694L 1.50484 92.495L 1.50483 92.495L 1.01039 92.5694ZM 21.7036 128.264L 21.439 128.688L 21.4397 128.689L 21.7036 128.264ZM 41.9645 133.895C 40.5171 133.82 38.7386 133.666 36.7138 133.327L 36.5487 134.314C 38.6129 134.659 40.4482 134.818 41.9129 134.893L 41.9645 133.895ZM 26.6246 130.311C 25.0843 129.623 23.533 128.813 21.9676 127.839L 21.4397 128.689C 23.0371 129.681 24.6487 130.523 26.2166 131.224L 26.6246 130.311ZM 21.9682 127.84C 20.4308 126.881 19.0234 125.855 17.7091 124.759L 17.0688 125.527C 18.4083 126.644 19.8713 127.71 21.439 128.688L 21.9682 127.84ZM 10.6154 117.021C 8.46536 113.969 6.83605 110.82 5.57579 107.779L 4.65206 108.162C 5.92933 111.242 7.6105 114.488 9.79775 117.597L 10.6154 117.021ZM 2.44403 97.7001C 1.95862 95.4846 1.68313 93.6809 1.50484 92.495L 0.515951 92.6437C 0.694425 93.8308 0.975438 95.6672 1.46717 97.914L 2.44403 97.7001ZM 1.50483 92.495C 1.31668 91.2448 1.08064 89.693 0.884455 87.8977L -0.109621 88.0063C 0.0890683 89.8225 0.327924 91.3944 0.515963 92.6438L 1.50483 92.495ZM 0.558289 78.6688C 0.693838 75.792 1.07834 72.731 1.87956 69.5596L 0.909956 69.315C 0.0956172 72.5459 -0.302451 75.7059 -0.440597 78.6216L 0.558289 78.6688ZM 5.11629 60.959C 5.80136 59.6283 6.57315 58.3137 7.45765 56.9987L 6.62781 56.4407C 5.72666 57.7813 4.92533 59.146 4.22724 60.5012L 5.11629 60.959ZM 7.45812 56.998C 8.43334 55.542 9.52231 54.119 10.7306 52.7303L 9.97615 52.0739C 8.74761 53.4866 7.62048 54.9595 6.62735 56.4414L 7.45812 56.998ZM 18.6956 45.5148C 21.6087 43.45 24.7774 41.7324 28.1752 40.4956L 27.8328 39.5561C 24.3669 40.8205 21.0805 42.6009 18.1176 44.6988L 18.6956 45.5148ZM 38.6603 38.4396C 40.4256 38.3878 42.1957 38.4833 44.0049 38.7465L 44.1485 37.7569C 42.2947 37.4883 40.438 37.3879 38.6312 37.4401L 38.6603 38.4396ZM 44.0059 38.7466C 46.2978 39.074 48.6459 39.6708 50.9508 40.4756L 51.2803 39.5315C 48.9341 38.7132 46.4921 38.093 44.1475 37.7567L 44.0059 38.7466ZM 63.2524 47.5862C 65.342 49.6363 66.4062 51.6825 66.1827 53.4764L 67.175 53.6C 67.4579 51.3293 66.1076 48.9866 63.9527 46.8723L 63.2524 47.5862ZM 66.1826 53.4772C 66.0063 54.9109 64.9669 56.5131 63.1615 58.0891L 63.8191 58.8425C 65.7006 57.2001 66.9547 55.391 67.1751 53.5993L 66.1826 53.4772ZM 52.7605 63.4884C 49.1793 64.5972 45.1997 65.2719 41.0899 65.2679L 41.0894 66.2679C 45.2833 66.2684 49.4111 65.5699 53.056 64.4437L 52.7605 63.4884ZM 29.5156 63.2284C 27.6996 62.5373 25.9551 61.6666 24.2669 60.5683L 23.7219 61.4067C 25.4585 62.5346 27.2978 63.453 29.1596 64.1629L 29.5156 63.2284ZM 24.2672 60.5685C 22.6865 59.5401 21.2449 58.3739 19.9101 57.0657L 19.2103 57.7801C 20.5798 59.1207 22.0985 60.3489 23.7215 61.4065L 24.2672 60.5685ZM 13.4807 47.9428C 11.8818 44.559 10.8435 40.9292 10.3936 37.1886L 9.40078 37.3085C 9.86334 41.1273 10.9458 44.9111 12.5763 48.3697L 13.4807 47.9428ZM 10.8767 26.0199C 11.2713 24.1867 11.8205 22.4105 12.544 20.6742L 11.6208 20.2899C 10.8802 22.0702 10.3039 23.9334 9.89912 25.8092L 10.8767 26.0199ZM 12.5445 20.6729C 13.4175 18.5575 14.5108 16.5923 15.8175 14.7482L 15.0014 14.1703C 13.6645 16.0595 12.5169 18.1228 11.6203 20.2911L 12.5445 20.6729ZM 25.7428 5.61865C 29.5745 3.31431 33.8618 1.73102 38.4423 0.983231L 38.2807 -0.00362431C 33.6066 0.764122 29.1419 2.41271 25.2279 4.76143L 25.7428 5.61865ZM 51.9677 1.28133C 54.1494 1.73424 56.3119 2.38297 58.4745 3.25384L 58.8479 2.32614C 56.6425 1.43923 54.395 0.764885 52.1712 0.302248L 51.9677 1.28133Z"/>
    </defs>
</svg>