<svg width="127" height="44" viewBox="0 0 127 44" version="1.1" xmlns="http://www.w3.org/2000/svg" xmlns:xlink="http://www.w3.org/1999/xlink">
    <title>Group</title>
    <desc>Created using Figma</desc>
    <g id="Canvas" transform="translate(-5483 170)">
        <g id="Group">
            <g id="Group">
                <g id="Vector">
                    <use xlink:href="#path0_fill" transform="translate(5483 -149)" fill="#F2994A"/>
                </g>
            </g>
            <g id="Group">
                <g id="Vector">
                    <use xlink:href="#path1_fill" transform="translate(5576.87 -145.703)" fill="#F2994A"/>
                </g>
            </g>
            <g id="Group">
                <g id="Vector">
                    <use xlink:href="#path2_fill" transform="translate(5573.09 -170)" fill="#FFFFFF"/>
                    <mask id="mask0_outline_ins">
                        <use xlink:href="#path2_fill" fill="white" transform="translate(5573.09 -170)"/>
                    </mask>
                    <g mask="url(#mask0_outline_ins)">
                        <use xlink:href="#path3_stroke_2x" transform="translate(5573.09 -170)" fill="#F2994A"/>
                    </g>
                </g>
            </g>
        </g>
    </g>
    <defs>
        <path id="path0_fill" d="M 126.514 23L 63.6618 0.843333L 0.485556 22.8083L 0 22.1183L 63.6618 -2.9246e-07L 63.8777 0.0766667L 127 22.31L 126.514 23Z"/>
        <path id="path1_fill" d="M 7.5531 9.66L 6.47409 9.66L 6.47409 0.766667L 1.07901 0.766667L 1.07901 8.58667L 0 8.58667L 0 5.8492e-07L 7.5531 5.8492e-07L 7.5531 9.66Z"/>
        <path id="path2_fill" d="M 10.4162 19.2528C 5.83035 19.2528 1.73009 16.2629 0.381322 11.914C -0.751643 8.27179 0.705026 4.08595 3.88812 1.69404C 6.3159 -0.0998924 9.06739 -0.480423 11.4952 0.606808C 13.7611 1.58532 15.2717 3.65106 15.5415 6.09733C 15.7573 7.8369 15.1099 9.63083 13.8151 10.8811C 12.1426 12.5664 9.98455 13.1643 8.04232 12.4033C 6.36985 11.7509 5.23689 10.1744 5.12899 8.32615C 5.07504 7.34765 5.45269 6.31477 6.15405 5.55371C 7.28701 4.3034 8.74368 3.8685 10.0925 4.35776C 11.2794 4.79265 12.0886 5.82552 12.1426 7.07584L 11.0636 7.1302C 11.0096 6.31478 10.4701 5.60807 9.7148 5.33627C 8.79764 5.0101 7.77257 5.33627 6.90936 6.26041C 6.42381 6.80403 6.1001 7.56509 6.15405 8.21743C 6.208 9.63083 7.07121 10.8268 8.36603 11.316C 9.87665 11.914 11.6031 11.4248 12.9518 10.0114C 13.9769 8.97849 14.5164 7.51073 14.3546 6.09733C 14.1388 4.03159 12.8439 2.34638 10.9557 1.47659C 8.90554 0.552447 6.47776 0.932978 4.37368 2.4551C 1.56824 4.52084 0.273424 8.21743 1.24454 11.4791C 2.53935 15.7737 6.63961 18.4918 11.1715 18.0025L 11.2794 19.0897C 11.0636 19.2528 10.7399 19.2528 10.4162 19.2528Z"/>
        <path id="path3_stroke_2x" d="M 0.381322 11.914L 2.29156 11.3216L 2.29106 11.32L 0.381322 11.914ZM 3.88812 1.69404L 2.69956 0.0855244L 2.69308 0.0903099L 2.68664 0.0951474L 3.88812 1.69404ZM 11.4952 0.606808L 10.6777 2.43213L 10.69 2.43761L 10.7023 2.44292L 11.4952 0.606808ZM 15.5415 6.09733L 13.5535 6.31654L 13.555 6.33006L 13.5567 6.34355L 15.5415 6.09733ZM 13.8151 10.8811L 12.4258 9.44243L 12.4105 9.45721L 12.3955 9.47231L 13.8151 10.8811ZM 8.04232 12.4033L 8.77201 10.5411L 8.76909 10.54L 8.04232 12.4033ZM 5.12899 8.32615L 3.13201 8.43626L 3.13239 8.44271L 5.12899 8.32615ZM 6.15405 5.55371L 7.62477 6.90906L 7.63046 6.90289L 7.6361 6.89666L 6.15405 5.55371ZM 10.0925 4.35776L 10.7805 2.47984L 10.7745 2.47763L 10.0925 4.35776ZM 12.1426 7.07584L 12.2432 9.0733L 14.2263 8.97339L 14.1407 6.98962L 12.1426 7.07584ZM 11.0636 7.1302L 9.06793 7.26224L 9.19791 9.22673L 11.1642 9.12767L 11.0636 7.1302ZM 9.7148 5.33627L 10.392 3.4544L 10.3849 3.45188L 9.7148 5.33627ZM 6.90936 6.26041L 5.44778 4.89521L 5.43258 4.91149L 5.41774 4.9281L 6.90936 6.26041ZM 6.15405 8.21743L 8.15259 8.14114L 8.1509 8.09681L 8.14724 8.05259L 6.15405 8.21743ZM 8.36603 11.316L 9.10215 9.45644L 9.0876 9.45068L 9.07296 9.44514L 8.36603 11.316ZM 12.9518 10.0114L 11.5323 8.60252L 11.5185 8.61644L 11.5049 8.63062L 12.9518 10.0114ZM 14.3546 6.09733L 12.3654 6.30513L 12.3664 6.31501L 12.3676 6.32487L 14.3546 6.09733ZM 10.9557 1.47659L 11.7924 -0.339956L 11.785 -0.343368L 11.7776 -0.34672L 10.9557 1.47659ZM 4.37368 2.4551L 3.20143 0.834663L 3.1946 0.839603L 3.18781 0.8446L 4.37368 2.4551ZM 1.24454 11.4791L -0.672319 12.0498L -0.670323 12.0565L 1.24454 11.4791ZM 11.1715 18.0025L 13.1617 17.805L 12.9625 15.7975L 10.9568 16.0141L 11.1715 18.0025ZM 11.2794 19.0897L 12.4852 20.6854L 13.3804 20.0088L 13.2696 18.8922L 11.2794 19.0897ZM 10.4162 17.2528C 6.69346 17.2528 3.37683 14.8209 2.29156 11.3216L -1.52892 12.5065C 0.0833485 17.705 4.96724 21.2528 10.4162 21.2528L 10.4162 17.2528ZM 2.29106 11.32C 1.42774 8.54458 2.531 5.21557 5.08959 3.29293L 2.68664 0.0951474C -1.12095 2.95633 -2.93102 7.99901 -1.52842 12.5081L 2.29106 11.32ZM 5.07668 3.30256C 7.00844 1.87514 8.99938 1.68051 10.6777 2.43213L 12.3126 -1.21851C 9.1354 -2.64136 5.62336 -2.07493 2.69956 0.0855244L 5.07668 3.30256ZM 10.7023 2.44292C 12.3014 3.1335 13.3618 4.5775 13.5535 6.31654L 17.5294 5.87811C 17.1817 2.72462 15.2208 0.0371354 12.2881 -1.22931L 10.7023 2.44292ZM 13.5567 6.34355C 13.6927 7.43966 13.2825 8.61513 12.4258 9.44243L 15.2043 12.3199C 16.9372 10.6465 17.8219 8.23414 17.5263 5.85111L 13.5567 6.34355ZM 12.3955 9.47231C 11.1602 10.717 9.81953 10.9516 8.772 10.5411L 7.31264 14.2654C 10.1496 15.3771 13.125 14.4157 15.2346 12.29L 12.3955 9.47231ZM 8.76909 10.54C 7.84665 10.1802 7.18931 9.30113 7.12559 8.20959L 3.13239 8.44271C 3.28447 11.0478 4.89306 13.3217 7.31556 14.2666L 8.76909 10.54ZM 7.12595 8.21605C 7.10308 7.80112 7.27293 7.29086 7.62477 6.90906L 4.68332 4.19836C 3.63245 5.33869 3.047 6.89417 3.13202 8.43626L 7.12595 8.21605ZM 7.6361 6.89666C 8.33607 6.12419 8.97116 6.07854 9.41045 6.23788L 10.7745 2.47763C 8.51621 1.65847 6.23796 2.4826 4.672 4.21076L 7.6361 6.89666ZM 9.40438 6.23567C 9.8939 6.41503 10.128 6.78175 10.1444 7.16206L 14.1407 6.98962C 14.0492 4.86929 12.6648 3.17027 10.7805 2.47985L 9.40438 6.23567ZM 12.0419 5.07837L 10.9629 5.13273L 11.1642 9.12767L 12.2432 9.0733L 12.0419 5.07837ZM 13.0592 6.99816C 12.9525 5.38587 11.8924 3.99436 10.392 3.45441L 9.03759 7.21812C 9.03766 7.21815 9.0463 7.2216 9.05612 7.2346C 9.06542 7.24691 9.06758 7.25692 9.06793 7.26224L 13.0592 6.99816ZM 10.3849 3.45188C 8.50068 2.78178 6.67842 3.5777 5.44778 4.89521L 8.37094 7.62562C 8.6175 7.36165 8.81266 7.26332 8.91245 7.23075C 8.99684 7.2032 9.02756 7.21457 9.04466 7.22065L 10.3849 3.45188ZM 5.41774 4.9281C 4.67904 5.75513 4.04945 7.03531 4.16085 8.38228L 8.14724 8.05259C 8.1515 8.10401 8.13788 8.06303 8.18827 7.93609C 8.2358 7.81638 8.31318 7.69104 8.40099 7.59273L 5.41774 4.9281ZM 4.1555 8.29372C 4.23983 10.5028 5.60495 12.4108 7.6591 13.1869L 9.07296 9.44514C 8.53747 9.24281 8.17617 8.75882 8.15259 8.14114L 4.1555 8.29372ZM 7.62991 13.1756C 10.0717 14.1422 12.6291 13.2466 14.3988 11.3921L 11.5049 8.63062C 10.5771 9.60292 9.68157 9.6858 9.10215 9.45644L 7.62991 13.1756ZM 14.3714 11.4202C 15.7978 9.983 16.5767 7.92291 16.3416 5.86979L 12.3676 6.32487C 12.4561 7.09855 12.1561 7.97399 11.5323 8.60252L 14.3714 11.4202ZM 16.3437 5.88952C 16.0489 3.06695 14.2701 0.801342 11.7924 -0.339956L 10.1189 3.29314C 11.4177 3.89142 12.2287 4.99623 12.3654 6.30513L 16.3437 5.88952ZM 11.7776 -0.34672C 8.94432 -1.62388 5.76028 -1.01645 3.20143 0.834663L 5.54593 4.07554C 7.19524 2.88241 8.86676 2.72877 10.1338 3.29991L 11.7776 -0.34672ZM 3.18781 0.8446C -0.2669 3.38842 -1.89459 7.94455 -0.672308 12.0498L 3.16138 10.9084C 2.44143 8.49031 3.40339 5.65326 5.55955 4.0656L 3.18781 0.8446ZM -0.670323 12.0565C 0.904981 17.2813 5.90653 20.5825 11.3861 19.991L 10.9568 16.0141C 7.37268 16.401 4.17373 14.2661 3.1594 10.9018L -0.670323 12.0565ZM 9.18124 18.2L 9.28914 19.2873L 13.2696 18.8922L 13.1617 17.805L 9.18124 18.2ZM 10.0735 17.4941C 10.349 17.286 10.5953 17.2539 10.616 17.2511C 10.635 17.2484 10.6323 17.2501 10.593 17.2513C 10.5459 17.2531 10.4971 17.2528 10.4162 17.2528L 10.4162 21.2528C 10.578 21.2528 10.8763 21.2482 11.1605 21.2138C 11.4634 21.166 12.0779 20.9541 12.4852 20.6854L 10.0735 17.4941Z"/>
    </defs>
</svg>