<svg width="74" height="49" viewBox="0 0 74 49" version="1.1" xmlns="http://www.w3.org/2000/svg" xmlns:xlink="http://www.w3.org/1999/xlink">
    <title>Page 1</title>
    <desc>Created using Figma</desc>
    <g id="Canvas" transform="translate(-5084 -65)">
        <g id="Group">
            <g id="Group">
                <g id="Group">
                    <g id="Vector">
                        <use xlink:href="#path0_fill" transform="translate(5104.33 72.7643)" fill="#F2994A"/>
                    </g>
                </g>
                <g id="Group">
                    <g id="Vector">
                        <use xlink:href="#path1_fill" transform="translate(5112.8 72.6991)" fill="#F2994A"/>
                    </g>
                </g>
            </g>
            <g id="Group">
                <g id="Vector">
                    <use xlink:href="#path2_fill" transform="translate(5111.79 105.844)" fill="#F2994A"/>
                </g>
            </g>
            <g id="Group">
                <g id="Vector">
                    <use xlink:href="#path3_fill" transform="translate(5110.27 65.0652)" fill="#F2994A"/>
                </g>
            </g>
            <g id="Group">
                <g id="Group">
                    <g id="Vector">
                        <use xlink:href="#path4_fill" transform="translate(5104.33 80.4634)" fill="#F2994A"/>
                    </g>
                </g>
                <g id="Group">
                    <g id="Vector">
                        <use xlink:href="#path5_fill" transform="translate(5112.8 80.4634)" fill="#F2994A"/>
                    </g>
                </g>
            </g>
            <g id="Group">
                <g id="Group">
                    <g id="Vector">
                        <use xlink:href="#path6_fill" transform="translate(5104.33 88.2277)" fill="#F2994A"/>
                    </g>
                </g>
                <g id="Group">
                    <g id="Vector">
                        <use xlink:href="#path7_fill" transform="translate(5112.8 88.1625)" fill="#F2994A"/>
                    </g>
                </g>
            </g>
            <g id="Group">
                <g id="Group">
                    <g id="Vector">
                        <use xlink:href="#path8_fill" transform="translate(5104.33 95.9268)" fill="#F2994A"/>
                    </g>
                </g>
                <g id="Group">
                    <g id="Vector">
                        <use xlink:href="#path9_fill" transform="translate(5112.8 95.9268)" fill="#F2994A"/>
                    </g>
                </g>
            </g>
        </g>
        <g id="Group">
            <g id="Group">
                <g id="Group">
                    <g id="Vector">
                        <use xlink:href="#path10_fill" transform="translate(5084 85.8788)" fill="#F2994A"/>
                    </g>
                </g>
                <g id="Group">
                    <g id="Vector">
                        <use xlink:href="#path11_fill" transform="translate(5089.79 86.0093)" fill="#F2994A"/>
                    </g>
                </g>
            </g>
            <g id="Group">
                <g id="Vector">
                    <use xlink:href="#path12_fill" transform="translate(5089.08 108.454)" fill="#F2994A"/>
                </g>
            </g>
            <g id="Group">
                <g id="Vector">
                    <use xlink:href="#path13_fill" transform="translate(5088.09 80.7244)" fill="#F2994A"/>
                </g>
            </g>
            <g id="Group">
                <g id="Group">
                    <g id="Vector">
                        <use xlink:href="#path14_fill" transform="translate(5084 91.1638)" fill="#F2994A"/>
                    </g>
                </g>
                <g id="Group">
                    <g id="Vector">
                        <use xlink:href="#path15_fill" transform="translate(5089.82 91.2943)" fill="#F2994A"/>
                    </g>
                </g>
            </g>
            <g id="Group">
                <g id="Group">
                    <g id="Vector">
                        <use xlink:href="#path16_fill" transform="translate(5084 96.3835)" fill="#F2994A"/>
                    </g>
                </g>
                <g id="Group">
                    <g id="Vector">
                        <use xlink:href="#path17_fill" transform="translate(5089.82 96.514)" fill="#F2994A"/>
                    </g>
                </g>
            </g>
            <g id="Group">
                <g id="Group">
                    <g id="Vector">
                        <use xlink:href="#path18_fill" transform="translate(5084 101.668)" fill="#F2994A"/>
                    </g>
                </g>
                <g id="Group">
                    <g id="Vector">
                        <use xlink:href="#path19_fill" transform="translate(5089.82 101.799)" fill="#F2994A"/>
                    </g>
                </g>
            </g>
        </g>
        <g id="Group">
            <g id="Group">
                <g id="Group">
                    <g id="Vector">
                        <use xlink:href="#path20_fill" transform="translate(5128.89 85.9441)" fill="#F2994A"/>
                    </g>
                </g>
                <g id="Group">
                    <g id="Vector">
                        <use xlink:href="#path21_fill" transform="translate(5134.71 86.0093)" fill="#F2994A"/>
                    </g>
                </g>
            </g>
            <g id="Group">
                <g id="Vector">
                    <use xlink:href="#path22_fill" transform="translate(5133.97 108.454)" fill="#F2994A"/>
                </g>
            </g>
            <g id="Group">
                <g id="Vector">
                    <use xlink:href="#path23_fill" transform="translate(5132.98 80.7244)" fill="#F2994A"/>
                </g>
            </g>
            <g id="Group">
                <g id="Group">
                    <g id="Vector">
                        <use xlink:href="#path24_fill" transform="translate(5128.89 91.229)" fill="#F2994A"/>
                    </g>
                </g>
                <g id="Group">
                    <g id="Vector">
                        <use xlink:href="#path25_fill" transform="translate(5134.71 91.2943)" fill="#F2994A"/>
                    </g>
                </g>
            </g>
            <g id="Group">
                <g id="Group">
                    <g id="Vector">
                        <use xlink:href="#path26_fill" transform="translate(5128.89 96.4487)" fill="#F2994A"/>
                    </g>
                </g>
                <g id="Group">
                    <g id="Vector">
                        <use xlink:href="#path27_fill" transform="translate(5134.71 96.514)" fill="#F2994A"/>
                    </g>
                </g>
            </g>
            <g id="Group">
                <g id="Group">
                    <g id="Vector">
                        <use xlink:href="#path28_fill" transform="translate(5128.89 101.734)" fill="#F2994A"/>
                    </g>
                </g>
                <g id="Group">
                    <g id="Vector">
                        <use xlink:href="#path29_fill" transform="translate(5134.71 101.799)" fill="#F2994A"/>
                    </g>
                </g>
            </g>
        </g>
    </g>
    <defs>
        <path id="path0_fill" d="M 6.66735 8.35153C 6.27127 8.35153 5.74316 8.22104 5.14904 7.96005C 4.15884 7.50333 3.10263 6.65513 2.11243 5.61118C 0.132027 3.45806 -5.03642e-07 0.456724 -5.03642e-07 0.326232L -5.03642e-07 1.24448e-07L 0.330066 0.0652461C 0.462093 0.0652461 3.4987 0.456724 5.4791 2.60985C 6.4693 3.6538 7.19545 4.76298 7.59153 5.74168C 8.05362 6.85087 7.98761 7.69907 7.52552 8.15579C 7.32748 8.22104 6.99741 8.35153 6.66735 8.35153ZM 0.660133 0.652464C 0.792159 1.50067 1.18824 3.65379 2.57452 5.21971C 3.49871 6.1984 4.4889 6.98136 5.41309 7.43808C 6.20525 7.82956 6.86538 7.89481 7.12944 7.63382C 7.39349 7.37284 7.39349 6.72037 7.06342 5.93742C 6.66734 5.02397 6.00721 3.98003 5.08302 3.00133C 3.63073 1.37017 1.45229 0.782956 0.660133 0.652464Z"/>
        <path id="path1_fill" d="M 1.30552 8.48202C 0.909444 8.48202 0.645392 8.35153 0.381339 8.15579C -0.0807539 7.69907 -0.146769 6.85087 0.315324 5.74168C 0.711404 4.76298 1.50356 3.65379 2.42775 2.60985C 4.40815 0.456724 7.44476 0.0652465 7.57679 0.0652465L 7.90685 -1.24448e-07L 7.90685 0.326232C 7.90685 0.456724 7.77483 3.45806 5.79443 5.61118C 4.80423 6.65513 3.74802 7.50333 2.75782 7.96005C 2.22971 8.35153 1.7016 8.48202 1.30552 8.48202ZM 7.31274 0.782956C 6.45456 0.978695 4.34214 1.50067 2.88984 3.06658C 1.96566 4.04527 1.23951 5.08921 0.909445 6.00266C 0.579379 6.85087 0.57938 7.43808 0.843433 7.69907C 1.10749 7.96005 1.76762 7.89481 2.55978 7.50333C 3.48396 7.04661 4.47416 6.26365 5.39835 5.28495C 6.85064 3.78429 7.24672 1.63116 7.31274 0.782956Z"/>
        <path id="path2_fill" d="M 1.51831 0L 0 0L 0 8.15579L 1.51831 8.15579L 1.51831 0Z"/>
        <path id="path3_fill" d="M 2.24827 11.0266C 0.729963 11.0266 -0.0621978 8.22104 0.0038155 5.54594C 0.0038155 2.60985 1.98422 0.326232 2.11624 0.195739L 2.31428 0L 2.57834 0.260985C 2.64435 0.326232 4.62475 2.6751 4.62475 5.61119C 4.55873 8.22104 3.76658 11.0266 2.24827 11.0266ZM 2.31428 0.978695C 1.78618 1.6964 0.597936 3.5233 0.597936 5.61119C 0.597936 8.48202 1.45611 10.4394 2.24827 10.4394C 3.04043 10.4394 3.96461 8.48202 3.96461 5.61119C 3.96461 3.5233 2.77637 1.63116 2.31428 0.978695Z"/>
        <path id="path4_fill" d="M 6.66735 8.35153C 6.27127 8.35153 5.74316 8.22104 5.14904 7.96005C 4.15884 7.50333 3.10263 6.65513 2.11243 5.61119C 0.132027 3.45806 -5.03642e-07 0.456725 -5.03642e-07 0.326232L -5.03642e-07 2.48895e-07L 0.330066 0.0652468C 0.462093 0.0652468 3.4987 0.456725 5.4791 2.60985C 6.4693 3.6538 7.19545 4.76298 7.59153 5.74168C 8.05362 6.85087 7.98761 7.69907 7.52552 8.15579C 7.32748 8.28628 6.99741 8.35153 6.66735 8.35153ZM 0.660133 0.652464C 0.792159 1.50067 1.18824 3.65379 2.57452 5.21971C 3.49871 6.1984 4.4889 6.98136 5.41309 7.43808C 6.20525 7.82956 6.86538 7.89481 7.12944 7.63382C 7.39349 7.37284 7.39349 6.72037 7.06342 5.93742C 6.66734 5.02397 6.00721 3.98003 5.08302 3.00133C 3.63073 1.37017 1.45229 0.848203 0.660133 0.652464Z"/>
        <path id="path5_fill" d="M 1.30552 8.48202C 0.909444 8.48202 0.645392 8.35153 0.381339 8.15579C -0.0807539 7.69907 -0.146769 6.85087 0.315324 5.74168C 0.711404 4.76298 1.50356 3.6538 2.42775 2.60985C 4.40815 0.456725 7.44476 0.0652468 7.57679 0.0652468L 7.90685 2.48895e-07L 7.90685 0.326232C 7.90685 0.456725 7.77483 3.45806 5.79443 5.61119C 4.80423 6.65513 3.74802 7.50333 2.75782 7.96005C 2.22971 8.28628 1.7016 8.48202 1.30552 8.48202ZM 7.31274 0.71771C 6.45456 0.913449 4.34214 1.43542 2.88984 3.00133C 1.96566 3.98003 1.23951 5.02397 0.909445 5.93742C 0.579379 6.78562 0.57938 7.37284 0.843433 7.63382C 1.10749 7.89481 1.76762 7.82956 2.55978 7.43808C 3.48396 6.98136 4.47416 6.1984 5.39835 5.21971C 6.85064 3.71904 7.24672 1.56591 7.31274 0.71771Z"/>
        <path id="path6_fill" d="M 6.66735 8.35153C 6.27127 8.35153 5.74316 8.22104 5.14904 7.96005C 4.15884 7.50333 3.10263 6.65513 2.11243 5.61118C 0.132027 3.45806 -5.03642e-07 0.456724 -5.03642e-07 0.326232L -5.03642e-07 4.63603e-15L 0.330066 0.0652453C 0.462093 0.0652453 3.4987 0.456724 5.4791 2.60985C 6.4693 3.6538 7.19545 4.76298 7.59153 5.74168C 8.05362 6.85086 7.98761 7.69907 7.52552 8.15579C 7.32748 8.22104 6.99741 8.35153 6.66735 8.35153ZM 0.660133 0.587218C 0.792159 1.43542 1.18824 3.58855 2.57452 5.15446C 3.49871 6.13316 4.4889 6.91611 5.41309 7.37284C 6.20525 7.76431 6.86538 7.82956 7.12944 7.56857C 7.39349 7.30759 7.39349 6.65513 7.06342 5.87217C 6.66734 4.95872 6.00721 3.91478 5.08302 2.93609C 3.63073 1.37017 1.45229 0.782957 0.660133 0.587218Z"/>
        <path id="path7_fill" d="M 1.30552 8.48203C 0.909444 8.48203 0.645392 8.35153 0.381339 8.15579C -0.0807539 7.69907 -0.146769 6.85087 0.315324 5.74168C 0.711404 4.76298 1.50356 3.6538 2.42775 2.60985C 4.40815 0.456725 7.44476 0.0652463 7.57679 0.0652463L 7.90685 9.9558e-07L 7.90685 0.326233C 7.90685 0.456725 7.77483 3.45806 5.79443 5.61119C 4.80423 6.65513 3.74802 7.50333 2.75782 7.96005C 2.22971 8.35153 1.7016 8.48203 1.30552 8.48203ZM 7.31274 0.782955C 6.45456 0.978694 4.34214 1.50066 2.88984 3.06658C 1.96566 4.04527 1.23951 5.08921 0.909445 6.00266C 0.579379 6.85086 0.57938 7.43808 0.843433 7.69907C 1.10749 7.96005 1.76762 7.89481 2.55978 7.50333C 3.48396 7.04661 4.47416 6.26365 5.39835 5.28495C 6.85064 3.78429 7.24672 1.63116 7.31274 0.782955Z"/>
        <path id="path8_fill" d="M 6.66735 8.35153C 6.27127 8.35153 5.74316 8.22104 5.14904 7.96005C 4.15884 7.50333 3.10263 6.65513 2.11243 5.61119C 0.132027 3.45806 -5.03642e-07 0.456724 -5.03642e-07 0.326231L -5.03642e-07 -4.9779e-07L 0.330066 0.0652473C 0.462093 0.0652473 3.4987 0.456724 5.4791 2.60985C 6.4693 3.65379 7.19545 4.76298 7.59153 5.74168C 8.05362 6.85086 7.98761 7.69907 7.52552 8.15579C 7.32748 8.28628 6.99741 8.35153 6.66735 8.35153ZM 0.660133 0.652463C 0.792159 1.50067 1.18824 3.65379 2.57452 5.21971C 3.49871 6.1984 4.4889 6.98136 5.41309 7.43808C 6.20525 7.82956 6.86538 7.89481 7.12944 7.63382C 7.39349 7.37284 7.39349 6.72037 7.06342 5.93742C 6.66734 5.02397 6.00721 3.98003 5.08302 3.00133C 3.63073 1.37017 1.45229 0.782956 0.660133 0.652463Z"/>
        <path id="path9_fill" d="M 1.30552 8.48202C 0.909444 8.48202 0.645392 8.35153 0.381339 8.15579C -0.0807539 7.69907 -0.146769 6.85086 0.315324 5.74168C 0.711404 4.76298 1.50356 3.65379 2.42775 2.60985C 4.40815 0.456724 7.44476 0.0652473 7.57679 0.0652473L 7.90685 -4.9779e-07L 7.90685 0.326231C 7.90685 0.456724 7.77483 3.45806 5.79443 5.61119C 4.80423 6.65513 3.74802 7.50333 2.75782 7.96005C 2.22971 8.28628 1.7016 8.48202 1.30552 8.48202ZM 7.31274 0.717711C 6.45456 0.91345 4.34214 1.43542 2.88984 3.00133C 1.96566 3.98003 1.23951 5.02397 0.909445 5.93742C 0.579379 6.78562 0.57938 7.37284 0.843433 7.63382C 1.10749 7.89481 1.76762 7.82956 2.55978 7.43808C 3.48396 6.98136 4.47416 6.1984 5.39835 5.21971C 6.85064 3.71904 7.24672 1.56591 7.31274 0.717711Z"/>
        <path id="path10_fill" d="M 4.55492 5.74168C 4.29087 5.74168 3.89479 5.67643 3.49871 5.48069C 2.83857 5.15446 2.11243 4.56724 1.45229 3.91478C 0.132027 2.41412 0 0.326231 0 0.260985L 0 -2.48895e-07L 0.264053 -2.48895e-07C 0.330067 -2.48895e-07 2.44249 0.260985 3.76276 1.6964C 4.42289 2.41411 4.951 3.13182 5.21505 3.84953C 5.54512 4.56724 5.4791 5.15446 5.14904 5.48069C 5.01701 5.67643 4.81897 5.74168 4.55492 5.74168ZM 0.462093 0.521971C 0.528107 1.10919 0.79216 2.54461 1.78236 3.58855C 2.37648 4.24101 3.10263 4.76298 3.69675 5.08921C 4.22485 5.3502 4.68695 5.41545 4.88498 5.21971C 5.08302 5.02397 5.08302 4.63249 4.81897 4.04527C 4.55492 3.39281 4.09283 2.6751 3.43269 2.02264C 2.44249 0.978695 1.05621 0.652464 0.462093 0.521971Z"/>
        <path id="path11_fill" d="M 0.877136 5.67643C 0.613083 5.67643 0.415042 5.61118 0.283016 5.48069C -0.0470509 5.15446 -0.113064 4.56724 0.217003 3.84953C 0.481056 3.19707 1.00916 2.41411 1.6693 1.69641C 3.05558 0.260986 5.10199 -9.9558e-07 5.168 -9.9558e-07L 5.43205 -9.9558e-07L 5.43205 0.260985C 5.43205 0.326232 5.36604 2.41411 3.97976 3.84953C 3.31963 4.56724 2.59348 5.08922 1.93335 5.41545C 1.53727 5.61119 1.14119 5.67643 0.877136 5.67643ZM 4.96996 0.456724C 4.37584 0.587217 2.92355 0.978696 1.93335 2.02264C 1.33923 2.6751 0.811123 3.39281 0.547069 4.04527C 0.349029 4.63249 0.283016 5.02397 0.481056 5.21971C 0.679096 5.41545 1.14119 5.3502 1.6693 5.08922C 2.26342 4.76298 2.98956 4.24101 3.58368 3.58855C 4.63989 2.47936 4.90395 1.04394 4.96996 0.456724Z"/>
        <path id="path12_fill" d="M 1.05621 0L 0 0L 0 5.54594L 1.05621 5.54594L 1.05621 0Z"/>
        <path id="path13_fill" d="M 1.52329 7.50333C 0.533091 7.50333 -0.0610289 5.61118 0.00498438 3.78429C 0.00498438 1.8269 1.39126 0.260985 1.39126 0.195739L 1.52329 0L 1.65532 0.195739C 1.72133 0.260985 3.0416 1.8269 3.0416 3.84953C 3.0416 5.61118 2.51349 7.50333 1.52329 7.50333ZM 1.52329 0.652463C 1.19322 1.10919 0.401064 2.34887 0.335051 3.78429C 0.335051 5.74168 0.929171 7.0466 1.45728 7.0466C 1.98538 7.0466 2.5795 5.67643 2.64552 3.78429C 2.64552 2.34887 1.85336 1.10919 1.52329 0.652463Z"/>
        <path id="path14_fill" d="M 4.55492 5.74168C 4.29087 5.74168 3.89479 5.67643 3.49871 5.48069C 2.83857 5.15446 2.11243 4.56724 1.45229 3.91478C 0.132027 2.41411 0 0.326233 0 0.260986L 0 0L 0.264053 0C 0.330067 0 2.44249 0.260984 3.76276 1.6964C 4.42289 2.41411 4.951 3.13182 5.21505 3.84953C 5.54512 4.56724 5.4791 5.15446 5.14904 5.48069C 5.01701 5.67643 4.81897 5.74168 4.55492 5.74168ZM 0.462093 0.456725C 0.528107 1.04394 0.79216 2.47936 1.78236 3.5233C 2.37648 4.17577 3.10263 4.69774 3.69675 5.02397C 4.22485 5.28495 4.68695 5.3502 4.88498 5.15446C 5.08302 4.95872 5.08302 4.56724 4.81897 3.98003C 4.55492 3.32756 4.09283 2.60985 3.43269 1.95739C 2.44249 0.978695 1.05621 0.587218 0.462093 0.456725Z"/>
        <path id="path15_fill" d="M 0.850611 5.67643C 0.586558 5.67643 0.388517 5.61118 0.256491 5.48069C -0.073576 5.15446 -0.0735757 4.63249 0.190478 3.84953C 0.454531 3.19707 0.982637 2.41411 1.64277 1.6964C 3.02905 0.260985 5.07546 4.9779e-07 5.14148 4.9779e-07L 5.40553 4.9779e-07L 5.40553 0.260984C 5.40553 0.326231 5.33952 2.41411 3.95324 3.84953C 3.2931 4.56724 2.56696 5.08921 1.90682 5.41545C 1.51074 5.54594 1.11466 5.67643 0.850611 5.67643ZM 4.94344 0.391478C 4.34932 0.52197 2.89702 0.913449 1.90682 1.95739C 1.3127 2.60985 0.784597 3.32756 0.520544 3.98003C 0.322504 4.56724 0.256491 4.95872 0.454531 5.15446C 0.652571 5.3502 1.11466 5.28495 1.64277 5.02397C 2.23689 4.69774 2.96304 4.17576 3.55716 3.5233C 4.61337 2.41411 4.87742 0.978695 4.94344 0.391478Z"/>
        <path id="path16_fill" d="M 4.55492 5.74168C 4.29087 5.74168 3.89479 5.67643 3.49871 5.48069C 2.83857 5.15446 2.11243 4.56724 1.45229 3.91478C 0.132027 2.41411 0 0.326233 0 0.260986L 0 0L 0.264053 0C 0.330067 0 2.44249 0.260984 3.76276 1.6964C 4.42289 2.41411 4.951 3.13182 5.21505 3.84953C 5.54512 4.56724 5.4791 5.15446 5.14904 5.48069C 5.01701 5.67643 4.81897 5.74168 4.55492 5.74168ZM 0.462093 0.52197C 0.528107 1.10919 0.79216 2.54461 1.78236 3.58855C 2.37648 4.24101 3.10263 4.76298 3.69675 5.08921C 4.22485 5.3502 4.68695 5.41545 4.88498 5.21971C 5.08302 5.02397 5.08302 4.63249 4.81897 4.04527C 4.55492 3.39281 4.09283 2.6751 3.43269 2.02264C 2.44249 0.978694 1.05621 0.652463 0.462093 0.52197Z"/>
        <path id="path17_fill" d="M 0.850611 5.67643C 0.586558 5.67643 0.388517 5.61118 0.256491 5.48069C -0.073576 5.15446 -0.0735757 4.63249 0.190478 3.84953C 0.454531 3.19707 0.982637 2.41411 1.64277 1.6964C 3.02905 0.260985 5.07546 4.9779e-07 5.14148 4.9779e-07L 5.40553 4.9779e-07L 5.40553 0.260984C 5.40553 0.326231 5.33952 2.41411 3.95324 3.84953C 3.2931 4.56724 2.56696 5.08921 1.90682 5.41545C 1.51074 5.61119 1.11466 5.67643 0.850611 5.67643ZM 4.94344 0.456725C 4.34932 0.587218 2.89702 0.978694 1.90682 2.02264C 1.3127 2.6751 0.784597 3.39281 0.520544 4.04527C 0.322504 4.63249 0.256491 5.02397 0.454531 5.21971C 0.652571 5.41545 1.11466 5.3502 1.64277 5.08921C 2.23689 4.76298 2.96304 4.24101 3.55716 3.58855C 4.61337 2.47936 4.87742 1.04394 4.94344 0.456725Z"/>
        <path id="path18_fill" d="M 4.55492 5.74168C 4.29087 5.74168 3.89479 5.67643 3.49871 5.48069C 2.83857 5.15446 2.11243 4.56724 1.45229 3.91478C 0.132027 2.41411 0 0.326232 0 0.260985L 0 -9.9558e-07L 0.264053 -9.9558e-07C 0.330067 -9.9558e-07 2.44249 0.260986 3.76276 1.69641C 4.42289 2.41411 4.951 3.13182 5.21505 3.84953C 5.54512 4.56724 5.4791 5.15446 5.14904 5.48069C 5.01701 5.67643 4.81897 5.74168 4.55492 5.74168ZM 0.462093 0.456724C 0.528107 1.04394 0.79216 2.47936 1.78236 3.5233C 2.37648 4.17577 3.10263 4.69774 3.69675 5.02397C 4.22485 5.28495 4.68695 5.3502 4.88498 5.15446C 5.08302 4.95872 5.08302 4.56724 4.81897 3.98003C 4.55492 3.32756 4.09283 2.60985 3.43269 1.95739C 2.44249 0.978694 1.05621 0.587216 0.462093 0.456724Z"/>
        <path id="path19_fill" d="M 0.850611 5.67643C 0.586558 5.67643 0.388517 5.61118 0.256491 5.48069C -0.073576 5.15446 -0.0735757 4.63249 0.190478 3.84953C 0.454531 3.19707 0.982637 2.41412 1.64277 1.69641C 3.02905 0.260986 5.07546 -4.9779e-07 5.14148 -4.9779e-07L 5.40553 -4.9779e-07L 5.40553 0.260986C 5.40553 0.326232 5.33952 2.41411 3.95324 3.84953C 3.2931 4.56724 2.56696 5.08921 1.90682 5.41544C 1.51074 5.54594 1.11466 5.67643 0.850611 5.67643ZM 4.94344 0.391479C 4.34932 0.521972 2.89702 0.913448 1.90682 1.95739C 1.3127 2.60985 0.784597 3.32756 0.520544 3.98003C 0.322504 4.56724 0.256491 4.95872 0.454531 5.15446C 0.652571 5.3502 1.11466 5.28495 1.64277 5.02397C 2.23689 4.69774 2.96304 4.17577 3.55716 3.5233C 4.61337 2.41411 4.87742 0.978696 4.94344 0.391479Z"/>
        <path id="path20_fill" d="M 4.55492 5.67643C 4.29087 5.67643 3.89479 5.61118 3.49871 5.41545C 2.83857 5.08921 2.11242 4.502 1.45229 3.84953C 0.0660114 2.41412 -9.38106e-15 0.326233 -9.38106e-15 0.260986L -9.38106e-15 -4.63603e-15L 0.264054 -4.63603e-15C 0.330068 -4.63603e-15 2.44249 0.260984 3.76276 1.6964C 4.42289 2.41411 4.951 3.13183 5.21505 3.84953C 5.54512 4.56724 5.47911 5.15446 5.14904 5.48069C 5.01701 5.61119 4.81897 5.67643 4.55492 5.67643ZM 0.462091 0.456725C 0.528104 1.04394 0.792158 2.47936 1.78236 3.5233C 2.37648 4.17577 3.10262 4.69774 3.69674 5.02397C 4.22485 5.28495 4.68695 5.3502 4.88499 5.15446C 5.08303 4.95872 5.08303 4.56724 4.81897 3.98003C 4.55492 3.32756 4.09282 2.60985 3.43269 1.95739C 2.44249 0.913449 1.05621 0.587218 0.462091 0.456725Z"/>
        <path id="path21_fill" d="M 0.850609 5.67643C 0.586556 5.67643 0.388515 5.61118 0.256489 5.48069C -0.0735779 5.15446 -0.0735769 4.63249 0.190476 3.84953C 0.45453 3.19707 0.982639 2.41411 1.64277 1.69641C 3.02905 0.260986 5.07546 -9.9558e-07 5.14148 -9.9558e-07L 5.40553 -9.9558e-07L 5.40553 0.260985C 5.40553 0.326232 5.33952 2.41411 3.95324 3.84953C 3.29311 4.56724 2.56695 5.08922 1.90682 5.41545C 1.51074 5.61119 1.11466 5.67643 0.850609 5.67643ZM 4.94344 0.456724C 4.34932 0.587217 2.89702 0.978696 1.90682 2.02264C 1.3127 2.6751 0.784596 3.39281 0.520543 4.04527C 0.322503 4.63249 0.256491 5.02397 0.454531 5.21971C 0.652571 5.41545 1.11467 5.3502 1.64277 5.08922C 2.23689 4.76298 2.96303 4.24101 3.55715 3.58855C 4.61337 2.47936 4.87742 1.04394 4.94344 0.456724Z"/>
        <path id="path22_fill" d="M 1.05622 0L -2.01457e-06 0L -2.01457e-06 5.54594L 1.05622 5.54594L 1.05622 0Z"/>
        <path id="path23_fill" d="M 1.52329 7.50333C 0.533091 7.50333 -0.0610308 5.61118 0.0049825 3.78429C 0.0049825 1.8269 1.39127 0.260985 1.39127 0.195739L 1.52329 0L 1.65532 0.195739C 1.72133 0.260985 3.0416 1.8269 3.0416 3.84953C 3.0416 5.61118 2.51349 7.50333 1.52329 7.50333ZM 1.52329 0.652463C 1.19322 1.10919 0.401062 2.34887 0.335049 3.78429C 0.335049 5.74168 0.929172 7.0466 1.45728 7.0466C 1.98538 7.0466 2.5795 5.67643 2.64551 3.78429C 2.64551 2.34887 1.85336 1.10919 1.52329 0.652463Z"/>
        <path id="path24_fill" d="M 4.55492 5.67643C 4.29087 5.67643 3.89479 5.61119 3.49871 5.41545C 2.83857 5.08922 2.11242 4.502 1.45229 3.84953C 0.0660114 2.41411 -9.38106e-15 0.326232 -9.38106e-15 0.260985L -9.38106e-15 -9.9558e-07L 0.264054 -9.9558e-07C 0.330068 -9.9558e-07 2.44249 0.260986 3.76276 1.69641C 4.42289 2.41411 4.951 3.13182 5.21505 3.84953C 5.54512 4.56724 5.47911 5.15446 5.14904 5.48069C 5.01701 5.61118 4.81897 5.67643 4.55492 5.67643ZM 0.462091 0.391479C 0.528104 0.978696 0.792158 2.41412 1.78236 3.45806C 2.37648 4.11052 3.10262 4.63249 3.69674 4.95872C 4.22485 5.21971 4.68695 5.28495 4.88499 5.08922C 5.08303 4.89348 5.08303 4.502 4.81897 3.91478C 4.55492 3.26232 4.09282 2.54461 3.43269 1.89214C 2.44249 0.913449 1.05621 0.521971 0.462091 0.391479Z"/>
        <path id="path25_fill" d="M 0.850609 5.67643C 0.586556 5.67643 0.388515 5.61118 0.256489 5.48069C -0.0735779 5.15446 -0.0735769 4.63249 0.190476 3.84953C 0.45453 3.19707 0.982639 2.41411 1.64277 1.6964C 3.02905 0.260985 5.07546 4.9779e-07 5.14148 4.9779e-07L 5.40553 4.9779e-07L 5.40553 0.260984C 5.40553 0.326231 5.33952 2.41411 3.95324 3.84953C 3.29311 4.56724 2.56695 5.08921 1.90682 5.41545C 1.51074 5.54594 1.11466 5.67643 0.850609 5.67643ZM 4.94344 0.391478C 4.34932 0.52197 2.89702 0.913449 1.90682 1.95739C 1.3127 2.60985 0.784596 3.32756 0.520543 3.98003C 0.322503 4.56724 0.256491 4.95872 0.454531 5.15446C 0.652571 5.3502 1.11467 5.28495 1.64277 5.02397C 2.23689 4.69774 2.96303 4.17576 3.55715 3.5233C 4.61337 2.41411 4.87742 0.978695 4.94344 0.391478Z"/>
        <path id="path26_fill" d="M 4.55492 5.67643C 4.29087 5.67643 3.89479 5.61119 3.49871 5.41545C 2.83857 5.08922 2.11242 4.502 1.45229 3.84953C 0.0660114 2.41411 -9.38106e-15 0.326232 -9.38106e-15 0.260985L -9.38106e-15 -9.9558e-07L 0.264054 -9.9558e-07C 0.330068 -9.9558e-07 2.44249 0.260986 3.76276 1.69641C 4.42289 2.41411 4.951 3.13182 5.21505 3.84953C 5.54512 4.56724 5.47911 5.15446 5.14904 5.48069C 5.01701 5.61118 4.81897 5.67643 4.55492 5.67643ZM 0.462091 0.456724C 0.528104 1.04394 0.792158 2.47936 1.78236 3.5233C 2.37648 4.17577 3.10262 4.69774 3.69674 5.02397C 4.22485 5.28495 4.68695 5.3502 4.88499 5.15446C 5.08303 4.95872 5.08303 4.56724 4.81897 3.98003C 4.55492 3.32756 4.09282 2.60985 3.43269 1.95739C 2.44249 0.913448 1.05621 0.587217 0.462091 0.456724Z"/>
        <path id="path27_fill" d="M 0.850609 5.67643C 0.586556 5.67643 0.388515 5.61118 0.256489 5.48069C -0.0735779 5.15446 -0.0735769 4.63249 0.190476 3.84953C 0.45453 3.19707 0.982639 2.41411 1.64277 1.6964C 3.02905 0.260985 5.07546 4.9779e-07 5.14148 4.9779e-07L 5.40553 4.9779e-07L 5.40553 0.260984C 5.40553 0.326231 5.33952 2.41411 3.95324 3.84953C 3.29311 4.56724 2.56695 5.08921 1.90682 5.41545C 1.51074 5.61119 1.11466 5.67643 0.850609 5.67643ZM 4.94344 0.456725C 4.34932 0.587218 2.89702 0.978694 1.90682 2.02264C 1.3127 2.6751 0.784596 3.39281 0.520543 4.04527C 0.322503 4.63249 0.256491 5.02397 0.454531 5.21971C 0.652571 5.41545 1.11467 5.3502 1.64277 5.08921C 2.23689 4.76298 2.96303 4.24101 3.55715 3.58855C 4.61337 2.47936 4.87742 1.04394 4.94344 0.456725Z"/>
        <path id="path28_fill" d="M 4.55492 5.67643C 4.29087 5.67643 3.89479 5.61119 3.49871 5.41545C 2.83857 5.08921 2.11242 4.502 1.45229 3.84953C 0.0660114 2.41411 -9.38106e-15 0.326231 -9.38106e-15 0.260984L -9.38106e-15 4.9779e-07L 0.264054 4.9779e-07C 0.330068 4.9779e-07 2.44249 0.260985 3.76276 1.6964C 4.42289 2.41411 4.951 3.13182 5.21505 3.84953C 5.54512 4.56724 5.47911 5.15446 5.14904 5.48069C 5.01701 5.61118 4.81897 5.67643 4.55492 5.67643ZM 0.462091 0.391478C 0.528104 0.978695 0.792158 2.41411 1.78236 3.45806C 2.37648 4.11052 3.10262 4.63249 3.69674 4.95872C 4.22485 5.21971 4.68695 5.28495 4.88499 5.08921C 5.08303 4.89348 5.08303 4.502 4.81897 3.91478C 4.55492 3.26232 4.09282 2.54461 3.43269 1.89214C 2.44249 0.913448 1.05621 0.52197 0.462091 0.391478Z"/>
        <path id="path29_fill" d="M 0.850609 5.67643C 0.586556 5.67643 0.388515 5.61118 0.256489 5.48069C -0.0735779 5.15446 -0.0735769 4.63249 0.190476 3.84953C 0.45453 3.19707 0.982639 2.41412 1.64277 1.69641C 3.02905 0.260986 5.07546 -4.9779e-07 5.14148 -4.9779e-07L 5.40553 -4.9779e-07L 5.40553 0.260986C 5.40553 0.326232 5.33952 2.41411 3.95324 3.84953C 3.29311 4.56724 2.56695 5.08921 1.90682 5.41544C 1.51074 5.54594 1.11466 5.67643 0.850609 5.67643ZM 4.94344 0.391479C 4.34932 0.521972 2.89702 0.913448 1.90682 1.95739C 1.3127 2.60985 0.784596 3.32756 0.520543 3.98003C 0.322503 4.56724 0.256491 4.95872 0.454531 5.15446C 0.652571 5.3502 1.11467 5.28495 1.64277 5.02397C 2.23689 4.69774 2.96303 4.17577 3.55715 3.5233C 4.61337 2.41411 4.87742 0.978696 4.94344 0.391479Z"/>
    </defs>
</svg>