<svg width="1024" height="340" viewBox="0 0 1024 340" version="1.1" xmlns="http://www.w3.org/2000/svg" xmlns:xlink="http://www.w3.org/1999/xlink">
<title>Group</title>
<desc>Created using Figma</desc>
<g id="Canvas" transform="translate(-9515 297)">
<g id="Group">
<g id="Group">
<g id="Group">
<g id="Group">
<g id="Vector">
<use xlink:href="#path0_fill" transform="translate(9785.92 -255.59)" fill="#FFFFFF"/>
</g>
<g id="Vector">
<use xlink:href="#path1_fill" transform="translate(9785.74 -256.139)"/>
</g>
</g>
<g id="Group">
<g id="Vector">
<use xlink:href="#path2_fill" transform="translate(9740.35 -262.584)" fill="#FFFFFF"/>
</g>
<g id="Vector">
<use xlink:href="#path3_fill" transform="translate(9739.7 -263.053)"/>
</g>
</g>
<g id="Group">
<g id="Vector">
<use xlink:href="#path4_fill" transform="translate(9735.55 -263.123)" fill="#F2994A"/>
</g>
<g id="Vector">
<use xlink:href="#path5_fill" transform="translate(9733.76 -264.827)"/>
</g>
</g>
<g id="Group">
<g id="Group">
<g id="Vector">
<use xlink:href="#path6_fill" transform="matrix(0.929449 -0.36893 0.36867 0.929551 9715.41 -224.631)"/>
</g>
<g id="Vector">
<use xlink:href="#path7_fill" transform="translate(9725.21 -240.605)"/>
</g>
</g>
<g id="Group">
<g id="Vector">
<use xlink:href="#path8_fill" transform="matrix(0.929449 -0.36893 0.36867 0.929551 9728.67 -218.876)" fill="#8E8E8E"/>
</g>
<g id="Vector">
<use xlink:href="#path9_fill" transform="translate(9735.5 -230.486)"/>
</g>
</g>
<g id="Group">
<g id="Vector">
<use xlink:href="#path10_fill" transform="matrix(0.929449 -0.36893 0.36867 0.929551 9752.29 -208.395)"/>
</g>
<g id="Vector">
<use xlink:href="#path11_fill" transform="translate(9753.65 -211.87)"/>
</g>
</g>
</g>
<g id="Group">
<g id="Group">
<g id="Vector">
<use xlink:href="#path12_fill" transform="matrix(0.929449 -0.36893 0.36867 0.929551 9830.67 -228.577)"/>
</g>
<g id="Vector">
<use xlink:href="#path13_fill" transform="translate(9834.66 -236.125)"/>
</g>
</g>
<g id="Group">
<g id="Vector">
<use xlink:href="#path14_fill" transform="matrix(0.929449 -0.36893 0.36867 0.929551 9840.96 -224.156)" fill="#8E8E8E"/>
</g>
<g id="Vector">
<use xlink:href="#path15_fill" transform="translate(9842.73 -228.181)"/>
</g>
</g>
</g>
<g id="Group">
<g id="Vector">
<use xlink:href="#path16_fill" transform="matrix(0.929449 -0.36893 0.36867 0.929551 9806.32 -283.653)" fill="#F2994A"/>
</g>
<g id="Vector">
<use xlink:href="#path17_fill" transform="translate(9805.41 -286.538)"/>
</g>
</g>
<g id="Group">
<g id="Vector">
<use xlink:href="#path18_fill" transform="matrix(0.929449 -0.36893 0.36867 0.929551 9801.95 -287.814)" fill="#F2994A"/>
</g>
<g id="Vector">
<use xlink:href="#path19_fill" transform="translate(9801.2 -292.582)"/>
</g>
</g>
<g id="Group">
<g id="Group">
<g id="Vector">
<use xlink:href="#path20_fill" transform="translate(9753.98 -248.173)" fill="#FFFFFF"/>
</g>
<g id="Vector">
<use xlink:href="#path21_fill" transform="translate(9753.52 -248.448)"/>
</g>
</g>
<g id="Group">
<g id="Vector">
<use xlink:href="#path22_fill" transform="translate(9733.37 -285.824)" fill="#FCB085"/>
</g>
<g id="Vector">
<use xlink:href="#path23_fill" transform="translate(9732.8 -286.465)"/>
</g>
</g>
<g id="Group">
<g id="Vector">
<use xlink:href="#path24_fill" transform="translate(9728.08 -283.592)" fill="#FCB085"/>
</g>
<g id="Vector">
<use xlink:href="#path25_fill" transform="translate(9727.43 -284.242)"/>
</g>
</g>
<g id="Group">
<g id="Vector">
<use xlink:href="#path26_fill" transform="translate(9757.46 -296.401)" fill="#FCB085"/>
</g>
<g id="Vector">
<use xlink:href="#path27_fill" transform="translate(9757.09 -297)"/>
</g>
</g>
<g id="Group">
<g id="Vector">
<use xlink:href="#path28_fill" transform="translate(9762.58 -273.005)" fill="#FCB085"/>
</g>
<g id="Vector">
<use xlink:href="#path29_fill" transform="translate(9762.58 -273.469)"/>
</g>
</g>
<g id="Group">
<g id="Vector">
<use xlink:href="#path30_fill" transform="translate(9779.57 -273.831)" fill="#FCB085"/>
</g>
<g id="Vector">
<use xlink:href="#path31_fill" transform="translate(9778.9 -274.401)"/>
</g>
</g>
<g id="Group">
<g id="Vector">
<use xlink:href="#path32_fill" transform="matrix(0.929449 -0.36893 0.36867 0.929551 9753.93 -269.167)"/>
</g>
<g id="Vector">
<use xlink:href="#path33_fill" transform="translate(9753.82 -270.492)"/>
</g>
</g>
<g id="Group">
<g id="Vector">
<use xlink:href="#path34_fill" transform="matrix(0.929449 -0.36893 0.36867 0.929551 9770.32 -277.467)"/>
</g>
<g id="Vector">
<use xlink:href="#path35_fill" transform="translate(9770.29 -278.825)"/>
</g>
</g>
<g id="Group">
<g id="Group">
<g id="Vector">
<use xlink:href="#path36_fill" transform="translate(9782.15 -269.679)"/>
</g>
</g>
</g>
<g id="Group">
<g id="Group">
<g id="Vector">
<use xlink:href="#path37_fill" transform="translate(9784.59 -271.968)"/>
</g>
</g>
</g>
</g>
<g id="Group">
<g id="Vector">
<use xlink:href="#path38_fill" transform="matrix(0.929449 -0.36893 0.36867 0.929551 9780.16 -244.596)" fill="#FCB085"/>
</g>
<g id="Vector">
<use xlink:href="#path39_fill" transform="translate(9780.67 -247.556)"/>
</g>
</g>
<g id="Group">
<g id="Vector">
<use xlink:href="#path40_fill" transform="matrix(0.929449 -0.36893 0.36867 0.929551 9788.33 -250.088)" fill="#FCB085"/>
</g>
<g id="Vector">
<use xlink:href="#path41_fill" transform="translate(9788.33 -251.91)"/>
</g>
</g>
</g>
<g id="Vector">
<use xlink:href="#path42_fill" transform="translate(9515 -239.893)" fill="#F2994A"/>
</g>
<g id="Group">
<g id="Group">
<g id="Group">
<g id="Vector">
<use xlink:href="#path43_fill" transform="translate(9622.25 -227.113)" fill="#F2994A"/>
</g>
</g>
<g id="Group">
<g id="Vector">
<use xlink:href="#path44_fill" transform="translate(9631.78 -221.898)" fill="#F2994A"/>
</g>
</g>
</g>
<g id="Group">
<g id="Vector">
<use xlink:href="#path45_fill" transform="matrix(0.227912 -0.973721 0.973679 0.228088 9619.24 -166.78)" fill="#F2994A"/>
</g>
</g>
<g id="Group">
<g id="Vector">
<use xlink:href="#path46_fill" transform="translate(9630.88 -235.171)" fill="#F2994A"/>
</g>
</g>
<g id="Group">
<g id="Group">
<g id="Vector">
<use xlink:href="#path47_fill" transform="translate(9619.68 -216.309)" fill="#F2994A"/>
</g>
</g>
<g id="Group">
<g id="Vector">
<use xlink:href="#path48_fill" transform="translate(9629.22 -211.002)" fill="#F2994A"/>
</g>
</g>
</g>
<g id="Group">
<g id="Group">
<g id="Vector">
<use xlink:href="#path49_fill" transform="translate(9617.12 -205.413)" fill="#F2994A"/>
</g>
</g>
<g id="Group">
<g id="Vector">
<use xlink:href="#path50_fill" transform="translate(9626.75 -200.198)" fill="#F2994A"/>
</g>
</g>
</g>
<g id="Group">
<g id="Group">
<g id="Vector">
<use xlink:href="#path51_fill" transform="translate(9614.56 -194.517)" fill="#F2994A"/>
</g>
</g>
<g id="Group">
<g id="Vector">
<use xlink:href="#path52_fill" transform="translate(9624.18 -189.301)" fill="#F2994A"/>
</g>
</g>
</g>
</g>
<g id="Group">
<g id="Group">
<g id="Group">
<g id="Vector">
<use xlink:href="#path53_fill" transform="translate(9591.11 -218.598)" fill="#F2994A"/>
</g>
</g>
<g id="Group">
<g id="Vector">
<use xlink:href="#path54_fill" transform="translate(9598.19 -214.51)" fill="#F2994A"/>
</g>
</g>
</g>
<g id="Group">
<g id="Vector">
<use xlink:href="#path55_fill" transform="matrix(0.227912 -0.973721 0.973679 0.228088 9588.94 -173.893)" fill="#F2994A"/>
</g>
</g>
<g id="Group">
<g id="Vector">
<use xlink:href="#path56_fill" transform="translate(9597.48 -224.55)" fill="#F2994A"/>
</g>
</g>
<g id="Group">
<g id="Group">
<g id="Vector">
<use xlink:href="#path57_fill" transform="translate(9589.19 -210.54)" fill="#F2994A"/>
</g>
</g>
<g id="Group">
<g id="Vector">
<use xlink:href="#path58_fill" transform="translate(9596.36 -206.544)" fill="#F2994A"/>
</g>
</g>
</g>
<g id="Group">
<g id="Group">
<g id="Vector">
<use xlink:href="#path59_fill" transform="translate(9587.36 -202.483)" fill="#F2994A"/>
</g>
</g>
<g id="Group">
<g id="Vector">
<use xlink:href="#path60_fill" transform="translate(9594.44 -198.486)" fill="#F2994A"/>
</g>
</g>
</g>
<g id="Group">
<g id="Group">
<g id="Vector">
<use xlink:href="#path61_fill" transform="translate(9585.44 -194.425)" fill="#F2994A"/>
</g>
</g>
<g id="Group">
<g id="Vector">
<use xlink:href="#path62_fill" transform="translate(9592.61 -190.428)" fill="#F2994A"/>
</g>
</g>
</g>
</g>
<g id="Group">
<g id="Group">
<g id="Group">
<g id="Vector">
<use xlink:href="#path63_fill" transform="translate(9651.7 -204.406)" fill="#F2994A"/>
</g>
</g>
<g id="Group">
<g id="Vector">
<use xlink:href="#path64_fill" transform="translate(9658.79 -200.317)" fill="#F2994A"/>
</g>
</g>
</g>
<g id="Group">
<g id="Vector">
<use xlink:href="#path65_fill" transform="matrix(0.227912 -0.973721 0.973679 0.228088 9649.53 -159.692)" fill="#F2994A"/>
</g>
</g>
<g id="Group">
<g id="Vector">
<use xlink:href="#path66_fill" transform="translate(9658.07 -210.357)" fill="#F2994A"/>
</g>
</g>
<g id="Group">
<g id="Group">
<g id="Vector">
<use xlink:href="#path67_fill" transform="translate(9649.78 -196.348)" fill="#F2994A"/>
</g>
</g>
<g id="Group">
<g id="Vector">
<use xlink:href="#path68_fill" transform="translate(9656.95 -192.351)" fill="#F2994A"/>
</g>
</g>
</g>
<g id="Group">
<g id="Group">
<g id="Vector">
<use xlink:href="#path69_fill" transform="translate(9647.95 -188.29)" fill="#F2994A"/>
</g>
</g>
<g id="Group">
<g id="Vector">
<use xlink:href="#path70_fill" transform="translate(9655.03 -184.294)" fill="#F2994A"/>
</g>
</g>
</g>
<g id="Group">
<g id="Group">
<g id="Vector">
<use xlink:href="#path71_fill" transform="translate(9646.03 -180.233)" fill="#F2994A"/>
</g>
</g>
<g id="Group">
<g id="Vector">
<use xlink:href="#path72_fill" transform="translate(9653.2 -176.236)" fill="#F2994A"/>
</g>
</g>
</g>
</g>
<g id="Group">
<g id="Group">
<g id="Group">
<g id="Group">
<g id="Vector">
<use xlink:href="#path73_fill" transform="translate(10333.9 -204.863)" fill="#F2994A"/>
</g>
</g>
<g id="Group">
<g id="Vector">
<use xlink:href="#path74_fill" transform="translate(10346.2 -205.138)" fill="#F2994A"/>
</g>
</g>
</g>
<g id="Group">
<g id="Vector">
<use xlink:href="#path75_fill" transform="matrix(0.9999 -0.0138466 0.0138466 0.9999 10345.2 -157.237)" fill="#F2994A"/>
</g>
</g>
<g id="Group">
<g id="Vector">
<use xlink:href="#path76_fill" transform="translate(10342.2 -216.126)" fill="#F2994A"/>
</g>
</g>
<g id="Group">
<g id="Group">
<g id="Vector">
<use xlink:href="#path77_fill" transform="translate(10334 -193.693)" fill="#F2994A"/>
</g>
</g>
<g id="Group">
<g id="Vector">
<use xlink:href="#path78_fill" transform="translate(10346.3 -193.967)" fill="#F2994A"/>
</g>
</g>
</g>
<g id="Group">
<g id="Group">
<g id="Vector">
<use xlink:href="#path79_fill" transform="translate(10334.2 -182.522)" fill="#F2994A"/>
</g>
</g>
<g id="Group">
<g id="Vector">
<use xlink:href="#path80_fill" transform="translate(10346.4 -182.797)" fill="#F2994A"/>
</g>
</g>
</g>
<g id="Group">
<g id="Group">
<g id="Vector">
<use xlink:href="#path81_fill" transform="translate(10334.3 -171.351)" fill="#F2994A"/>
</g>
</g>
<g id="Group">
<g id="Vector">
<use xlink:href="#path82_fill" transform="translate(10346.6 -171.626)" fill="#F2994A"/>
</g>
</g>
</g>
</g>
<g id="Group">
<g id="Group">
<g id="Group">
<g id="Vector">
<use xlink:href="#path83_fill" transform="translate(10305.8 -189.023)" fill="#F2994A"/>
</g>
</g>
<g id="Group">
<g id="Vector">
<use xlink:href="#path84_fill" transform="translate(10314.7 -189.114)" fill="#F2994A"/>
</g>
</g>
</g>
<g id="Group">
<g id="Vector">
<use xlink:href="#path85_fill" transform="matrix(0.9999 -0.0138466 0.0138466 0.9999 10314.1 -153.761)" fill="#F2994A"/>
</g>
</g>
<g id="Group">
<g id="Vector">
<use xlink:href="#path86_fill" transform="translate(10311.9 -197.264)" fill="#F2994A"/>
</g>
</g>
<g id="Group">
<g id="Group">
<g id="Vector">
<use xlink:href="#path87_fill" transform="translate(10305.9 -180.783)" fill="#F2994A"/>
</g>
</g>
<g id="Group">
<g id="Vector">
<use xlink:href="#path88_fill" transform="translate(10314.8 -180.874)" fill="#F2994A"/>
</g>
</g>
</g>
<g id="Group">
<g id="Group">
<g id="Vector">
<use xlink:href="#path89_fill" transform="translate(10306 -172.541)" fill="#F2994A"/>
</g>
</g>
<g id="Group">
<g id="Vector">
<use xlink:href="#path90_fill" transform="translate(10315 -172.633)" fill="#F2994A"/>
</g>
</g>
</g>
<g id="Group">
<g id="Group">
<g id="Vector">
<use xlink:href="#path91_fill" transform="translate(10306.1 -164.209)" fill="#F2994A"/>
</g>
</g>
<g id="Group">
<g id="Vector">
<use xlink:href="#path92_fill" transform="translate(10315.1 -164.392)" fill="#F2994A"/>
</g>
</g>
</g>
</g>
<g id="Group">
<g id="Group">
<g id="Group">
<g id="Vector">
<use xlink:href="#path93_fill" transform="translate(10368 -189.847)" fill="#F2994A"/>
</g>
</g>
<g id="Group">
<g id="Vector">
<use xlink:href="#path94_fill" transform="translate(10377 -190.03)" fill="#F2994A"/>
</g>
</g>
</g>
<g id="Group">
<g id="Vector">
<use xlink:href="#path85_fill" transform="matrix(0.9999 -0.0138466 0.0138466 0.9999 10376.3 -154.677)" fill="#F2994A"/>
</g>
</g>
<g id="Group">
<g id="Vector">
<use xlink:href="#path95_fill" transform="translate(10374.2 -198.088)" fill="#F2994A"/>
</g>
</g>
<g id="Group">
<g id="Group">
<g id="Vector">
<use xlink:href="#path96_fill" transform="translate(10368.1 -181.606)" fill="#F2994A"/>
</g>
</g>
<g id="Group">
<g id="Vector">
<use xlink:href="#path97_fill" transform="translate(10377.1 -181.789)" fill="#F2994A"/>
</g>
</g>
</g>
<g id="Group">
<g id="Group">
<g id="Vector">
<use xlink:href="#path98_fill" transform="translate(10368.2 -173.365)" fill="#F2994A"/>
</g>
</g>
<g id="Group">
<g id="Vector">
<use xlink:href="#path99_fill" transform="translate(10377.2 -173.549)" fill="#F2994A"/>
</g>
</g>
</g>
<g id="Group">
<g id="Group">
<g id="Vector">
<use xlink:href="#path100_fill" transform="translate(10368.3 -165.125)" fill="#F2994A"/>
</g>
</g>
<g id="Group">
<g id="Vector">
<use xlink:href="#path101_fill" transform="translate(10377.3 -165.216)" fill="#F2994A"/>
</g>
</g>
</g>
</g>
</g>
<g id="Group">
<g id="Vector">
<use xlink:href="#path102_fill" transform="matrix(0.9994 -0.0332229 0.0331959 0.9994 10390 -269.874)" fill="#F2994A"/>
</g>
<g id="Vector">
<use xlink:href="#path103_fill" transform="translate(10340.9 -264.655)" fill="#F2994A"/>
</g>
<g id="Vector">
<use xlink:href="#path104_fill" transform="matrix(0.9994 -0.0332229 0.0331959 0.9994 10390.5 -255.191)"/>
</g>
</g>
</g>
</g>
</g>
<defs>
<path id="path0_fill" d="M 0 6.98577e-07C 2.92885 0.824076 5.67465 2.38066 7.77976 4.5782C 8.05434 4.85289 8.32893 5.21914 8.32893 5.5854C 8.32893 5.95165 7.96281 6.22634 7.68823 6.40947C 5.67465 7.78293 2.83732 7.78293 0.823734 6.40947"/>
<path id="path1_fill" d="M 7.04755 8.14918C 5.03396 8.97326 2.56275 8.79013 0.732219 7.50824L 1.37289 6.50104C 3.20342 7.69137 5.76618 7.69137 7.50518 6.50104C 7.87129 6.22634 7.87128 6.13478 7.87128 6.13478C 7.87128 6.04322 7.77976 5.86009 7.50518 5.5854C 5.40007 3.47943 2.83731 1.92284 -1.11727e-05 1.19033L 0.366118 -1.39715e-06C 3.3865 0.824073 6.22381 2.47222 8.42045 4.76132C 8.6035 4.94445 9.15265 5.49383 9.15265 6.22635C 9.06113 6.95886 8.42044 7.41667 8.23739 7.50824C 7.87128 7.69136 7.41366 7.96606 7.04755 8.14918Z"/>
<path id="path2_fill" d="M 2.09587 29.4276C 2.5535 30.4348 3.10266 31.442 3.9264 32.1745C 5.11625 33.0901 6.6722 33.1817 8.22815 33.1817C 20.6758 33.3648 33.1234 28.6951 42.4591 20.4543C 44.5642 18.5315 46.6693 16.3339 47.0354 13.4954C 47.31 11.9389 46.9439 10.3823 46.4863 8.82569C 45.6625 6.17034 44.1981 3.60655 42.0015 1.9584C 39.9879 0.401815 37.1506 -0.422261 34.6794 0.218686C 34.4048 0.31025 34.1302 0.58494 34.1302 0.951196C 34.1302 0.951196 19.0283 10.4738 10.8824 10.657C -1.10756 10.8401 -1.74825 20.729 2.09587 29.4276Z"/>
<path id="path3_fill" d="M 28.4578 30.6284C 22.234 33.1006 15.5525 34.3825 8.87107 34.291C 7.22359 34.291 5.57612 34.1078 4.20322 33.1006C 3.19643 32.3681 2.64726 31.2694 2.18962 30.1706C -0.464649 24.1274 -0.739226 18.6336 1.54894 15.0626C 3.37947 12.1325 6.76597 10.5759 11.5254 10.5759C 18.939 10.4844 32.3934 2.33518 34.3155 1.14485C 34.407 0.687035 34.7731 0.320779 35.2307 0.229215C 37.7935 -0.411732 40.7223 0.320779 43.102 2.06049C 45.2072 3.70864 46.7631 6.18087 47.7699 9.29404C 48.3191 11.1253 48.5021 12.7735 48.319 14.2385C 47.8614 17.3517 45.4817 19.7323 43.5597 21.5636C 39.0749 25.3177 33.9494 28.4309 28.4578 30.6284ZM 3.28795 29.7128C 3.74559 30.6284 4.20322 31.6356 5.02696 32.185C 6.12528 33.0091 7.5897 33.1006 8.9626 33.1006C 21.2272 33.2838 33.5833 28.7056 42.7359 20.5564C 44.5665 18.9082 46.7631 16.7107 47.1292 13.9638C 47.3123 12.6819 47.1292 11.3084 46.58 9.56873C 45.6648 6.73025 44.2004 4.44115 42.2783 2.97613C 40.2647 1.41955 37.702 0.778599 35.5053 1.32798C 35.4138 1.32798 35.4138 1.41954 35.4138 1.41954L 35.4138 1.69424L 35.1392 1.87736C 34.4985 2.24362 19.7627 11.4916 11.5254 11.6747C 7.2236 11.7663 4.20322 13.0482 2.55574 15.6119C 0.542153 18.9082 0.816735 24.1274 3.28795 29.7128Z"/>
<path id="path4_fill" d="M 106.562 35.3686L 20.6184 69.5219C 15.0353 71.7194 8.62841 68.9725 6.34025 63.3871L 0.757132 49.1947C -1.43951 43.6093 1.30629 37.1999 6.88941 34.9108L 92.8329 0.757437C 98.416 -1.4401 104.823 1.30682 107.111 6.89222L 112.694 21.0846C 114.891 26.7616 112.145 33.171 106.562 35.3686Z"/>
<path id="path5_fill" d="M 112.11 36.2487L 19.0269 73.2405C 15.0913 74.7971 10.515 72.8742 8.959 68.8454L 0.538552 47.6026C -1.0174 43.6654 0.904647 39.0872 4.93182 37.5306L 97.9229 0.538766C 101.859 -1.01782 106.435 0.905021 107.991 4.93383L 116.411 26.1767C 118.059 30.1139 116.045 34.6921 112.11 36.2487ZM 5.29793 38.6293C 1.91145 40.0028 0.263969 43.7569 1.63687 47.1448L 10.0573 68.3876C 11.4302 71.7755 15.1828 73.4236 18.5693 72.0502L 111.652 35.1499C 115.038 33.7765 116.686 30.0223 115.313 26.6345L 106.892 5.39165C 105.52 2.00379 101.767 0.355638 98.3805 1.7291L 5.29793 38.6293Z"/>
<path id="path6_fill" d="M 35.0567 70.1341C 54.4179 70.1341 70.1133 54.434 70.1133 35.067C 70.1133 15.7 54.4179 0 35.0567 0C 15.6954 0 -5.58665e-06 15.7 -5.58665e-06 35.067C -5.58665e-06 54.434 15.6954 70.1341 35.0567 70.1341Z"/>
<path id="path7_fill" d="M 48.8152 68.8875C 30.5098 76.1211 9.73329 67.1478 2.50269 48.835C -4.72792 30.5223 4.2417 9.73726 22.547 2.50371C 40.8524 -4.72983 61.6289 4.24342 68.8595 22.5562C 76.0901 40.869 67.1205 61.5624 48.8152 68.8875ZM 23.0047 3.60248C 5.34002 10.6529 -3.35501 30.7054 3.69254 48.3772C 10.7401 66.049 30.7844 74.7476 48.4491 67.6972C 66.1137 60.6468 74.8087 40.5943 67.7612 22.9225C 60.7136 5.25063 40.6693 -3.44794 23.0047 3.60248Z"/>
<path id="path8_fill" d="M 24.9881 49.9911C 38.7887 49.9911 49.9763 38.8002 49.9763 24.9956C 49.9763 11.1909 38.7887 2.79415e-06 24.9881 2.79415e-06C 11.1876 2.79415e-06 5.58665e-06 11.1909 5.58665e-06 24.9956C 5.58665e-06 38.8002 11.1876 49.9911 24.9881 49.9911Z"/>
<path id="path9_fill" d="M 35.0394 49.4292C 21.9511 54.6483 7.03221 48.2388 1.81519 35.0536C -3.40182 21.96 3.00505 7.03508 16.1849 1.81594C 29.2732 -3.4032 44.192 3.00627 49.409 16.1915C 54.6261 29.2851 48.2192 44.21 35.0394 49.4292ZM 16.6425 2.91471C 4.10337 7.85916 -2.02891 22.1431 2.91352 34.5958C 7.85596 47.1401 22.1341 53.2748 34.5817 48.3304C 47.1209 43.3859 53.2532 29.102 48.3107 16.6493C 43.3683 4.10504 29.0901 -2.02974 16.6425 2.91471Z"/>
<path id="path10_fill" d="M 6.59029 13.1845C 10.23 13.1845 13.1806 10.233 13.1806 6.59224C 13.1806 2.95145 10.23 0 6.59029 0C 2.95058 0 -5.58665e-06 2.95145 -5.58665e-06 6.59224C -5.58665e-06 10.233 2.95058 13.1845 6.59029 13.1845Z"/>
<path id="path11_fill" d="M 9.84125 13.8741C 6.18019 15.3391 1.96995 13.5078 0.505525 9.84525C -0.958901 6.1827 0.871654 1.97076 4.53272 0.505742C 8.19378 -0.95928 12.404 0.871999 13.8684 4.53455C 15.3328 8.19711 13.5023 12.409 9.84125 13.8741ZM 4.89882 1.60451C 1.78691 2.79484 0.322477 6.36583 1.51232 9.38743C 2.70217 12.409 6.27171 13.9656 9.29209 12.7753C 12.404 11.585 13.8684 8.01398 12.6786 4.99237C 11.4887 1.8792 8.01073 0.322611 4.89882 1.60451Z"/>
<path id="path12_fill" d="M 15.6519 31.3131C 24.2962 31.3131 31.3039 24.3034 31.3039 15.6566C 31.3039 7.00968 24.2962 -2.79415e-06 15.6519 -2.79415e-06C 7.00761 -2.79415e-06 0 7.00968 0 15.6566C 0 24.3034 7.00761 31.3131 15.6519 31.3131Z"/>
<path id="path13_fill" d="M 22.2789 31.4444C 13.95 34.7407 4.43124 30.6203 1.13628 22.288C -2.15868 13.9557 1.96002 4.43304 10.2889 1.13674C 18.6179 -2.15956 28.1366 1.96081 31.4316 10.2931C 34.7266 18.717 30.6079 28.1481 22.2789 31.4444ZM 10.7466 2.32707C 3.05834 5.34868 -0.785791 14.1388 2.32611 21.9217C 5.34649 29.6131 14.1331 33.4588 21.9128 30.3456C 29.6011 27.324 33.4452 18.5339 30.3333 10.7509C 27.2214 3.05958 18.4348 -0.786099 10.7466 2.32707Z"/>
<path id="path14_fill" d="M 7.78021 15.565C 12.0771 15.565 15.5604 12.0807 15.5604 7.7825C 15.5604 3.48435 12.0771 2.79415e-06 7.78021 2.79415e-06C 3.48332 2.79415e-06 1.11733e-05 3.48435 1.11733e-05 7.7825C 1.11733e-05 12.0807 3.48332 15.565 7.78021 15.565Z"/>
<path id="path15_fill" d="M 11.4632 16.2671C 7.16148 18.0068 2.21905 15.9008 0.571568 11.5057C -1.07591 7.11067 0.937657 2.25779 5.33094 0.60964C 9.63269 -1.13007 14.5751 0.975893 16.2226 5.37096C 17.8701 9.67446 15.765 14.5273 11.4632 16.2671ZM 5.69704 1.7084C 2.03597 3.17343 0.205445 7.38537 1.66987 11.1395C 3.1343 14.802 7.34454 16.6333 11.0971 15.1683C 14.7582 13.7033 16.5887 9.49133 15.1243 5.73722C 13.5683 2.07466 9.3581 0.243382 5.69704 1.7084Z"/>
<path id="path16_fill" d="M 5.85803 0L 1.11733e-05 0L 1.11733e-05 28.017L 5.85803 28.017L 5.85803 0Z"/>
<path id="path17_fill" d="M 17.39 27.1029L 10.8001 29.6667L -1.11727e-05 2.56379L 6.58992 -3.49288e-07L 17.39 27.1029ZM 11.5323 28.1101L 15.8341 26.3704L 6.04075 1.46502L 1.73902 3.20474L 11.5323 28.1101Z"/>
<path id="path18_fill" d="M 10.8923 0L 1.11733e-05 0L 1.11733e-05 5.40197L 10.8923 5.40197L 10.8923 0Z"/>
<path id="path19_fill" d="M 13.6375 6.13478L 2.47121 10.6214L 1.11727e-05 4.48663L 11.1662 1.74644e-07L 13.6375 6.13478ZM 3.11191 9.06482L 12.0815 5.49383L 10.5256 1.55659L 1.55595 5.12758L 3.11191 9.06482Z"/>
<path id="path20_fill" d="M 5.58634e-06 5.49383C 2.7458 11.3539 5.76618 14.8334 12.2646 15.1996C 18.763 15.6574 24.163 12.2696 31.0275 8.14919C 32.2174 7.41667 35.1462 6.68416 35.6039 5.40227C 36.153 4.12037 36.0615 2.56379 35.2378 1.46502C 32.1259 0.732512 29.1055 2.56379 26.0851 3.57099C 20.7766 5.31071 17.3901 3.38786 12.9053 -6.98577e-07"/>
<path id="path21_fill" d="M 21.4172 14.5587C 18.5799 15.6574 15.7426 16.2984 12.7222 16.1152C 5.8577 15.6574 2.65428 11.7202 5.58634e-06 6.04321L 1.09831 5.5854C 3.66105 11.0792 6.4984 14.5587 12.8137 15.0165C 18.946 15.3827 24.0715 12.3611 30.6614 8.42388L 31.3021 8.05762C 31.6682 7.78293 32.2174 7.5998 32.8581 7.32511C 33.9564 6.86729 35.4208 6.22634 35.6954 5.5854C 36.153 4.39506 36.0615 3.20473 35.5123 2.38066C 33.4072 2.0144 31.3936 2.83848 29.197 3.66256C 28.4648 3.93725 27.7326 4.3035 26.9088 4.48663C 21.1427 6.40947 17.4816 4.12037 13.1798 0.915639L 13.912 -6.50601e-15C 18.6714 3.57099 21.7833 5.03601 26.5427 3.47943C 27.2749 3.20474 28.0071 2.93005 28.7394 2.65535C 31.1191 1.73972 33.4987 0.732511 35.97 1.37346L 36.153 1.46502L 36.2446 1.64815C 37.1598 2.83848 37.2514 4.57819 36.7022 6.22634C 36.2446 7.32511 34.6886 8.05762 33.2242 8.60701C 32.675 8.79013 32.2174 9.06482 31.8513 9.24795L 31.2106 9.61421C 27.6411 11.537 24.5291 13.3683 21.4172 14.5587Z"/>
<path id="path22_fill" d="M 3.12387 27.8539C 2.11708 26.2973 0.561129 21.6275 0.195022 19.7963C -0.445664 17.2325 0.561126 14.394 2.20861 12.4712C 3.85608 10.5483 6.14425 9.08329 8.43242 7.89296C 14.6562 4.59666 21.3377 2.12444 28.2022 0.567855C 30.3988 0.110036 32.7785 -0.347783 34.8836 0.384728C 38.8193 1.66662 40.8328 6.06169 42.4803 9.90737C 43.8532 13.2037 45.2261 16.9578 43.8532 20.1625C 42.938 22.3601 40.9244 23.9166 38.9108 25.1985C 32.3209 29.502 24.9072 32.5237 17.219 34.3549C 14.3816 34.9959 10.263 36.5525 7.97479 34.7212C 6.05273 33.1646 4.77135 30.2346 3.12387 27.8539Z"/>
<path id="path23_fill" d="M 28.0373 32.5236C 24.8339 33.8055 21.4474 34.8127 18.0609 35.6368C 17.6033 35.7284 17.1456 35.8199 16.688 36.0031C 13.9422 36.7356 10.5557 37.5597 8.35907 35.9115C 6.80311 34.6296 5.61326 32.7983 4.51494 30.8755C 4.0573 30.143 3.6912 29.502 3.23357 28.7695C 2.13525 27.1214 0.579295 22.2685 0.213189 20.5288C -0.427498 17.965 0.39625 15.0349 2.40984 12.6543C 4.14884 10.5483 6.52853 9.17486 8.8167 7.89297C 15.132 4.59667 21.8135 2.12444 28.7695 0.567855C 30.9661 0.110036 33.4374 -0.347784 35.8171 0.384727C 39.9358 1.75819 42.1324 6.24482 43.7799 10.2736C 45.2443 13.8446 46.5257 17.5987 45.1528 20.9866C 44.146 23.3673 42.1324 24.9238 40.0273 26.2973C 36.1832 28.8611 32.156 30.8755 28.0373 32.5236ZM 4.14884 28.1286C 4.60647 28.8611 5.0641 29.502 5.52174 30.2345C 6.62006 32.0658 7.71837 33.8055 9.09127 34.9043C 10.8303 36.2778 13.8507 35.4537 16.3219 34.8127C 16.7795 34.7212 17.3287 34.538 17.7863 34.4465C 25.4745 32.7068 32.7051 29.6852 39.2035 25.3817C 41.1256 24.0998 43.0476 22.6347 43.8714 20.6203C 45.0612 17.6903 43.8714 14.1193 42.4985 10.823C 40.9425 6.97733 38.929 2.85695 35.2679 1.57506C 33.1628 0.93411 30.8746 1.30037 28.861 1.75819C 21.9965 3.31477 15.4066 5.69543 9.1828 8.99173C 6.98616 10.1821 4.69799 11.464 3.14204 13.3868C 1.40303 15.4928 0.670828 18.0566 1.21999 20.2541C 1.76915 22.2685 3.23357 26.7551 4.14884 28.1286Z"/>
<path id="path24_fill" d="M 5.40007 15.641C 3.93564 15.5494 2.65427 14.3591 2.01359 12.9857C 1.3729 11.6122 1.18984 10.1472 1.00679 8.59059C 0.640681 5.75211 0.366109 2.91363 2.79317e-06 0.16671C 1.46443 -0.382674 3.02038 0.532965 4.39328 1.35704C 6.95603 3.09675 9.61029 4.7449 11.8069 6.94244C 12.9053 7.94964 13.8205 9.13997 14.7358 10.3303"/>
<path id="path25_fill" d="M 6.04076 16.8405C 4.4848 16.7489 2.92885 15.5586 2.10511 13.9104C 1.37289 12.4454 1.18984 10.7973 1.00679 9.33223L 5.58634e-06 0.358974L 0.457639 0.175847C 2.10512 -0.373537 3.75259 0.450538 5.30854 1.45774C 7.87128 3.10589 10.5256 4.8456 12.8137 7.04314C 13.9121 8.05034 14.9188 9.24067 15.8341 10.5226L 14.8273 11.2551C 14.0036 10.0647 12.9968 8.96598 11.99 7.95878C 9.79335 5.85281 7.13907 4.11309 4.66786 2.46494C 3.56954 1.73243 2.37969 1.09148 1.28137 1.18305L 2.19664 9.14911C 2.37969 10.6141 2.56275 12.0792 3.20344 13.361C 3.7526 14.3682 4.75939 15.5586 6.13229 15.6501L 6.04076 16.8405Z"/>
<path id="path26_fill" d="M -5.58634e-06 12.243C 1.46442 12.3345 2.19663 10.5032 2.19663 9.03822C 2.28815 6.29131 1.64747 3.45283 0.366095 0.980603C 2.1051 -0.667547 4.94244 -0.0265997 6.95602 1.34686C 10.0679 3.36126 12.2646 6.74913 12.9053 10.4117"/>
<path id="path27_fill" d="M 13.8205 10.9194L 12.6307 11.1025C 12.0815 7.62312 9.97641 4.32682 6.95603 2.40398C 5.30855 1.30521 2.92886 0.664267 1.46443 1.76303C 2.65428 4.23526 3.20343 6.98217 3.1119 9.63753C 3.1119 10.6447 2.7458 12.1098 1.83053 12.8423C 1.3729 13.2085 0.823729 13.4832 0.274569 13.3916L 0.366101 12.2013C 0.640681 12.2013 0.823751 12.1098 1.09833 11.9266C 1.55596 11.4688 1.92206 10.5532 1.92206 9.54596C 2.01359 6.89061 1.37291 4.14369 0.183064 1.76303L -1.04054e-13 1.39678L 0.366101 1.12209C 2.37969 -0.709191 5.49159 -0.0682442 7.68823 1.39678C 10.8917 3.59431 13.1798 7.07374 13.8205 10.9194Z"/>
<path id="path28_fill" d="M 6.58993 1.11673C 10.8917 3.40582 15.5595 2.03237 20.1359 0.475781C 20.8681 0.201089 21.6003 -0.0736027 22.3325 0.0179612C 24.3461 0.292653 23.5223 3.03957 22.3325 4.68772C 21.1426 6.33587 20.2274 6.79369 18.3969 7.61776C 15.7426 8.89966 13.3629 10.1816 9.9764 10.9141C 6.68144 11.6466 3.29496 12.4706 0 11.7381"/>
<path id="path29_fill" d="M 14.0036 10.9199C 12.9052 11.3777 11.6239 11.744 10.251 12.1103L 9.70183 12.2018C 6.4984 12.9343 3.20343 13.6668 5.20269e-14 12.9343L 0.274569 11.744C 3.29495 12.3849 6.40686 11.744 9.51876 11.0115L 10.0679 10.9199C 12.8137 10.279 14.9189 9.27177 17.1155 8.26457C 17.4816 8.08144 17.9392 7.89831 18.3969 7.62362L 18.4884 7.62362C 20.2274 6.79954 21.0511 6.43329 22.1495 4.8767C 22.9732 3.68637 23.4308 2.22135 23.1562 1.5804C 23.0647 1.39728 22.9732 1.21415 22.5156 1.21415C 21.9664 1.12258 21.4172 1.30571 20.7766 1.5804L 20.5935 1.67197C 15.6511 3.32012 10.8917 4.60201 6.58993 2.22135L 7.13907 1.12258C 11.0747 3.22855 15.3765 2.03822 20.2274 0.481639L 20.4104 0.390074C 21.0511 0.115383 21.8749 -0.0677447 22.6986 0.0238192C 23.7054 0.115383 24.0715 0.664765 24.2546 1.12258C 24.8037 2.40448 24.0715 4.32732 23.0647 5.60921C 21.7833 7.34893 20.7766 7.80675 18.946 8.72239L 18.8545 8.72239C 18.3969 8.90551 18.0307 9.08864 17.6646 9.27177C 16.2917 9.82115 15.1934 10.3705 14.0036 10.9199Z"/>
<path id="path30_fill" d="M 1.31645 1.94263C 0.40118 2.49202 -0.147974 3.68235 0.0350789 4.96424C 0.126606 5.3305 0.218132 5.69675 0.492712 5.97144C 0.675765 6.15457 0.95034 6.3377 1.31645 6.42926C 3.33003 7.16177 5.43514 7.16177 7.26568 6.42926C 7.63178 6.24614 7.90636 6.15457 8.18094 5.78832C 8.45552 5.51363 8.54704 5.05581 8.54704 4.68955C 8.7301 3.31609 8.364 1.85107 7.35721 0.843868C 6.44194 -0.163334 4.97752 -0.163335 3.78768 0.294485L 3.60461 0.386049C 3.33003 0.386049 3.05545 0.569177 3.05545 0.843868L 1.86561 1.57638C 1.77409 1.57638 1.68255 1.66794 1.68255 1.66794L 1.31645 1.94263Z"/>
<path id="path31_fill" d="M 8.11743 7.54887C 6.10384 8.37294 3.9072 8.37294 1.71057 7.54887C 1.34446 7.4573 0.978347 7.27418 0.703767 6.99948C 0.337661 6.63323 0.154596 6.17541 0.0630697 5.62603C -0.21151 4.161 0.429187 2.60442 1.61903 1.96347L 2.07667 1.78034L 2.1682 1.68878L 3.08347 1.04783C 3.17499 0.864704 3.26651 0.681576 3.44957 0.590012C 3.63262 0.406884 3.81568 0.406885 3.99873 0.315321L 4.09024 0.315321C 5.28008 -0.142498 7.11062 -0.234061 8.30047 0.956269C 9.30726 1.96347 9.85642 3.70318 9.67337 5.25977C 9.58184 5.90072 9.39878 6.35854 9.1242 6.63323C 9.03267 7.18261 8.57506 7.36574 8.11743 7.54887C 8.20896 7.54887 8.20896 7.54887 8.11743 7.54887ZM 2.2597 3.06224C 1.52749 3.42849 1.16138 4.4357 1.34444 5.35134C 1.43596 5.62603 1.52751 5.90072 1.71057 6.08385C 1.80209 6.17541 2.07665 6.26697 2.2597 6.35854C 4.09024 7.09105 6.10382 7.09105 7.7513 6.35854C 7.7513 6.35854 7.75131 6.35854 7.84283 6.35854C 8.11741 6.26697 8.392 6.08385 8.48353 5.90072C 8.57506 5.71759 8.7581 5.4429 8.7581 5.07664C 8.94115 3.79475 8.57504 2.51285 7.7513 1.78034C 6.92756 0.956269 5.64621 1.04783 4.82247 1.41409L 4.45636 1.50565L 4.45636 1.78034L 2.9004 2.69598L 2.2597 3.06224Z"/>
<path id="path32_fill" d="M 1.64756 3.29612C 2.55749 3.29612 3.29515 2.55826 3.29515 1.64806C 3.29515 0.737861 2.55749 0 1.64756 0C 0.737637 0 5.58665e-06 0.737861 5.58665e-06 1.64806C 5.58665e-06 2.55826 0.737637 3.29612 1.64756 3.29612Z"/>
<path id="path33_fill" d="M 3.08944 4.3726C 1.89959 4.83042 0.618239 4.28104 0.160606 3.09071C -0.297028 1.90038 0.252127 0.618485 1.44197 0.160666C 2.63182 -0.297154 3.9132 0.252229 4.37084 1.44256C 4.82847 2.63289 4.18776 3.91479 3.08944 4.3726ZM 1.80807 1.25943C 1.25891 1.44256 0.984351 2.08351 1.1674 2.63289C 1.35046 3.18227 1.99114 3.45696 2.5403 3.27384C 3.08946 3.09071 3.36403 2.44976 3.18097 1.90038C 2.99792 1.351 2.35723 1.0763 1.80807 1.25943Z"/>
<path id="path34_fill" d="M 1.64756 3.29612C 2.55749 3.29612 3.29515 2.55826 3.29515 1.64806C 3.29515 0.73786 2.55749 0 1.64756 0C 0.737631 0 0 0.73786 0 1.64806C 0 2.55826 0.737631 3.29612 1.64756 3.29612Z"/>
<path id="path35_fill" d="M 3.08944 4.3726C 1.89959 4.83042 0.618239 4.28104 0.160606 3.09071C -0.297028 1.90038 0.252127 0.618485 1.44197 0.160665C 2.63182 -0.297154 3.9132 0.252229 4.37084 1.44256C 4.82847 2.63289 4.18776 3.91478 3.08944 4.3726ZM 1.80807 1.25943C 1.25891 1.44256 0.984351 2.08351 1.1674 2.63289C 1.35046 3.18227 1.99114 3.45696 2.5403 3.27384C 3.08946 3.09071 3.36403 2.44976 3.18097 1.90038C 2.99792 1.351 2.35723 1.0763 1.80807 1.25943Z"/>
<path id="path36_fill" d="M 1.21063 1.72768C 2.30895 1.26986 1.66825 -0.378287 0.569932 0.0795328C -0.528387 0.445788 0.11231 2.1855 1.21063 1.72768Z"/>
<path id="path37_fill" d="M 1.14737 1.72768C 2.24569 1.26986 1.60502 -0.378287 0.506698 0.0795328C -0.500095 0.445788 0.140575 2.09394 1.14737 1.72768Z"/>
<path id="path38_fill" d="M 5.03426 6.77535C 7.81459 6.77535 10.0685 5.25864 10.0685 3.38767C 10.0685 1.51671 7.81459 0 5.03426 0C 2.25392 0 1.11733e-05 1.51671 1.11733e-05 3.38767C 1.11733e-05 5.25864 2.25392 6.77535 5.03426 6.77535Z"/>
<path id="path39_fill" d="M 6.89324 7.89841C 3.96439 9.08874 1.03554 8.35623 0.211804 6.34183C -0.611935 4.32742 1.03555 1.76363 3.9644 0.573302C 6.89325 -0.617028 9.82209 0.115484 10.6458 2.12989C 11.4696 4.23586 9.82209 6.79965 6.89324 7.89841ZM 4.42203 1.67207C 2.2254 2.58771 0.760975 4.51055 1.31014 5.88401C 1.85929 7.25747 4.23896 7.71529 6.4356 6.79965C 8.63224 5.88401 10.0967 3.96117 9.54753 2.58771C 8.99837 1.21425 6.7102 0.847995 4.42203 1.67207Z"/>
<path id="path40_fill" d="M 2.83747 3.84547C 4.40457 3.84547 5.67496 2.98463 5.67496 1.92273C 5.67496 0.860838 4.40457 0 2.83747 0C 1.27037 0 1.11733e-05 0.860838 1.11733e-05 1.92273C 1.11733e-05 2.98463 1.27037 3.84547 2.83747 3.84547Z"/>
<path id="path41_fill" d="M 4.26835 4.92778C 2.52935 5.66029 0.698812 5.20247 0.149652 3.92058C -0.399507 2.63869 0.607285 1.0821 2.43782 0.349588C 4.17682 -0.382923 6.00736 0.0748987 6.55652 1.35679C 7.10568 2.63869 6.09888 4.19527 4.26835 4.92778ZM 2.89545 1.35679C 1.70561 1.81461 1.06494 2.82182 1.33952 3.3712C 1.6141 3.92058 2.62088 4.19527 3.90225 3.73745C 5.0921 3.27963 5.73279 2.27243 5.45821 1.72305C 5.27516 1.17366 4.17682 0.898974 2.89545 1.35679Z"/>
<path id="path42_fill" d="M 950.962 56.0894C 904.009 83.0091 849.55 100.132 795.733 93.9968C 768 90.8836 741.366 81.8188 715.098 72.5709C 678.578 59.7519 642.242 46.5667 605.998 32.9237C 581.652 23.7673 557.306 14.3362 532.044 8.10989C 505.776 1.60885 478.501 -1.59588 451.592 0.784781C 367.113 8.20146 294.807 67.9927 210.786 79.7128C 136.1 90.1511 62.6042 60.9423 0 16.6253L 0 282.893L 1024 282.893L 1024 4.44733C 1000.94 23.4926 976.955 41.256 950.962 56.0894Z"/>
<path id="path43_fill" d="M 6.70284 13.7346C 5.14689 13.3683 3.04177 11.3539 1.39429 8.42388C -0.619291 4.76132 0.112926 0.54938 0.204453 0.366253L 0.295978 2.79431e-06L 0.662086 0.0915653C 0.845139 0.183129 4.87231 1.64815 6.97743 5.3107C 9.08254 9.06482 9.54017 12.7274 8.07574 13.643C 7.52658 13.8261 7.16048 13.8261 6.70284 13.7346ZM 0.753611 0.824072C 0.570558 1.92284 0.387508 5.21914 1.94346 8.05762C 3.95705 11.7202 6.61132 13.5515 7.61811 13.0021C 8.6249 12.4527 8.35032 9.24795 6.33673 5.5854C 4.68926 2.83848 1.7604 1.28189 0.753611 0.824072Z"/>
<path id="path44_fill" d="M 1.38009 9.61805C 0.922459 9.52649 0.556348 9.2518 0.281768 8.97711C -0.267392 8.2446 0.00719253 7.05426 0.922459 5.6808C 1.83773 4.39891 3.21061 3.11701 4.85809 1.92668C 8.3361 -0.453977 12.6379 0.00384247 12.8209 0.0954063L 13.187 0.0954063L 13.0955 0.461663C 13.004 0.644791 11.9057 4.85673 8.42764 7.14583C 5.77337 9.16023 3.02757 9.98431 1.38009 9.61805ZM 12.4548 0.736358C 11.265 0.644794 7.97 0.736358 5.40726 2.56764C 3.75978 3.6664 2.4784 4.94829 1.65466 6.13862C 0.922448 7.23739 0.647871 8.15303 1.01398 8.61085C 1.65466 9.61805 4.8581 9.06867 8.24459 6.68801C 10.8073 4.85673 12.0887 1.83512 12.4548 0.736358Z"/>
<path id="path45_fill" d="M 11.7199 5.58646e-06L 0 5.58646e-06L 0 2.01363L 11.7199 2.01363L 11.7199 5.58646e-06Z"/>
<path id="path46_fill" d="M 1.82469 15.2912C 0.909422 15.108 0.360254 14.1008 0.0856738 12.4527C -0.0973795 10.8961 -0.00585289 8.97326 0.543307 7.05042C 1.5501 3.02161 5.02811 0.366258 5.11964 0.274694L 5.39422 0L 5.57727 0.366257C 5.6688 0.549385 7.59085 4.39507 6.67559 8.51544C 5.6688 12.6358 3.56369 15.6574 1.82469 15.2912ZM 5.21117 1.0072C 4.2959 1.73971 1.91621 4.02881 1.184 7.14198C 0.726364 9.06483 0.634836 10.8961 0.81789 12.2696C 1.00094 13.5515 1.45858 14.4671 2.00774 14.5587C 3.19758 14.8333 5.11964 12.2696 6.0349 8.24075C 6.76712 5.21914 5.6688 2.10597 5.21117 1.0072Z"/>
<path id="path47_fill" d="M 6.70284 13.7346C 5.14689 13.3683 3.04178 11.3539 1.3943 8.42388C -0.619287 4.76132 0.112924 0.549383 0.20445 0.366255L 0.295975 -1.39715e-06L 0.662083 0.0915611C 0.845137 0.183125 4.87231 1.64815 6.97742 5.31071C 9.08253 9.06483 9.54017 12.7274 8.07574 13.643C 7.61811 13.8261 7.16047 13.9177 6.70284 13.7346ZM 0.753609 0.915637C 0.570555 2.0144 0.387505 5.3107 1.94346 8.14918C 3.95704 11.8117 6.61131 13.643 7.61811 13.0936C 8.6249 12.5443 8.35032 9.33952 6.33674 5.67696C 4.68926 2.83848 1.7604 1.37346 0.753609 0.915637Z"/>
<path id="path48_fill" d="M 1.38009 9.61805C 0.922456 9.52649 0.556345 9.25179 0.281765 8.9771C -0.267394 8.24459 0.0071898 7.05426 0.922456 5.6808C 1.83772 4.39891 3.21062 3.11702 4.8581 1.92669C 8.33612 -0.453975 12.6379 0.00384386 12.8209 0.0954077L 13.187 0.0954077L 13.0955 0.461665C 13.004 0.644792 11.9056 4.85673 8.42764 7.14582C 5.77337 9.06866 3.02757 9.98431 1.38009 9.61805ZM 12.4548 0.736352C 11.265 0.644788 7.97 0.736352 5.40726 2.56763C 3.75978 3.6664 2.4784 4.94829 1.65466 6.13862C 0.922452 7.23739 0.647875 8.15303 1.01398 8.61085C 1.65467 9.61805 4.8581 9.06866 8.24459 6.688C 10.8073 4.85673 12.0887 1.83512 12.4548 0.736352Z"/>
<path id="path49_fill" d="M 6.70284 13.7346C 5.14689 13.3683 3.04178 11.3539 1.3943 8.42387C -0.61929 4.76132 0.112928 0.549385 0.204454 0.366257L 0.29598 0L 0.662088 0.0915625C 0.845141 0.183126 4.87231 1.64815 6.97742 5.31071C 9.08253 9.06483 9.54017 12.7274 8.07574 13.643C 7.61811 13.8261 7.16048 13.8261 6.70284 13.7346ZM 0.753613 0.915639C 0.57056 2.01441 0.387502 5.31071 1.94345 8.14919C 3.95704 11.8117 6.61132 13.643 7.61811 13.0936C 8.6249 12.5443 8.35032 9.33951 6.33674 5.67696C 4.78078 2.83848 1.85193 1.37346 0.753613 0.915639Z"/>
<path id="path50_fill" d="M 1.38008 9.61805C 0.922452 9.52648 0.556348 9.2518 0.281768 8.9771C -0.267392 8.24459 0.00718554 7.05426 0.922452 5.68081C 1.83772 4.39891 3.21062 3.11702 4.8581 1.92669C 8.33611 -0.453973 12.6379 0.00384666 12.8209 0.0954105L 13.187 0.0954105L 13.0955 0.46166C 13.004 0.644788 11.9057 4.85673 8.42764 7.14583C 5.68184 9.16023 2.93604 9.9843 1.38008 9.61805ZM 12.3633 0.736355C 11.1734 0.644791 7.87848 0.736355 5.31573 2.56763C 3.66825 3.6664 2.38688 4.94829 1.56314 6.13862C 0.830929 7.23739 0.556345 8.15303 0.922452 8.61085C 1.56314 9.61805 4.76657 9.06867 8.15306 6.68801C 10.7158 4.94829 11.9972 1.83512 12.3633 0.736355Z"/>
<path id="path51_fill" d="M 6.70284 13.7346C 5.14689 13.3683 3.04178 11.3539 1.3943 8.42388C -0.619285 4.76132 0.112925 0.549386 0.204452 0.366258L 0.295977 1.39715e-06L 0.662085 0.0915639C 0.845138 0.183128 4.87231 1.64815 6.97742 5.3107C 9.08254 9.06482 9.54017 12.7274 8.07574 13.643C 7.61811 13.7346 7.16047 13.8261 6.70284 13.7346ZM 0.75361 0.824078C 0.570557 1.92284 0.387506 5.21914 1.94346 8.05762C 3.95705 11.7202 6.61131 13.5515 7.61811 13.0021C 8.6249 12.4527 8.35032 9.24795 6.33673 5.5854C 4.78078 2.83848 1.85193 1.2819 0.75361 0.824078Z"/>
<path id="path52_fill" d="M 1.38009 9.61806C 0.922456 9.52649 0.556345 9.2518 0.281765 8.97711C -0.267394 8.24459 0.0071898 7.05427 0.922456 5.68081C 1.83772 4.39891 3.21062 3.11701 4.8581 1.92668C 8.33611 -0.453978 12.6379 0.00384107 12.8209 0.0954049L 13.187 0.0954049L 13.0955 0.461662C 13.004 0.64479 11.9056 4.85673 8.42764 7.14583C 5.77337 9.06867 2.93604 9.98431 1.38009 9.61806ZM 12.3633 0.736356C 11.1734 0.644792 7.87848 0.736356 5.31573 2.56763C 3.66825 3.6664 2.38688 4.9483 1.56314 6.13863C 0.830927 7.23739 0.55635 8.15303 0.922456 8.61085C 1.56314 9.61805 4.76657 9.06867 8.15305 6.68801C 10.8073 4.85673 11.9972 1.83512 12.3633 0.736356Z"/>
<path id="path53_fill" d="M 4.98158 10.1636C 3.79173 9.8889 2.23579 8.42388 1.04594 6.22635C -0.510013 3.57099 0.130673 0.366257 0.130673 0.274693L 0.222199 -1.39715e-06L 0.496774 0.0915611C 0.588301 0.183125 3.60869 1.2819 5.16464 3.93725C 6.72059 6.77573 7.08669 9.43108 5.98837 10.072C 5.62227 10.2552 5.34769 10.2552 4.98158 10.1636ZM 0.588307 0.732512C 0.49678 1.55659 0.313727 4.02881 1.50357 6.04321C 3.05953 8.69857 4.89006 10.1636 5.7138 9.70577C 6.44601 9.24795 6.26296 6.95885 4.70701 4.21194C 3.51716 2.10597 1.32052 1.0072 0.588307 0.732512Z"/>
<path id="path54_fill" d="M 1.01033 6.99101C 0.644226 6.89944 0.369645 6.71631 0.186591 6.53319C -0.179515 5.9838 0.00353811 5.15973 0.644224 4.15253C 1.28491 3.23689 2.38323 2.22969 3.57308 1.40561C 6.13583 -0.334103 9.33925 0.0321527 9.43078 0.0321527L 9.70536 0.0321527L 9.61384 0.306847C 9.61384 0.398411 8.69857 3.51158 6.13582 5.2513C 4.30529 6.53319 2.20018 7.2657 1.01033 6.99101ZM 9.24773 0.39841C 8.42399 0.39841 5.95277 0.398411 4.03071 1.68031C 2.84087 2.50438 1.83407 3.42002 1.19338 4.33566C 0.644223 5.15973 0.46117 5.80068 0.73575 6.16694C 1.19338 6.89945 3.57308 6.53319 6.13582 4.79348C 7.96635 3.42002 8.97315 1.22248 9.24773 0.39841Z"/>
<path id="path55_fill" d="M 8.69839 -2.79323e-06L 0 -2.79323e-06L 0 1.46446L 8.69839 1.46446L 8.69839 -2.79323e-06Z"/>
<path id="path56_fill" d="M 1.35506 11.3539C 0.71437 11.1708 0.256735 10.4383 0.0736818 9.24795C -0.109371 8.14918 0.0736846 6.68417 0.348264 5.21914C 1.08048 2.19754 3.64322 0.274694 3.73475 0.183131L 4.00933 -1.39715e-06L 4.10085 0.274693C 4.19238 0.366257 5.56528 3.2963 4.9246 6.31791C 4.28391 9.43108 2.63643 11.6286 1.35506 11.3539ZM 3.9178 0.824075C 3.27712 1.37346 1.44658 3.02161 0.897423 5.31071C 0.531316 6.68416 0.439794 8.05762 0.622847 9.15639C 0.714374 10.1636 1.08048 10.713 1.53811 10.8961C 2.36185 11.0792 3.82628 9.24795 4.55849 6.22635C 5.10765 3.84568 4.19238 1.55659 3.9178 0.824075Z"/>
<path id="path57_fill" d="M 4.98158 10.1636C 3.79174 9.8889 2.23578 8.42387 1.04593 6.22634C -0.510019 3.57099 0.130668 0.366253 0.130668 0.274689L 0.2222 1.39715e-06L 0.496776 0.0915639C 0.588302 0.183128 3.60868 1.28189 5.16463 3.93724C 6.72059 6.77572 7.08669 9.43108 5.98837 10.072C 5.71379 10.2552 5.34769 10.2552 4.98158 10.1636ZM 0.588301 0.640946C 0.496774 1.46502 0.313721 3.93725 1.50357 5.95165C 3.05952 8.60701 4.89006 10.072 5.7138 9.61421C 6.44601 9.15639 6.26295 6.86729 4.707 4.12038C 3.51715 2.10597 1.41204 1.0072 0.588301 0.640946Z"/>
<path id="path58_fill" d="M 1.01033 6.99101C 0.644226 6.89945 0.369645 6.71632 0.186591 6.53319C -0.179515 5.98381 0.00353811 5.15973 0.644224 4.15253C 1.28491 3.23689 2.38323 2.22969 3.57308 1.40562C 6.13583 -0.334099 9.33925 0.0321569 9.43078 0.0321569L 9.70536 0.0321569L 9.61384 0.306844C 9.61384 0.398408 8.69857 3.51158 6.13582 5.2513C 4.21376 6.62475 2.20018 7.2657 1.01033 6.99101ZM 9.1562 0.489976C 8.33246 0.489976 5.86124 0.489971 3.93918 1.77187C 2.74934 2.59594 1.74254 3.51158 1.10186 4.42722C 0.552698 5.25129 0.369645 5.89224 0.644224 6.2585C 1.10186 6.99101 3.48155 6.62475 6.0443 4.88504C 7.96636 3.51158 8.88162 1.22249 9.1562 0.489976Z"/>
<path id="path59_fill" d="M 4.98158 10.1636C 3.79174 9.8889 2.23578 8.42388 1.04593 6.22634C -0.510019 3.57099 0.130668 0.366256 0.130668 0.274692L 0.2222 -2.79431e-06L 0.496776 0.0915667C 0.588302 0.183131 3.60868 1.28189 5.16463 3.93725C 6.72059 6.77573 7.08669 9.43108 5.98837 10.072C 5.62227 10.2552 5.34769 10.2552 4.98158 10.1636ZM 0.588301 0.640949C 0.496774 1.46502 0.313721 3.93724 1.50357 5.95165C 3.05952 8.607 4.89006 10.072 5.7138 9.6142C 6.44601 9.15639 6.26295 6.86729 4.707 4.12037C 3.51715 2.10597 1.32051 1.0072 0.588301 0.640949Z"/>
<path id="path60_fill" d="M 1.01033 6.99101C 0.644227 6.89944 0.369646 6.71631 0.186593 6.53319C -0.179514 5.9838 0.00353953 5.15973 0.644226 4.15253C 1.28491 3.23689 2.38323 2.22969 3.57308 1.40561C 6.13582 -0.334103 9.33925 0.0321527 9.43078 0.0321527L 9.70536 0.0321527L 9.61384 0.306847C 9.61384 0.398411 8.69857 3.51158 6.13582 5.2513C 4.30529 6.62476 2.20018 7.2657 1.01033 6.99101ZM 9.24773 0.39841C 8.42399 0.39841 5.95277 0.398411 4.03071 1.68031C 2.84086 2.50438 1.83407 3.42002 1.19338 4.33566C 0.644224 5.15973 0.461171 5.80068 0.735751 6.16694C 1.19338 6.89945 3.57308 6.53319 6.13582 4.79348C 7.96636 3.51158 8.88162 1.22248 9.24773 0.39841Z"/>
<path id="path61_fill" d="M 4.98158 10.1636C 3.79174 9.8889 2.23578 8.42388 1.04594 6.22635C -0.510017 3.57099 0.130669 0.366258 0.130669 0.274694L 0.222195 0L 0.496777 0.0915625C 0.588304 0.183126 3.60868 1.2819 5.16463 3.93725C 6.72059 6.77573 7.08669 9.43108 5.98838 10.072C 5.62227 10.2552 5.34769 10.2552 4.98158 10.1636ZM 0.588302 0.640944C 0.496776 1.46502 0.313723 3.93725 1.50357 5.95165C 3.05952 8.60701 4.89005 10.072 5.71379 9.61421C 6.44601 9.15639 6.26295 6.86729 4.707 4.12037C 3.51715 2.10597 1.41204 1.0072 0.588302 0.640944Z"/>
<path id="path62_fill" d="M 1.01033 6.99101C 0.644227 6.89945 0.369646 6.71632 0.186593 6.53319C -0.179514 5.98381 0.00353953 5.15973 0.644226 4.15253C 1.28491 3.23689 2.38323 2.22969 3.57308 1.40561C 6.13582 -0.3341 9.33925 0.0321555 9.43078 0.0321555L 9.70536 0.0321555L 9.61384 0.306843C 9.61384 0.398407 8.69857 3.51158 6.13582 5.25129C 4.21376 6.62475 2.20018 7.2657 1.01033 6.99101ZM 9.15621 0.398412C 8.33247 0.398412 5.86124 0.398407 3.93918 1.6803C 2.74934 2.50438 1.74255 3.42002 1.10186 4.33566C 0.552699 5.15973 0.369646 5.80068 0.644226 6.16693C 1.10186 6.89944 3.48155 6.53319 6.0443 4.79347C 7.96636 3.51158 8.88163 1.22249 9.15621 0.398412Z"/>
<path id="path63_fill" d="M 4.98159 10.1636C 3.79174 9.8889 2.23578 8.42388 1.04594 6.22635C -0.510016 3.57099 0.130671 0.366257 0.130671 0.274693L 0.222203 -1.39715e-06L 0.496772 0.0915611C 0.588298 0.183125 3.60868 1.2819 5.16464 3.93725C 6.72059 6.77573 7.08669 9.43108 5.98837 10.072C 5.62226 10.2552 5.34769 10.2552 4.98159 10.1636ZM 0.588304 0.732512C 0.496777 1.55659 0.313724 4.02881 1.50357 6.04321C 3.05952 8.69857 4.89006 10.1636 5.7138 9.70577C 6.44601 9.24795 6.26296 6.95885 4.707 4.21194C 3.51716 2.10597 1.32052 1.0072 0.588304 0.732512Z"/>
<path id="path64_fill" d="M 1.01033 6.99101C 0.644223 6.89944 0.369649 6.71631 0.186596 6.53319C -0.179511 5.9838 0.00354231 5.15973 0.644229 4.15253C 1.28492 3.23689 2.38323 2.22969 3.57308 1.40561C 6.13582 -0.334103 9.33925 0.0321527 9.43078 0.0321527L 9.70536 0.0321527L 9.61384 0.306847C 9.61384 0.398411 8.69857 3.51158 6.13583 5.2513C 4.30529 6.62476 2.20018 7.2657 1.01033 6.99101ZM 9.24773 0.39841C 8.42399 0.39841 5.95277 0.398411 4.03071 1.68031C 2.84087 2.50438 1.83407 3.42002 1.19338 4.33566C 0.64422 5.15973 0.461167 5.80068 0.735747 6.16694C 1.19338 6.89945 3.57308 6.53319 6.13583 4.79348C 8.05789 3.42002 8.97315 1.22248 9.24773 0.39841Z"/>
<path id="path65_fill" d="M 8.69839 -2.79323e-06L 5.5885e-06 -2.79323e-06L 5.5885e-06 1.46446L 8.69839 1.46446L 8.69839 -2.79323e-06Z"/>
<path id="path66_fill" d="M 1.35506 11.3539C 0.714374 11.1708 0.256732 10.4383 0.073679 9.24795C -0.109374 8.14918 0.0736818 6.68417 0.348262 5.21914C 1.08047 2.19754 3.64322 0.274694 3.73474 0.183131L 4.00933 -1.39715e-06L 4.10086 0.274693C 4.19239 0.366257 5.56528 3.2963 4.92459 6.31791C 4.28391 9.43108 2.63643 11.6286 1.35506 11.3539ZM 3.91781 0.824075C 3.27712 1.37346 1.44659 3.02161 0.897427 5.31071C 0.531321 6.68416 0.439791 8.05762 0.622844 9.15639C 0.714371 10.1636 1.08048 10.713 1.53811 10.8961C 2.36185 11.0792 3.82628 9.24795 4.55849 6.22635C 5.10765 3.84568 4.28392 1.55659 3.91781 0.824075Z"/>
<path id="path67_fill" d="M 4.98158 10.1636C 3.79173 9.8889 2.23578 8.42387 1.04593 6.22634C -0.510021 3.57099 0.130665 0.366253 0.130665 0.274689L 0.222197 1.39715e-06L 0.49678 0.0915639C 0.588307 0.183128 3.60868 1.28189 5.16463 3.93724C 6.72058 6.77572 7.0867 9.43108 5.98838 10.072C 5.7138 10.2552 5.34769 10.2552 4.98158 10.1636ZM 0.588298 0.640946C 0.496772 1.46502 0.313718 3.93725 1.50356 5.95165C 3.05952 8.60701 4.89006 10.072 5.7138 9.61421C 6.44601 9.15639 6.26295 6.86729 4.707 4.12038C 3.60868 2.10597 1.41204 1.0072 0.588298 0.640946Z"/>
<path id="path68_fill" d="M 1.01033 6.99101C 0.644223 6.89945 0.369649 6.71632 0.186596 6.53319C -0.179511 5.98381 0.00354231 5.15973 0.644229 4.15253C 1.28492 3.23689 2.38323 2.22969 3.57308 1.40562C 6.13582 -0.334099 9.33925 0.0321569 9.43078 0.0321569L 9.70536 0.0321569L 9.61384 0.306844C 9.61384 0.398408 8.69857 3.51158 6.13583 5.2513C 4.21377 6.62475 2.20018 7.2657 1.01033 6.99101ZM 9.15621 0.489976C 8.33247 0.489976 5.86124 0.489971 3.93918 1.77187C 2.74933 2.59594 1.74255 3.51158 1.10186 4.42722C 0.552702 5.25129 0.369649 5.89224 0.644229 6.2585C 1.10186 6.99101 3.48155 6.62475 6.04429 4.88504C 7.96635 3.51158 8.88163 1.22249 9.15621 0.489976Z"/>
<path id="path69_fill" d="M 4.98158 10.1636C 3.79173 9.8889 2.23578 8.42388 1.04593 6.22634C -0.510021 3.57099 0.130665 0.366256 0.130665 0.274692L 0.222197 -2.79431e-06L 0.49678 0.0915667C 0.588307 0.183131 3.60868 1.28189 5.16463 3.93725C 6.72058 6.77573 7.0867 9.43108 5.98838 10.072C 5.62227 10.2552 5.34769 10.2552 4.98158 10.1636ZM 0.588298 0.640949C 0.496772 1.46502 0.313718 3.93724 1.50356 5.95165C 3.05952 8.607 4.89006 10.072 5.7138 9.6142C 6.44601 9.15639 6.26295 6.86729 4.707 4.12037C 3.51715 2.10597 1.32051 1.0072 0.588298 0.640949Z"/>
<path id="path70_fill" d="M 1.01034 6.99101C 0.644231 6.89944 0.369643 6.71631 0.18659 6.53319C -0.179517 5.9838 0.00353674 5.15973 0.644223 4.15253C 1.28491 3.23689 2.38323 2.22969 3.57307 1.40561C 6.13582 -0.334103 9.33926 0.0321527 9.43079 0.0321527L 9.70537 0.0321527L 9.61384 0.306847C 9.61384 0.398411 8.69857 3.51158 6.13582 5.2513C 4.30529 6.62476 2.20018 7.2657 1.01034 6.99101ZM 9.24773 0.489972C 8.424 0.489972 5.95276 0.489974 4.03071 1.77187C 2.84086 2.59594 1.83407 3.51158 1.19339 4.42722C 0.644229 5.2513 0.461175 5.89224 0.735755 6.25849C 1.19339 6.991 3.57308 6.62475 6.13582 4.88503C 7.96635 3.51158 8.97316 1.22248 9.24773 0.489972Z"/>
<path id="path71_fill" d="M 4.98159 10.1636C 3.79174 9.8889 2.23579 8.42388 1.04594 6.22635C -0.510013 3.57099 0.130673 0.366258 0.130673 0.274694L 0.222192 1.3012e-14L 0.496774 0.0915625C 0.588301 0.183126 3.60869 1.2819 5.16464 3.93725C 6.72059 6.77573 7.08669 9.43108 5.98837 10.072C 5.71379 10.2552 5.34769 10.2552 4.98159 10.1636ZM 0.588307 0.640944C 0.49678 1.46502 0.313727 3.93725 1.50357 5.95165C 3.05953 8.60701 4.89005 10.072 5.71379 9.61421C 6.446 9.15639 6.26296 6.86729 4.70701 4.12037C 3.51716 2.10597 1.41205 1.0072 0.588307 0.640944Z"/>
<path id="path72_fill" d="M 1.01034 6.99101C 0.644231 6.89945 0.369643 6.71632 0.18659 6.53319C -0.179517 5.98381 0.00353674 5.15973 0.644223 4.15252C 1.28491 3.23688 2.38323 2.22968 3.57307 1.40561C 6.13582 -0.334107 9.33926 0.0321485 9.43079 0.0321485L 9.70537 0.0321485L 9.61384 0.306843C 9.61384 0.398407 8.69857 3.51159 6.13582 5.2513C 4.21376 6.62476 2.20018 7.2657 1.01034 6.99101ZM 9.1562 0.398412C 8.33246 0.398412 5.86125 0.398407 3.93919 1.6803C 2.74934 2.50438 1.74254 3.42002 1.10186 4.33566C 0.552696 5.15974 0.369643 5.80068 0.644223 6.16694C 1.10186 6.89945 3.48156 6.5332 6.0443 4.79348C 7.96636 3.51159 8.88162 1.22249 9.1562 0.398412Z"/>
<path id="path73_fill" d="M 9.61031 11.7202C 7.96283 11.7202 5.49158 10.2552 3.11188 7.87449C 0.274558 4.85288 1.11727e-05 0.549383 1.11727e-05 0.366256L 1.11727e-05 -1.39715e-06L 0.366084 -1.39715e-06C 0.549137 -1.39715e-06 4.85092 0.549383 7.77978 3.57099C 10.8002 6.68416 12.0815 10.1636 10.8001 11.3539C 10.434 11.6286 10.0679 11.7202 9.61031 11.7202ZM 0.732213 0.732512C 0.915266 1.83128 1.46444 5.12757 3.66108 7.41667C 6.4984 10.4383 9.51877 11.6286 10.3425 10.8045C 11.1662 9.98046 10.1595 6.95886 7.32214 3.93725C 5.03398 1.64815 1.83053 0.91564 0.732213 0.732512Z"/>
<path id="path74_fill" d="M 1.71857 12.0864C 1.26093 12.0864 0.803313 11.9949 0.528733 11.7202C -0.111954 11.0792 -0.203514 9.8889 0.437173 8.42388C 0.986332 6.95885 1.99314 5.40227 3.36604 3.84568C 6.11184 0.732511 10.4136 0.0915653 10.5967 0.0915653L 10.9627 2.79431e-06L 10.9627 0.366253C 10.9627 0.54938 10.7797 4.85289 8.03393 7.96606C 5.83729 10.5298 3.27452 12.0864 1.71857 12.0864ZM 10.2305 0.824072C 9.13221 1.09876 5.92878 1.92284 3.82367 4.3035C 2.5423 5.76852 1.53553 7.32511 0.986366 8.69857C 0.528733 9.98046 0.528699 10.8961 0.894806 11.2624C 1.81007 12.0864 4.73894 10.8045 7.48473 7.69136C 9.68137 5.21914 10.139 1.92284 10.2305 0.824072Z"/>
<path id="path75_fill" d="M 2.01357 5.58862e-06L -2.23454e-05 5.58862e-06L -2.23454e-05 11.7202L 2.01357 11.7202L 2.01357 5.58862e-06Z"/>
<path id="path76_fill" d="M 3.29498 15.749C 2.37971 15.749 1.55594 14.9249 0.915255 13.3683C 0.366095 11.9033 -1.11727e-05 10.072 -1.11727e-05 7.96606C -1.11727e-05 3.75412 2.74582 0.457818 2.83735 0.27469L 3.11192 2.79431e-06L 3.38649 0.27469C 3.47801 0.457818 6.31533 3.75412 6.40685 7.8745C 6.40685 12.3611 5.12551 15.749 3.29498 15.749ZM 3.20342 1.19033C 2.56273 2.10597 0.732191 4.85288 0.732191 8.05762C 0.732191 9.98046 1.09832 11.8117 1.55595 13.1852C 2.01359 14.4671 2.65429 15.108 3.29498 15.108C 4.48483 15.108 5.76616 12.178 5.76616 7.96606C 5.67463 4.76132 3.84411 2.10597 3.20342 1.19033Z"/>
<path id="path77_fill" d="M 9.61028 11.7202C 7.96281 11.7202 5.49161 10.2552 3.11192 7.8745C 0.274591 4.85289 -1.11727e-05 0.54938 -1.11727e-05 0.366253L -1.11727e-05 2.79431e-06L 0.366118 2.79431e-06C 0.549171 2.79431e-06 4.8509 0.549381 7.77975 3.57099C 10.8001 6.68416 12.0815 10.1636 10.8001 11.3539C 10.5255 11.6286 10.0679 11.7202 9.61028 11.7202ZM 0.732191 0.73251C 0.915244 1.83128 1.46441 5.12758 3.66105 7.41668C 6.49838 10.4383 9.51875 11.6286 10.3425 10.8045C 11.1662 9.98046 10.1594 6.95885 7.32212 3.93725C 5.12548 1.64815 1.92204 0.915637 0.732191 0.73251Z"/>
<path id="path78_fill" d="M 1.71855 12.0864C 1.26091 12.0864 0.80329 11.9949 0.52871 11.7202C -0.111976 11.0792 -0.20348 9.8889 0.437206 8.42387C 0.986366 6.95885 1.99317 5.40227 3.36607 3.84568C 6.11187 0.732508 10.4136 0.0915625 10.5966 0.0915625L 10.9628 -1.3012e-14L 10.9628 0.366257C 10.9628 0.549385 10.7797 4.85288 8.03391 7.96605C 5.83727 10.5298 3.36602 12.0864 1.71855 12.0864ZM 10.3221 0.824076C 9.22375 1.09877 6.02032 1.92284 3.91521 4.3035C 2.63383 5.76852 1.62706 7.32511 1.0779 8.69857C 0.62027 9.98046 0.620237 10.8961 0.986344 11.2624C 1.90161 12.0864 4.83047 10.8045 7.57627 7.69137C 9.77291 5.21914 10.2305 1.92284 10.3221 0.824076Z"/>
<path id="path79_fill" d="M 9.6103 11.7202C 7.96282 11.7202 5.49162 10.2552 3.11193 7.8745C 0.274602 4.85289 0 0.549385 0 0.366257L 0 -1.3012e-14L 0.366129 -1.3012e-14C 0.549182 -1.3012e-14 4.85091 0.549378 7.77976 3.57099C 10.8001 6.68416 12.0815 10.1636 10.8001 11.3539C 10.5256 11.537 10.0679 11.7202 9.6103 11.7202ZM 0.732202 0.640944C 0.915255 1.73971 1.46443 5.03601 3.66107 7.32511C 6.49839 10.3467 9.51876 11.537 10.3425 10.713C 11.1662 9.8889 10.1595 6.86729 7.32213 3.84568C 5.03396 1.64815 1.83052 0.915636 0.732202 0.640944Z"/>
<path id="path80_fill" d="M 1.71856 12.0864C 1.26092 12.0864 0.803301 11.9949 0.528721 11.7202C -0.111965 11.0792 -0.203469 9.88889 0.437217 8.42387C 0.986377 6.95885 1.99313 5.40226 3.36602 3.84568C 6.11182 0.732506 10.4136 0.0915667 10.5967 0.0915667L 10.9628 -2.79431e-06L 10.9628 0.366254C 10.9628 0.549382 10.7797 4.85288 8.03392 7.96605C 5.83728 10.5298 3.36604 11.9949 1.71856 12.0864ZM 10.3221 0.824073C 9.22376 1.09877 6.02033 1.92284 3.91522 4.3035C 2.63385 5.76852 1.62702 7.32511 1.07786 8.69857C 0.620226 9.98046 0.620248 10.8961 0.986355 11.2624C 1.90162 12.0864 4.83048 10.8045 7.57628 7.69137C 9.6814 5.21915 10.139 1.92284 10.3221 0.824073Z"/>
<path id="path81_fill" d="M 9.61031 11.7202C 7.96283 11.7202 5.49158 10.2552 3.11188 7.8745C 0.274558 4.85289 1.11727e-05 0.549389 1.11727e-05 0.366261L 1.11727e-05 -2.79431e-06L 0.366084 -2.79431e-06C 0.549137 -2.79431e-06 4.85092 0.549389 7.77978 3.571C 10.8002 6.68417 12.0815 10.1636 10.8001 11.3539C 10.434 11.5371 10.0679 11.7202 9.61031 11.7202ZM 0.732213 0.640942C 0.915266 1.73971 1.46444 5.03601 3.66108 7.32511C 6.4984 10.3467 9.51877 11.537 10.3425 10.713C 11.1662 9.88889 10.1595 6.86729 7.32214 3.84568C 5.03398 1.64814 1.83053 0.824069 0.732213 0.640942Z"/>
<path id="path82_fill" d="M 1.71857 12.0864C 1.26093 12.0864 0.803313 11.9949 0.528733 11.7202C -0.111954 11.0792 -0.203514 9.8889 0.437173 8.42388C 0.986332 6.95886 1.99314 5.40227 3.36604 3.84569C 6.11184 0.732516 10.4136 0.0915639 10.5967 0.0915639L 10.9627 -5.58862e-06L 10.9627 0.366258C 10.9627 0.549386 10.7797 4.85289 8.03393 7.96606C 5.83729 10.5299 3.27452 11.9949 1.71857 12.0864ZM 10.2305 0.732508C 9.13221 1.0072 5.92878 1.83128 3.82367 4.21194C 2.5423 5.67696 1.53553 7.23355 0.986366 8.60701C 0.528733 9.8889 0.528699 10.8045 0.894806 11.1708C 1.81007 11.9949 4.73894 10.713 7.48473 7.5998C 9.68137 5.12757 10.139 1.92284 10.2305 0.732508Z"/>
<path id="path83_fill" d="M 7.04756 8.69857C 5.85772 8.69857 3.93564 7.5998 2.28817 5.86009C 0.183053 3.66256 0 0.366253 0 0.274689L 0 1.39715e-06L 0.274569 1.39715e-06C 0.366095 1.39715e-06 3.56953 0.366258 5.76617 2.65535C 7.96281 5.03602 8.9696 7.50824 8.05433 8.42388C 7.68823 8.607 7.41367 8.69857 7.04756 8.69857ZM 0.457633 0.549383C 0.54916 1.37346 1.00682 3.75412 2.65429 5.49383C 4.75941 7.69137 6.95601 8.607 7.5967 8.05762C 8.23739 7.41667 7.41365 5.21914 5.30853 3.02161C 3.66105 1.19033 1.28137 0.640947 0.457633 0.549383Z"/>
<path id="path84_fill" d="M 1.30768 8.8817C 0.941569 8.8817 0.666989 8.79013 0.392409 8.607C -0.0652241 8.14918 -0.156784 7.32511 0.300849 6.13478C 0.666955 5.03601 1.49072 3.84569 2.49751 2.74692C 4.60262 0.457822 7.71455 2.79431e-06 7.8976 2.79431e-06L 8.17217 2.79431e-06L 8.17217 0.27469C 8.17217 0.366254 8.08062 3.66256 5.97551 5.95165C 4.32803 7.69137 2.49752 8.79013 1.30768 8.8817ZM 7.71454 0.457822C 6.8908 0.64095 4.5111 1.28189 2.95514 3.02161C 2.03988 4.12037 1.21615 5.21914 0.850042 6.22634C 0.483936 7.14198 0.483936 7.87449 0.850042 8.14918C 1.49073 8.69857 3.68736 7.78293 5.70094 5.49383C 7.2569 3.75412 7.62301 1.37346 7.71454 0.457822Z"/>
<path id="path85_fill" d="M 1.46444 -5.58862e-06L -2.23454e-05 -5.58862e-06L -2.23454e-05 8.69856L 1.46444 8.69856L 1.46444 -5.58862e-06Z"/>
<path id="path86_fill" d="M 2.37968 11.537C 1.73899 11.537 1.09834 10.8961 0.640709 9.79733C 0.183076 8.69857 1.11727e-05 7.32511 1.11727e-05 5.86009C 1.11727e-05 2.74692 2.01359 0.27469 2.10511 0.183126L 2.28818 1.39715e-06L 2.47124 0.183126C 2.56277 0.27469 4.66785 2.74692 4.66785 5.86009C 4.75937 9.06483 3.75258 11.537 2.37968 11.537ZM 2.28818 0.732508C 1.83054 1.46502 0.457644 3.47943 0.457644 5.86009C 0.457644 7.32511 0.732235 8.60701 1.09834 9.61421C 1.46445 10.5298 1.92205 11.0792 2.37968 11.0792C 3.29495 11.0792 4.21021 8.8817 4.21021 5.86009C 4.21021 3.47943 2.83734 1.46502 2.28818 0.732508Z"/>
<path id="path87_fill" d="M 7.04754 8.69856C 5.85769 8.69856 3.93562 7.5998 2.28814 5.86009C 0.183031 3.66256 -2.23454e-05 0.366253 -2.23454e-05 0.274689L -2.23454e-05 1.39715e-06L 0.274602 1.39715e-06C 0.366129 1.39715e-06 3.56956 0.366258 5.7662 2.65535C 7.96284 5.03602 8.96963 7.50824 8.05437 8.42388C 7.68826 8.60701 7.41365 8.69856 7.04754 8.69856ZM 0.457611 0.549383C 0.549137 1.37346 1.00679 3.75411 2.65427 5.49383C 4.75938 7.69136 6.95605 8.607 7.59673 8.05762C 8.23742 7.41667 7.41368 5.21914 5.30857 3.02161C 3.66109 1.28189 1.28135 0.732511 0.457611 0.549383Z"/>
<path id="path88_fill" d="M 1.30765 8.8817C 0.941546 8.8817 0.666967 8.79013 0.392387 8.607C -0.0652464 8.14918 -0.156751 7.32511 0.300882 6.13478C 0.666989 5.03601 1.49069 3.84569 2.49749 2.74692C 4.6026 0.457822 7.71453 2.79431e-06 7.89758 2.79431e-06L 8.17215 2.79431e-06L 8.17215 0.27469C 8.17215 0.366254 8.08066 3.66256 5.97554 5.95165C 4.41959 7.69137 2.58903 8.8817 1.30765 8.8817ZM 7.71452 0.549385C 6.89078 0.732512 4.51107 1.37346 2.95512 3.11317C 2.03985 4.21194 1.21613 5.3107 0.85002 6.3179C 0.483913 7.23354 0.483913 7.96606 0.85002 8.24075C 1.49071 8.79013 3.68733 7.87449 5.70092 5.58539C 7.25687 3.75411 7.62299 1.37346 7.71452 0.549385Z"/>
<path id="path89_fill" d="M 7.04757 8.69856C 5.85773 8.69856 3.93566 7.5998 2.28818 5.86009C 0.183064 3.66256 1.11727e-05 0.366253 1.11727e-05 0.274689L 1.11727e-05 -5.58862e-06L 0.27458 -5.58862e-06C 0.366107 -5.58862e-06 3.56954 0.366258 5.76618 2.65535C 7.96282 5.03602 8.96961 7.50824 8.05434 8.42388C 7.68824 8.60701 7.41368 8.69856 7.04757 8.69856ZM 0.457644 0.549383C 0.549171 1.37346 1.00677 3.75411 2.65425 5.49383C 4.75936 7.69136 6.95602 8.607 7.59671 8.05762C 8.2374 7.41667 7.41366 5.21914 5.30854 3.02161C 3.66107 1.28189 1.28138 0.732511 0.457644 0.549383Z"/>
<path id="path90_fill" d="M 1.30766 8.8817C 0.941558 8.8817 0.666978 8.79013 0.392398 8.607C -0.0652353 8.14918 -0.15674 7.32511 0.300894 6.13478C 0.667 5.03601 1.49071 3.84569 2.4975 2.74692C 4.60261 0.457822 7.71454 2.79431e-06 7.89759 2.79431e-06L 8.17216 2.79431e-06L 8.17216 0.274697C 8.17216 0.366261 8.08061 3.66256 5.9755 5.95165C 4.32802 7.69137 2.49751 8.8817 1.30766 8.8817ZM 7.62302 0.549378C 6.79928 0.732505 4.41958 1.37346 2.86363 3.11317C 1.94836 4.21194 1.12463 5.3107 0.758527 6.3179C 0.39242 7.23354 0.39242 7.96606 0.758527 8.24075C 1.39921 8.79013 3.59584 7.87449 5.60943 5.58539C 7.16538 3.75411 7.5315 1.37345 7.62302 0.549378Z"/>
<path id="path91_fill" d="M 7.04755 8.69857C 5.8577 8.69857 3.93563 7.5998 2.28815 5.86008C 0.183042 3.66255 -1.11727e-05 0.366258 -1.11727e-05 0.274694L -1.11727e-05 0L 0.274558 0C 0.366084 0 3.56952 0.36625 5.76616 2.65535C 7.96279 5.03601 8.96959 7.50823 8.05432 8.42387C 7.77974 8.51544 7.41366 8.69857 7.04755 8.69857ZM 0.549182 0.457819C 0.640709 1.28189 1.09831 3.66255 2.74579 5.40226C 4.8509 7.5998 7.04756 8.51544 7.68825 7.96605C 8.32893 7.32511 7.50519 5.12757 5.40008 2.93004C 3.7526 1.19033 1.37292 0.640947 0.549182 0.457819Z"/>
<path id="path92_fill" d="M 1.30764 8.8817C 0.941535 8.8817 0.666955 8.79013 0.392376 8.607C -0.0652576 8.14918 -0.156762 7.32511 0.300871 6.13478C 0.666978 5.03601 1.49074 3.84569 2.49753 2.74692C 4.60264 0.457822 7.71452 2.79431e-06 7.89757 2.79431e-06L 8.17214 2.79431e-06L 8.17214 0.274697C 8.17214 0.366261 8.08065 3.66256 5.97553 5.95165C 4.32805 7.78293 2.49749 8.8817 1.30764 8.8817ZM 7.623 0.549378C 6.79926 0.732505 4.41956 1.37346 2.86361 3.11317C 1.94834 4.21194 1.12461 5.3107 0.758504 6.3179C 0.392398 7.23354 0.392398 7.96606 0.758504 8.24075C 1.39919 8.79013 3.59582 7.87449 5.6094 5.58539C 7.25688 3.75411 7.53148 1.37345 7.623 0.549378Z"/>
<path id="path93_fill" d="M 7.04756 8.69857C 5.85772 8.69857 3.93564 7.5998 2.28817 5.86009C 0.183053 3.66256 0 0.366258 0 0.274694L 0 -1.3012e-14L 0.274569 -1.3012e-14C 0.366095 -1.3012e-14 3.56953 0.366257 5.76617 2.65535C 7.96281 5.03601 8.9696 7.50823 8.05433 8.42387C 7.68823 8.51544 7.32214 8.69857 7.04756 8.69857ZM 0.457633 0.457819C 0.54916 1.28189 1.00682 3.66256 2.65429 5.40227C 4.75941 7.5998 6.95601 8.51544 7.5967 7.96605C 8.23739 7.32511 7.41365 5.12757 5.30853 2.93004C 3.66105 1.19033 1.28137 0.640947 0.457633 0.457819Z"/>
<path id="path94_fill" d="M 1.30768 8.8817C 0.941569 8.8817 0.666989 8.79013 0.392409 8.607C -0.0652241 8.14918 -0.156784 7.32511 0.300849 6.13478C 0.666955 5.03601 1.49072 3.84569 2.49751 2.74692C 4.60262 0.457822 7.71455 2.79431e-06 7.8976 2.79431e-06L 8.17217 2.79431e-06L 8.17217 0.27469C 8.17217 0.366254 8.08062 3.66256 5.97551 5.95165C 4.32803 7.78293 2.49752 8.8817 1.30768 8.8817ZM 7.62298 0.549385C 6.79924 0.732512 4.41959 1.37346 2.86364 3.11317C 1.94837 4.21194 1.12459 5.3107 0.758482 6.3179C 0.392376 7.23354 0.392376 7.96606 0.758482 8.24075C 1.39917 8.79013 3.59585 7.87449 5.60944 5.5854C 7.25692 3.75412 7.62298 1.37346 7.62298 0.549385Z"/>
<path id="path95_fill" d="M 2.37968 11.537C 1.73899 11.537 1.09834 10.8961 0.640709 9.79733C 0.183076 8.69857 1.11727e-05 7.32511 1.11727e-05 5.86009C 1.11727e-05 2.74692 2.01359 0.274689 2.10511 0.183125L 2.28818 1.3012e-14L 2.47124 0.183125C 2.56277 0.274689 4.66785 2.74692 4.66785 5.86009C 4.75937 8.97326 3.75258 11.537 2.37968 11.537ZM 2.28818 0.732514C 1.83054 1.46502 0.457644 3.47943 0.457644 5.86009C 0.457644 7.32511 0.732235 8.60701 1.09834 9.61421C 1.46445 10.5298 1.92205 11.0792 2.37968 11.0792C 3.29495 11.0792 4.21021 8.8817 4.21021 5.86009C 4.21021 3.38786 2.83734 1.37346 2.28818 0.732514Z"/>
<path id="path96_fill" d="M 7.04754 8.69857C 5.85769 8.69857 3.93562 7.5998 2.28814 5.86008C 0.183031 3.66255 -2.23454e-05 0.366258 -2.23454e-05 0.274694L -2.23454e-05 -1.3012e-14L 0.274602 -1.3012e-14C 0.366129 -1.3012e-14 3.56956 0.36625 5.7662 2.65535C 7.96284 5.03601 8.96963 7.50823 8.05437 8.42387C 7.68826 8.607 7.41365 8.69857 7.04754 8.69857ZM 0.457611 0.549382C 0.549137 1.37346 1.00679 3.75412 2.65427 5.49383C 4.75938 7.69137 6.95605 8.60701 7.59673 8.05762C 8.23742 7.41668 7.41368 5.21914 5.30857 3.02161C 3.66109 1.19033 1.28135 0.640946 0.457611 0.549382Z"/>
<path id="path97_fill" d="M 1.30765 8.8817C 0.941546 8.8817 0.666967 8.79013 0.392387 8.607C -0.0652464 8.14918 -0.156751 7.32511 0.300882 6.13478C 0.666989 5.03601 1.49069 3.84569 2.49749 2.74692C 4.6026 0.457822 7.71453 2.79431e-06 7.89758 2.79431e-06L 8.17215 2.79431e-06L 8.17215 0.27469C 8.17215 0.366254 8.08066 3.66256 5.97554 5.95165C 4.41959 7.78293 2.58903 8.8817 1.30765 8.8817ZM 7.71452 0.549385C 6.89078 0.732512 4.51107 1.37346 2.95512 3.11317C 2.03985 4.21194 1.21613 5.3107 0.85002 6.3179C 0.483913 7.23354 0.483913 7.96606 0.85002 8.24075C 1.49071 8.79013 3.68733 7.87449 5.70092 5.58539C 7.25687 3.84568 7.62299 1.37346 7.71452 0.549385Z"/>
<path id="path98_fill" d="M 7.04757 8.69857C 5.85773 8.69857 3.93566 7.5998 2.28818 5.86008C 0.183064 3.66255 1.11727e-05 0.366258 1.11727e-05 0.274694L 1.11727e-05 0L 0.27458 0C 0.366107 0 3.56954 0.36625 5.76618 2.65535C 7.96282 5.03601 8.96961 7.50823 8.05434 8.42387C 7.68824 8.607 7.41368 8.69857 7.04757 8.69857ZM 0.457644 0.549389C 0.549171 1.37346 1.00677 3.75412 2.65425 5.49383C 4.75936 7.69137 6.95602 8.60701 7.59671 8.05762C 8.2374 7.41668 7.41366 5.21914 5.30854 3.02161C 3.66107 1.19033 1.28138 0.640953 0.457644 0.549389Z"/>
<path id="path99_fill" d="M 1.30766 8.8817C 0.941558 8.8817 0.666978 8.79013 0.392398 8.607C -0.0652353 8.14918 -0.15674 7.32511 0.300894 6.13478C 0.667 5.03601 1.49071 3.84569 2.4975 2.74692C 4.60261 0.457822 7.71454 2.79431e-06 7.89759 2.79431e-06L 8.17216 2.79431e-06L 8.17216 0.274697C 8.17216 0.366261 8.08061 3.66256 5.9755 5.95165C 4.32802 7.78293 2.49751 8.8817 1.30766 8.8817ZM 7.62302 0.549378C 6.79928 0.732505 4.41958 1.37346 2.86363 3.11317C 1.94836 4.21194 1.12463 5.3107 0.758527 6.3179C 0.39242 7.23354 0.39242 7.96606 0.758527 8.24075C 1.39921 8.79013 3.59584 7.87449 5.60943 5.58539C 7.16538 3.84568 7.5315 1.46502 7.62302 0.549378Z"/>
<path id="path100_fill" d="M 7.04755 8.69857C 5.8577 8.69857 3.93563 7.5998 2.28815 5.86008C 0.183042 3.66255 -1.11727e-05 0.366258 -1.11727e-05 0.274694L -1.11727e-05 0L 0.274558 0C 0.366084 0 3.56952 0.36625 5.76616 2.65535C 7.96279 5.03601 8.96959 7.50823 8.05432 8.42387C 7.68821 8.607 7.41366 8.69857 7.04755 8.69857ZM 0.549182 0.549389C 0.640709 1.37346 1.09831 3.75412 2.74579 5.49383C 4.8509 7.69137 7.04756 8.60701 7.68825 8.05762C 8.32893 7.41668 7.50519 5.21914 5.40008 3.02161C 3.7526 1.2819 1.37292 0.732517 0.549182 0.549389Z"/>
<path id="path101_fill" d="M 1.30764 8.8817C 0.941535 8.8817 0.666955 8.79014 0.392376 8.60701C -0.0652576 8.14919 -0.156762 7.32512 0.300871 6.13479C 0.666978 5.03602 1.49074 3.84568 2.49753 2.74691C 4.60264 0.457814 7.71452 -5.58862e-06 7.89757 -5.58862e-06L 8.17214 -5.58862e-06L 8.17214 0.274689C 8.17214 0.366253 8.08065 3.66255 5.97553 5.95165C 4.32805 7.69136 2.49749 8.8817 1.30764 8.8817ZM 7.623 0.549383C 6.79926 0.732511 4.41956 1.37346 2.86361 3.11317C 1.94834 4.21194 1.12461 5.31071 0.758504 6.31791C 0.392398 7.23355 0.392398 7.96605 0.758504 8.24074C 1.39919 8.79013 3.59582 7.87449 5.6094 5.5854C 7.16536 3.75412 7.53148 1.37346 7.623 0.549383Z"/>
<path id="path102_fill" d="M 13.729 0L -1.11727e-05 0L -1.11727e-05 176.718L 13.729 176.718L 13.729 0Z"/>
<path id="path103_fill" d="M 113.402 26.5535L 0.823729 30.3076L 2.23454e-05 3.75412L 112.486 -6.98577e-07L 131.249 12.7274L 113.402 26.5535Z"/>
<path id="path104_fill" d="M 6.40686 12.8189C 9.94527 12.8189 12.8137 9.94932 12.8137 6.40947C 12.8137 2.86962 9.94527 0 6.40686 0C 2.86844 0 -1.11727e-05 2.86962 -1.11727e-05 6.40947C -1.11727e-05 9.94932 2.86844 12.8189 6.40686 12.8189Z"/>
</defs>
</svg>
