<svg width="49" height="44" viewBox="0 0 49 44" version="1.1" xmlns="http://www.w3.org/2000/svg" xmlns:xlink="http://www.w3.org/1999/xlink">
    <title>Group</title>
    <desc>Created using Figma</desc>
    <g id="Canvas" transform="translate(1301 187)">
        <rect x="-1301" y="-187" width="49" height="44" fill="#E5E5E5"/>
        <clipPath id="clip-0" clip-rule="evenodd">
            <path d="M -1862 -729L -837 -729L -837 1460L -1862 1460L -1862 -729Z" fill="#FFFFFF"/>
        </clipPath>
        <g id="&#208;&#160;&#208;&#176;&#208;&#183;&#208;&#178;&#208;&#190;&#208;&#180;&#209;&#143;&#209;&#137;&#208;&#176;&#209;&#143;_1" clip-path="url(#clip-0)">
            <path d="M -1862 -729L -837 -729L -837 1460L -1862 1460L -1862 -729Z" fill="#FFFFFF"/>
            <g id="Group">
                <g id="Group">
                    <g id="Group">
                        <g id="Group">
                            <g id="Vector">
                                <use xlink:href="#path0_fill" transform="translate(-1283.24 -180.077)" fill="#F2994A"/>
                            </g>
                        </g>
                        <g id="Group">
                            <g id="Vector">
                                <use xlink:href="#path1_fill" transform="translate(-1275.85 -180.136)" fill="#F2994A"/>
                            </g>
                        </g>
                    </g>
                    <g id="Group">
                        <g id="Vector">
                            <use xlink:href="#path2_fill" transform="translate(-1276.73 -150.333)" fill="#F2994A"/>
                        </g>
                    </g>
                    <g id="Group">
                        <g id="Vector">
                            <use xlink:href="#path3_fill" transform="translate(-1278.06 -187)" fill="#F2994A"/>
                        </g>
                    </g>
                    <g id="Group">
                        <g id="Group">
                            <g id="Vector">
                                <use xlink:href="#path4_fill" transform="translate(-1283.24 -173.155)" fill="#F2994A"/>
                            </g>
                        </g>
                        <g id="Group">
                            <g id="Vector">
                                <use xlink:href="#path5_fill" transform="translate(-1275.85 -173.155)" fill="#F2994A"/>
                            </g>
                        </g>
                    </g>
                    <g id="Group">
                        <g id="Group">
                            <g id="Vector">
                                <use xlink:href="#path6_fill" transform="translate(-1283.24 -166.173)" fill="#F2994A"/>
                            </g>
                        </g>
                        <g id="Group">
                            <g id="Vector">
                                <use xlink:href="#path7_fill" transform="translate(-1275.85 -166.232)" fill="#F2994A"/>
                            </g>
                        </g>
                    </g>
                    <g id="Group">
                        <g id="Group">
                            <g id="Vector">
                                <use xlink:href="#path8_fill" transform="translate(-1283.24 -159.251)" fill="#F2994A"/>
                            </g>
                        </g>
                        <g id="Group">
                            <g id="Vector">
                                <use xlink:href="#path9_fill" transform="translate(-1275.85 -159.251)" fill="#F2994A"/>
                            </g>
                        </g>
                    </g>
                </g>
                <g id="Group">
                    <g id="Group">
                        <g id="Group">
                            <g id="Vector">
                                <use xlink:href="#path10_fill" transform="translate(-1301 -168.285)" fill="#F2994A"/>
                            </g>
                        </g>
                        <g id="Group">
                            <g id="Vector">
                                <use xlink:href="#path11_fill" transform="translate(-1295.94 -168.168)" fill="#F2994A"/>
                            </g>
                        </g>
                    </g>
                    <g id="Group">
                        <g id="Vector">
                            <use xlink:href="#path12_fill" transform="translate(-1296.56 -147.987)" fill="#F2994A"/>
                        </g>
                    </g>
                    <g id="Group">
                        <g id="Vector">
                            <use xlink:href="#path13_fill" transform="translate(-1297.43 -172.92)" fill="#F2994A"/>
                        </g>
                    </g>
                    <g id="Group">
                        <g id="Group">
                            <g id="Vector">
                                <use xlink:href="#path14_fill" transform="translate(-1301 -163.533)" fill="#F2994A"/>
                            </g>
                        </g>
                        <g id="Group">
                            <g id="Vector">
                                <use xlink:href="#path15_fill" transform="translate(-1295.92 -163.416)" fill="#F2994A"/>
                            </g>
                        </g>
                    </g>
                    <g id="Group">
                        <g id="Group">
                            <g id="Vector">
                                <use xlink:href="#path16_fill" transform="translate(-1301 -158.84)" fill="#F2994A"/>
                            </g>
                        </g>
                        <g id="Group">
                            <g id="Vector">
                                <use xlink:href="#path17_fill" transform="translate(-1295.92 -158.723)" fill="#F2994A"/>
                            </g>
                        </g>
                    </g>
                    <g id="Group">
                        <g id="Group">
                            <g id="Vector">
                                <use xlink:href="#path18_fill" transform="translate(-1301 -154.088)" fill="#F2994A"/>
                            </g>
                        </g>
                        <g id="Group">
                            <g id="Vector">
                                <use xlink:href="#path19_fill" transform="translate(-1295.92 -153.971)" fill="#F2994A"/>
                            </g>
                        </g>
                    </g>
                </g>
                <g id="Group">
                    <g id="Group">
                        <g id="Group">
                            <g id="Vector">
                                <use xlink:href="#path20_fill" transform="translate(-1261.8 -168.227)" fill="#F2994A"/>
                            </g>
                        </g>
                        <g id="Group">
                            <g id="Vector">
                                <use xlink:href="#path21_fill" transform="translate(-1256.72 -168.168)" fill="#F2994A"/>
                            </g>
                        </g>
                    </g>
                    <g id="Group">
                        <g id="Vector">
                            <use xlink:href="#path22_fill" transform="translate(-1257.36 -147.987)" fill="#F2994A"/>
                        </g>
                    </g>
                    <g id="Group">
                        <g id="Vector">
                            <use xlink:href="#path23_fill" transform="translate(-1258.23 -172.92)" fill="#F2994A"/>
                        </g>
                    </g>
                    <g id="Group">
                        <g id="Group">
                            <g id="Vector">
                                <use xlink:href="#path24_fill" transform="translate(-1261.8 -163.475)" fill="#F2994A"/>
                            </g>
                        </g>
                        <g id="Group">
                            <g id="Vector">
                                <use xlink:href="#path25_fill" transform="translate(-1256.72 -163.416)" fill="#F2994A"/>
                            </g>
                        </g>
                    </g>
                    <g id="Group">
                        <g id="Group">
                            <g id="Vector">
                                <use xlink:href="#path26_fill" transform="translate(-1261.8 -158.781)" fill="#F2994A"/>
                            </g>
                        </g>
                        <g id="Group">
                            <g id="Vector">
                                <use xlink:href="#path27_fill" transform="translate(-1256.72 -158.723)" fill="#F2994A"/>
                            </g>
                        </g>
                    </g>
                    <g id="Group">
                        <g id="Group">
                            <g id="Vector">
                                <use xlink:href="#path28_fill" transform="translate(-1261.8 -154.029)" fill="#F2994A"/>
                            </g>
                        </g>
                        <g id="Group">
                            <g id="Vector">
                                <use xlink:href="#path29_fill" transform="translate(-1256.72 -153.971)" fill="#F2994A"/>
                            </g>
                        </g>
                    </g>
                </g>
            </g>
        </g>
    </g>
    <defs>
        <path id="path0_fill" d="M 5.82235 7.50933C 5.47647 7.50933 5.01529 7.392 4.49647 7.15733C 3.63176 6.74667 2.70941 5.984 1.84471 5.04533C 0.115294 3.10933 -4.39812e-07 0.410667 -4.39812e-07 0.293333L -4.39812e-07 1.11898e-07L 0.288235 0.0586664C 0.403529 0.0586664 3.05529 0.410667 4.78471 2.34667C 5.64941 3.28533 6.28353 4.28267 6.62941 5.16267C 7.03294 6.16 6.9753 6.92267 6.57177 7.33333C 6.39882 7.392 6.11059 7.50933 5.82235 7.50933ZM 0.57647 0.586667C 0.691764 1.34933 1.03765 3.28533 2.24824 4.69333C 3.05529 5.57333 3.92 6.27733 4.72706 6.688C 5.41882 7.04 5.99529 7.09867 6.22588 6.864C 6.45647 6.62933 6.45647 6.04267 6.16824 5.33867C 5.82235 4.51733 5.24588 3.57867 4.43882 2.69867C 3.17059 1.232 1.26824 0.704 0.57647 0.586667Z"/>
        <path id="path1_fill" d="M 1.14007 7.62667C 0.794185 7.62667 0.563598 7.50933 0.33301 7.33333C -0.0705195 6.92267 -0.128168 6.16 0.275362 5.16267C 0.621244 4.28267 1.31301 3.28533 2.12007 2.34667C 3.84948 0.410667 6.50124 0.0586668 6.61654 0.0586668L 6.90477 -1.11898e-07L 6.90477 0.293333C 6.90477 0.410667 6.78948 3.10933 5.06007 5.04533C 4.19536 5.984 3.27301 6.74667 2.4083 7.15733C 1.94713 7.50933 1.48595 7.62667 1.14007 7.62667ZM 6.38595 0.704C 5.63654 0.88 3.79183 1.34933 2.5236 2.75733C 1.71654 3.63733 1.08242 4.576 0.794186 5.39733C 0.505951 6.16 0.505952 6.688 0.73654 6.92267C 0.967128 7.15733 1.5436 7.09867 2.23536 6.74667C 3.04242 6.336 3.90713 5.632 4.71419 4.752C 5.98242 3.40267 6.3283 1.46667 6.38595 0.704Z"/>
        <path id="path2_fill" d="M 1.32588 0L 0 0L 0 7.33333L 1.32588 7.33333L 1.32588 0Z"/>
        <path id="path3_fill" d="M 1.96333 9.91467C 0.637451 9.91467 -0.0543151 7.392 0.00333194 4.98667C 0.00333194 2.34667 1.73274 0.293333 1.84804 0.176L 2.02098 0L 2.25157 0.234667C 2.30922 0.293333 4.03863 2.40533 4.03863 5.04533C 3.98098 7.392 3.28922 9.91467 1.96333 9.91467ZM 2.02098 0.88C 1.5598 1.52533 0.522156 3.168 0.522156 5.04533C 0.522156 7.62667 1.27157 9.38667 1.96333 9.38667C 2.6551 9.38667 3.46216 7.62667 3.46216 5.04533C 3.46216 3.168 2.42451 1.46667 2.02098 0.88Z"/>
        <path id="path4_fill" d="M 5.82235 7.50933C 5.47647 7.50933 5.01529 7.392 4.49647 7.15733C 3.63176 6.74667 2.70941 5.984 1.84471 5.04533C 0.115294 3.10933 -4.39812e-07 0.410667 -4.39812e-07 0.293334L -4.39812e-07 2.23796e-07L 0.288235 0.0586671C 0.403529 0.0586671 3.05529 0.410667 4.78471 2.34667C 5.64941 3.28533 6.28353 4.28267 6.62941 5.16267C 7.03294 6.16 6.9753 6.92267 6.57177 7.33333C 6.39882 7.45067 6.11059 7.50933 5.82235 7.50933ZM 0.57647 0.586667C 0.691764 1.34933 1.03765 3.28533 2.24824 4.69333C 3.05529 5.57333 3.92 6.27733 4.72706 6.688C 5.41882 7.04 5.99529 7.09867 6.22588 6.864C 6.45647 6.62933 6.45647 6.04267 6.16824 5.33867C 5.82235 4.51733 5.24588 3.57867 4.43882 2.69867C 3.17059 1.232 1.26824 0.762667 0.57647 0.586667Z"/>
        <path id="path5_fill" d="M 1.14007 7.62667C 0.794185 7.62667 0.563598 7.50933 0.33301 7.33333C -0.0705195 6.92267 -0.128168 6.16 0.275362 5.16267C 0.621244 4.28267 1.31301 3.28533 2.12007 2.34667C 3.84948 0.410667 6.50124 0.0586671 6.61654 0.0586671L 6.90477 2.23796e-07L 6.90477 0.293334C 6.90477 0.410667 6.78948 3.10933 5.06007 5.04533C 4.19536 5.984 3.27301 6.74667 2.4083 7.15733C 1.94713 7.45067 1.48595 7.62667 1.14007 7.62667ZM 6.38595 0.645334C 5.63654 0.821334 3.79183 1.29067 2.5236 2.69867C 1.71654 3.57867 1.08242 4.51733 0.794186 5.33867C 0.505951 6.10133 0.505952 6.62933 0.73654 6.864C 0.967128 7.09867 1.5436 7.04 2.23536 6.688C 3.04242 6.27733 3.90713 5.57333 4.71419 4.69333C 5.98242 3.344 6.3283 1.408 6.38595 0.645334Z"/>
        <path id="path6_fill" d="M 5.82235 7.50933C 5.47647 7.50933 5.01529 7.392 4.49647 7.15733C 3.63176 6.74667 2.70941 5.984 1.84471 5.04533C 0.115294 3.10933 -4.39812e-07 0.410667 -4.39812e-07 0.293333L -4.39812e-07 4.16852e-15L 0.288235 0.0586658C 0.403529 0.0586658 3.05529 0.410667 4.78471 2.34667C 5.64941 3.28533 6.28353 4.28267 6.62941 5.16267C 7.03294 6.16 6.9753 6.92267 6.57177 7.33333C 6.39882 7.392 6.11059 7.50933 5.82235 7.50933ZM 0.57647 0.528001C 0.691764 1.29067 1.03765 3.22667 2.24824 4.63467C 3.05529 5.51467 3.92 6.21867 4.72706 6.62933C 5.41882 6.98133 5.99529 7.04 6.22588 6.80533C 6.45647 6.57067 6.45647 5.984 6.16824 5.28C 5.82235 4.45867 5.24588 3.52 4.43882 2.64C 3.17059 1.232 1.26824 0.704001 0.57647 0.528001Z"/>
        <path id="path7_fill" d="M 1.14007 7.62667C 0.794185 7.62667 0.563598 7.50933 0.33301 7.33333C -0.0705195 6.92267 -0.128168 6.16 0.275362 5.16267C 0.621244 4.28267 1.31301 3.28533 2.12007 2.34667C 3.84948 0.410668 6.50124 0.0586667 6.61654 0.0586667L 6.90477 8.95182e-07L 6.90477 0.293334C 6.90477 0.410668 6.78948 3.10933 5.06007 5.04533C 4.19536 5.984 3.27301 6.74667 2.4083 7.15733C 1.94713 7.50933 1.48595 7.62667 1.14007 7.62667ZM 6.38595 0.703999C 5.63654 0.879999 3.79183 1.34933 2.5236 2.75733C 1.71654 3.63733 1.08242 4.576 0.794186 5.39733C 0.505951 6.16 0.505952 6.688 0.73654 6.92267C 0.967128 7.15733 1.5436 7.09867 2.23536 6.74667C 3.04242 6.336 3.90713 5.632 4.71419 4.752C 5.98242 3.40267 6.3283 1.46667 6.38595 0.703999Z"/>
        <path id="path8_fill" d="M 5.82235 7.50933C 5.47647 7.50933 5.01529 7.392 4.49647 7.15733C 3.63176 6.74667 2.70941 5.984 1.84471 5.04533C 0.115294 3.10933 -4.39812e-07 0.410666 -4.39812e-07 0.293333L -4.39812e-07 -4.47591e-07L 0.288235 0.0586676C 0.403529 0.0586676 3.05529 0.410666 4.78471 2.34667C 5.64941 3.28533 6.28353 4.28267 6.62941 5.16267C 7.03294 6.16 6.9753 6.92267 6.57177 7.33333C 6.39882 7.45067 6.11059 7.50933 5.82235 7.50933ZM 0.57647 0.586666C 0.691764 1.34933 1.03765 3.28533 2.24824 4.69333C 3.05529 5.57333 3.92 6.27733 4.72706 6.688C 5.41882 7.04 5.99529 7.09867 6.22588 6.864C 6.45647 6.62933 6.45647 6.04267 6.16824 5.33867C 5.82235 4.51733 5.24588 3.57867 4.43882 2.69867C 3.17059 1.232 1.26824 0.704 0.57647 0.586666Z"/>
        <path id="path9_fill" d="M 1.14007 7.62667C 0.794185 7.62667 0.563598 7.50933 0.33301 7.33333C -0.0705195 6.92267 -0.128168 6.16 0.275362 5.16267C 0.621244 4.28267 1.31301 3.28533 2.12007 2.34667C 3.84948 0.410666 6.50124 0.0586676 6.61654 0.0586676L 6.90477 -4.47591e-07L 6.90477 0.293333C 6.90477 0.410666 6.78948 3.10933 5.06007 5.04533C 4.19536 5.984 3.27301 6.74667 2.4083 7.15733C 1.94713 7.45067 1.48595 7.62667 1.14007 7.62667ZM 6.38595 0.645334C 5.63654 0.821334 3.79183 1.29067 2.5236 2.69867C 1.71654 3.57867 1.08242 4.51733 0.794186 5.33867C 0.505951 6.10133 0.505952 6.62933 0.73654 6.864C 0.967128 7.09867 1.5436 7.04 2.23536 6.688C 3.04242 6.27733 3.90713 5.57333 4.71419 4.69333C 5.98242 3.344 6.3283 1.408 6.38595 0.645334Z"/>
        <path id="path10_fill" d="M 3.97765 5.16267C 3.74706 5.16267 3.40118 5.104 3.05529 4.928C 2.47882 4.63467 1.84471 4.10667 1.26824 3.52C 0.115294 2.17067 0 0.293333 0 0.234666L 0 -2.23796e-07L 0.230588 -2.23796e-07C 0.288235 -2.23796e-07 2.13294 0.234667 3.28588 1.52533C 3.86235 2.17067 4.32353 2.816 4.55412 3.46133C 4.84235 4.10667 4.78471 4.63467 4.49647 4.928C 4.38118 5.104 4.20824 5.16267 3.97765 5.16267ZM 0.403529 0.469334C 0.461176 0.997334 0.691765 2.288 1.55647 3.22667C 2.07529 3.81333 2.70941 4.28267 3.22824 4.576C 3.68941 4.81067 4.09294 4.86933 4.26588 4.69333C 4.43882 4.51733 4.43882 4.16533 4.20824 3.63733C 3.97765 3.05067 3.57412 2.40533 2.99765 1.81867C 2.13294 0.88 0.922353 0.586667 0.403529 0.469334Z"/>
        <path id="path11_fill" d="M 0.765971 5.104C 0.535383 5.104 0.362442 5.04533 0.247147 4.928C -0.0410878 4.63467 -0.0987346 4.10667 0.189501 3.46133C 0.420089 2.87467 0.881265 2.17067 1.45774 1.52533C 2.66832 0.234667 4.45538 -8.95182e-07 4.51303 -8.95182e-07L 4.74362 -8.95182e-07L 4.74362 0.234667C 4.74362 0.293333 4.68597 2.17067 3.47538 3.46133C 2.89891 4.10667 2.26479 4.576 1.68832 4.86933C 1.34244 5.04533 0.996559 5.104 0.765971 5.104ZM 4.34009 0.410666C 3.82126 0.528 2.55303 0.88 1.68832 1.81867C 1.1695 2.40533 0.708324 3.05067 0.477736 3.63733C 0.304795 4.16533 0.247148 4.51733 0.420089 4.69333C 0.59303 4.86933 0.996559 4.81067 1.45774 4.576C 1.97656 4.28267 2.61068 3.81333 3.1295 3.22667C 4.05185 2.22933 4.28244 0.938666 4.34009 0.410666Z"/>
        <path id="path12_fill" d="M 0.922353 0L 0 0L 0 4.98667L 0.922353 4.98667L 0.922353 0Z"/>
        <path id="path13_fill" d="M 1.33024 6.74667C 0.465529 6.74667 -0.0532944 5.04533 0.00435268 3.40267C 0.00435268 1.64267 1.21494 0.234666 1.21494 0.176L 1.33024 0L 1.44553 0.176C 1.50318 0.234666 2.65612 1.64267 2.65612 3.46133C 2.65612 5.04533 2.19494 6.74667 1.33024 6.74667ZM 1.33024 0.586667C 1.042 0.997333 0.350235 2.112 0.292588 3.40267C 0.292588 5.16267 0.811411 6.336 1.27259 6.336C 1.73376 6.336 2.25259 5.104 2.31024 3.40267C 2.31024 2.112 1.61847 0.997333 1.33024 0.586667Z"/>
        <path id="path14_fill" d="M 3.97765 5.16267C 3.74706 5.16267 3.40118 5.104 3.05529 4.928C 2.47882 4.63467 1.84471 4.10667 1.26824 3.52C 0.115294 2.17067 0 0.293334 0 0.234668L 0 0L 0.230588 0C 0.288235 0 2.13294 0.234666 3.28588 1.52533C 3.86235 2.17067 4.32353 2.816 4.55412 3.46133C 4.84235 4.10667 4.78471 4.63467 4.49647 4.928C 4.38118 5.104 4.20824 5.16267 3.97765 5.16267ZM 0.403529 0.410667C 0.461176 0.938667 0.691765 2.22933 1.55647 3.168C 2.07529 3.75467 2.70941 4.224 3.22824 4.51733C 3.68941 4.752 4.09294 4.81067 4.26588 4.63467C 4.43882 4.45867 4.43882 4.10667 4.20824 3.57867C 3.97765 2.992 3.57412 2.34667 2.99765 1.76C 2.13294 0.88 0.922353 0.528 0.403529 0.410667Z"/>
        <path id="path15_fill" d="M 0.742808 5.104C 0.51222 5.104 0.339278 5.04533 0.223984 4.928C -0.0642513 4.63467 -0.064251 4.16533 0.166337 3.46133C 0.396926 2.87467 0.858102 2.17067 1.43457 1.52533C 2.64516 0.234666 4.43222 4.47591e-07 4.48987 4.47591e-07L 4.72046 4.47591e-07L 4.72046 0.234666C 4.72046 0.293332 4.66281 2.17067 3.45222 3.46133C 2.87575 4.10667 2.24163 4.576 1.66516 4.86933C 1.31928 4.98667 0.973396 5.104 0.742808 5.104ZM 4.31693 0.352C 3.7981 0.469333 2.52987 0.821334 1.66516 1.76C 1.14634 2.34667 0.685161 2.992 0.454573 3.57867C 0.281631 4.10667 0.223984 4.45867 0.396925 4.63467C 0.569866 4.81067 0.973396 4.752 1.43457 4.51733C 1.9534 4.224 2.58751 3.75467 3.10634 3.168C 4.02869 2.17067 4.25928 0.88 4.31693 0.352Z"/>
        <path id="path16_fill" d="M 3.97765 5.16267C 3.74706 5.16267 3.40118 5.104 3.05529 4.928C 2.47882 4.63467 1.84471 4.10667 1.26824 3.52C 0.115294 2.17067 0 0.293334 0 0.234668L 0 0L 0.230588 0C 0.288235 0 2.13294 0.234666 3.28588 1.52533C 3.86235 2.17067 4.32353 2.816 4.55412 3.46133C 4.84235 4.10667 4.78471 4.63467 4.49647 4.928C 4.38118 5.104 4.20824 5.16267 3.97765 5.16267ZM 0.403529 0.469333C 0.461176 0.997333 0.691765 2.288 1.55647 3.22667C 2.07529 3.81333 2.70941 4.28267 3.22824 4.576C 3.68941 4.81067 4.09294 4.86933 4.26588 4.69333C 4.43882 4.51733 4.43882 4.16533 4.20824 3.63733C 3.97765 3.05067 3.57412 2.40533 2.99765 1.81867C 2.13294 0.879999 0.922353 0.586666 0.403529 0.469333Z"/>
        <path id="path17_fill" d="M 0.742808 5.104C 0.51222 5.104 0.339278 5.04533 0.223984 4.928C -0.0642513 4.63467 -0.064251 4.16533 0.166337 3.46133C 0.396926 2.87467 0.858102 2.17067 1.43457 1.52533C 2.64516 0.234666 4.43222 4.47591e-07 4.48987 4.47591e-07L 4.72046 4.47591e-07L 4.72046 0.234666C 4.72046 0.293332 4.66281 2.17067 3.45222 3.46133C 2.87575 4.10667 2.24163 4.576 1.66516 4.86933C 1.31928 5.04533 0.973396 5.104 0.742808 5.104ZM 4.31693 0.410668C 3.7981 0.528001 2.52987 0.879999 1.66516 1.81867C 1.14634 2.40533 0.685161 3.05067 0.454573 3.63733C 0.281631 4.16533 0.223984 4.51733 0.396925 4.69333C 0.569866 4.86933 0.973396 4.81067 1.43457 4.576C 1.9534 4.28267 2.58751 3.81333 3.10634 3.22667C 4.02869 2.22933 4.25928 0.938668 4.31693 0.410668Z"/>
        <path id="path18_fill" d="M 3.97765 5.16267C 3.74706 5.16267 3.40118 5.104 3.05529 4.928C 2.47882 4.63467 1.84471 4.10667 1.26824 3.52C 0.115294 2.17067 0 0.293333 0 0.234667L 0 -8.95182e-07L 0.230588 -8.95182e-07C 0.288235 -8.95182e-07 2.13294 0.234667 3.28588 1.52533C 3.86235 2.17067 4.32353 2.816 4.55412 3.46133C 4.84235 4.10667 4.78471 4.63467 4.49647 4.928C 4.38118 5.104 4.20824 5.16267 3.97765 5.16267ZM 0.403529 0.410666C 0.461176 0.938666 0.691765 2.22933 1.55647 3.168C 2.07529 3.75467 2.70941 4.224 3.22824 4.51733C 3.68941 4.752 4.09294 4.81067 4.26588 4.63467C 4.43882 4.45867 4.43882 4.10667 4.20824 3.57867C 3.97765 2.992 3.57412 2.34667 2.99765 1.76C 2.13294 0.879999 0.922353 0.528 0.403529 0.410666Z"/>
        <path id="path19_fill" d="M 0.742808 5.104C 0.51222 5.104 0.339278 5.04533 0.223984 4.928C -0.0642513 4.63466 -0.064251 4.16533 0.166337 3.46133C 0.396926 2.87467 0.858102 2.17067 1.43457 1.52533C 2.64516 0.234668 4.43222 -4.47591e-07 4.48987 -4.47591e-07L 4.72046 -4.47591e-07L 4.72046 0.234667C 4.72046 0.293334 4.66281 2.17067 3.45222 3.46133C 2.87575 4.10667 2.24163 4.576 1.66516 4.86933C 1.31928 4.98667 0.973396 5.104 0.742808 5.104ZM 4.31693 0.352001C 3.7981 0.469334 2.52987 0.821333 1.66516 1.76C 1.14634 2.34667 0.685161 2.992 0.454573 3.57867C 0.281631 4.10667 0.223984 4.45866 0.396925 4.63466C 0.569866 4.81066 0.973396 4.752 1.43457 4.51733C 1.9534 4.224 2.58751 3.75467 3.10634 3.168C 4.02869 2.17067 4.25928 0.880001 4.31693 0.352001Z"/>
        <path id="path20_fill" d="M 3.97765 5.104C 3.74706 5.104 3.40118 5.04533 3.0553 4.86933C 2.47883 4.576 1.8447 4.048 1.26823 3.46133C 0.0576454 2.17067 -8.19214e-15 0.293334 -8.19214e-15 0.234668L -8.19214e-15 -4.16852e-15L 0.230589 -4.16852e-15C 0.288236 -4.16852e-15 2.13294 0.234666 3.28588 1.52533C 3.86235 2.17067 4.32353 2.816 4.55412 3.46133C 4.84235 4.10667 4.78471 4.63467 4.49647 4.928C 4.38118 5.04533 4.20824 5.104 3.97765 5.104ZM 0.403528 0.410667C 0.461175 0.938667 0.691763 2.22933 1.55647 3.168C 2.07529 3.75467 2.70941 4.224 3.22823 4.51733C 3.68941 4.752 4.09294 4.81067 4.26588 4.63467C 4.43882 4.45867 4.43883 4.10667 4.20824 3.57867C 3.97765 2.992 3.57412 2.34667 2.99765 1.76C 2.13294 0.821333 0.922351 0.528 0.403528 0.410667Z"/>
        <path id="path21_fill" d="M 0.742807 5.104C 0.512218 5.104 0.339276 5.04533 0.223982 4.928C -0.064253 4.63467 -0.0642521 4.16533 0.166336 3.46133C 0.396924 2.87467 0.858104 2.17067 1.43457 1.52533C 2.64516 0.234667 4.43222 -8.95182e-07 4.48987 -8.95182e-07L 4.72046 -8.95182e-07L 4.72046 0.234667C 4.72046 0.293333 4.66281 2.17067 3.45222 3.46133C 2.87575 4.10667 2.24163 4.576 1.66516 4.86933C 1.31928 5.04533 0.973395 5.104 0.742807 5.104ZM 4.31693 0.410666C 3.7981 0.528 2.52986 0.88 1.66516 1.81867C 1.14634 2.40533 0.68516 3.05067 0.454571 3.63733C 0.28163 4.16533 0.223984 4.51733 0.396925 4.69333C 0.569866 4.86933 0.973398 4.81067 1.43457 4.576C 1.9534 4.28267 2.58751 3.81333 3.10634 3.22667C 4.02869 2.22933 4.25928 0.938666 4.31693 0.410666Z"/>
        <path id="path22_fill" d="M 0.922355 0L 0 0L 0 4.98667L 0.922355 4.98667L 0.922355 0Z"/>
        <path id="path23_fill" d="M 1.33024 6.74667C 0.465529 6.74667 -0.053296 5.04533 0.00435103 3.40267C 0.00435103 1.64267 1.21494 0.234666 1.21494 0.176L 1.33024 0L 1.44553 0.176C 1.50317 0.234666 2.65612 1.64267 2.65612 3.46133C 2.65612 5.04533 2.19494 6.74667 1.33024 6.74667ZM 1.33024 0.586667C 1.042 0.997333 0.350233 2.112 0.292586 3.40267C 0.292586 5.16267 0.811412 6.336 1.27259 6.336C 1.73377 6.336 2.25259 5.104 2.31023 3.40267C 2.31023 2.112 1.61847 0.997333 1.33024 0.586667Z"/>
        <path id="path24_fill" d="M 3.97765 5.104C 3.74706 5.104 3.40118 5.04533 3.0553 4.86933C 2.47883 4.576 1.8447 4.048 1.26823 3.46133C 0.0576454 2.17067 -8.19214e-15 0.293333 -8.19214e-15 0.234667L -8.19214e-15 -8.95182e-07L 0.230589 -8.95182e-07C 0.288236 -8.95182e-07 2.13294 0.234667 3.28588 1.52533C 3.86235 2.17067 4.32353 2.816 4.55412 3.46133C 4.84235 4.10667 4.78471 4.63467 4.49647 4.928C 4.38118 5.04533 4.20824 5.104 3.97765 5.104ZM 0.403528 0.352C 0.461175 0.88 0.691763 2.17067 1.55647 3.10933C 2.07529 3.696 2.70941 4.16533 3.22823 4.45867C 3.68941 4.69333 4.09294 4.752 4.26588 4.576C 4.43882 4.4 4.43883 4.048 4.20824 3.52C 3.97765 2.93333 3.57412 2.288 2.99765 1.70133C 2.13294 0.821333 0.922351 0.469334 0.403528 0.352Z"/>
        <path id="path25_fill" d="M 0.742807 5.104C 0.512218 5.104 0.339276 5.04533 0.223982 4.928C -0.064253 4.63467 -0.0642521 4.16533 0.166336 3.46133C 0.396924 2.87467 0.858104 2.17067 1.43457 1.52533C 2.64516 0.234666 4.43222 4.47591e-07 4.48987 4.47591e-07L 4.72046 4.47591e-07L 4.72046 0.234666C 4.72046 0.293332 4.66281 2.17067 3.45222 3.46133C 2.87575 4.10667 2.24163 4.576 1.66516 4.86933C 1.31928 4.98667 0.973395 5.104 0.742807 5.104ZM 4.31693 0.352C 3.7981 0.469333 2.52986 0.821334 1.66516 1.76C 1.14634 2.34667 0.68516 2.992 0.454571 3.57867C 0.28163 4.10667 0.223984 4.45867 0.396925 4.63467C 0.569866 4.81067 0.973398 4.752 1.43457 4.51733C 1.9534 4.224 2.58751 3.75467 3.10634 3.168C 4.02869 2.17067 4.25928 0.88 4.31693 0.352Z"/>
        <path id="path26_fill" d="M 3.97765 5.104C 3.74706 5.104 3.40118 5.04533 3.0553 4.86933C 2.47883 4.576 1.8447 4.048 1.26823 3.46133C 0.0576454 2.17067 -8.19214e-15 0.293333 -8.19214e-15 0.234667L -8.19214e-15 -8.95182e-07L 0.230589 -8.95182e-07C 0.288236 -8.95182e-07 2.13294 0.234667 3.28588 1.52533C 3.86235 2.17067 4.32353 2.816 4.55412 3.46133C 4.84235 4.10667 4.78471 4.63467 4.49647 4.928C 4.38118 5.04533 4.20824 5.104 3.97765 5.104ZM 0.403528 0.410666C 0.461175 0.938666 0.691763 2.22933 1.55647 3.168C 2.07529 3.75467 2.70941 4.224 3.22823 4.51733C 3.68941 4.752 4.09294 4.81067 4.26588 4.63467C 4.43882 4.45867 4.43883 4.10667 4.20824 3.57867C 3.97765 2.992 3.57412 2.34667 2.99765 1.76C 2.13294 0.821332 0.922351 0.528 0.403528 0.410666Z"/>
        <path id="path27_fill" d="M 0.742807 5.104C 0.512218 5.104 0.339276 5.04533 0.223982 4.928C -0.064253 4.63467 -0.0642521 4.16533 0.166336 3.46133C 0.396924 2.87467 0.858104 2.17067 1.43457 1.52533C 2.64516 0.234666 4.43222 4.47591e-07 4.48987 4.47591e-07L 4.72046 4.47591e-07L 4.72046 0.234666C 4.72046 0.293332 4.66281 2.17067 3.45222 3.46133C 2.87575 4.10667 2.24163 4.576 1.66516 4.86933C 1.31928 5.04533 0.973395 5.104 0.742807 5.104ZM 4.31693 0.410668C 3.7981 0.528001 2.52986 0.879999 1.66516 1.81867C 1.14634 2.40533 0.68516 3.05067 0.454571 3.63733C 0.28163 4.16533 0.223984 4.51733 0.396925 4.69333C 0.569866 4.86933 0.973398 4.81067 1.43457 4.576C 1.9534 4.28267 2.58751 3.81333 3.10634 3.22667C 4.02869 2.22933 4.25928 0.938668 4.31693 0.410668Z"/>
        <path id="path28_fill" d="M 3.97765 5.104C 3.74706 5.104 3.40118 5.04533 3.0553 4.86933C 2.47883 4.576 1.8447 4.048 1.26823 3.46133C 0.0576454 2.17067 -8.19214e-15 0.293332 -8.19214e-15 0.234666L -8.19214e-15 4.47591e-07L 0.230589 4.47591e-07C 0.288236 4.47591e-07 2.13294 0.234666 3.28588 1.52533C 3.86235 2.17067 4.32353 2.816 4.55412 3.46133C 4.84235 4.10667 4.78471 4.63467 4.49647 4.928C 4.38118 5.04533 4.20824 5.104 3.97765 5.104ZM 0.403528 0.352C 0.461175 0.88 0.691763 2.17067 1.55647 3.10933C 2.07529 3.696 2.70941 4.16533 3.22823 4.45867C 3.68941 4.69333 4.09294 4.752 4.26588 4.576C 4.43882 4.4 4.43883 4.048 4.20824 3.52C 3.97765 2.93333 3.57412 2.288 2.99765 1.70133C 2.13294 0.821332 0.922351 0.469333 0.403528 0.352Z"/>
        <path id="path29_fill" d="M 0.742807 5.104C 0.512218 5.104 0.339276 5.04533 0.223982 4.928C -0.064253 4.63466 -0.0642521 4.16533 0.166336 3.46133C 0.396924 2.87467 0.858104 2.17067 1.43457 1.52533C 2.64516 0.234668 4.43222 -4.47591e-07 4.48987 -4.47591e-07L 4.72046 -4.47591e-07L 4.72046 0.234667C 4.72046 0.293334 4.66281 2.17067 3.45222 3.46133C 2.87575 4.10667 2.24163 4.576 1.66516 4.86933C 1.31928 4.98667 0.973395 5.104 0.742807 5.104ZM 4.31693 0.352001C 3.7981 0.469334 2.52986 0.821333 1.66516 1.76C 1.14634 2.34667 0.68516 2.992 0.454571 3.57867C 0.28163 4.10667 0.223984 4.45866 0.396925 4.63466C 0.569866 4.81066 0.973398 4.752 1.43457 4.51733C 1.9534 4.224 2.58751 3.75467 3.10634 3.168C 4.02869 2.17067 4.25928 0.880001 4.31693 0.352001Z"/>
    </defs>
</svg>
